RedHatDisplay-BoldItalic.ufo
<glyph name="exclam" format="2">
  <advance width="235"/>
  <unicode hex="0021"/>
  <outline>
    <contour>
      <point x="56" y="210" type="line"/>
      <point x="159" y="210" type="line"/>
      <point x="280" y="701" type="line"/>
      <point x="143" y="701" type="line"/>
    </contour>
    <contour>
      <point x="68" y="-10" type="curve" smooth="yes"/>
      <point x="115" y="-10"/>
      <point x="157" y="33"/>
      <point x="157" y="81" type="curve" smooth="yes"/>
      <point x="157" y="121"/>
      <point x="128" y="152"/>
      <point x="88" y="152" type="curve" smooth="yes"/>
      <point x="39" y="152"/>
      <point x="-3" y="110"/>
      <point x="-3" y="61" type="curve" smooth="yes"/>
      <point x="-3" y="21"/>
      <point x="27" y="-10"/>
    </contour>
  </outline>
</glyph>
<glyph name="numbersign" format="2">
  <advance width="723"/>
  <unicode hex="0023"/>
  <outline>
    <contour>
      <point x="9" y="0" type="line"/>
      <point x="130" y="0" type="line"/>
      <point x="226" y="194" type="line"/>
      <point x="374" y="194" type="line"/>
      <point x="278" y="0" type="line"/>
      <point x="398" y="0" type="line"/>
      <point x="494" y="194" type="line"/>
      <point x="627" y="194" type="line"/>
      <point x="647" y="292" type="line"/>
      <point x="542" y="292" type="line"/>
      <point x="599" y="408" type="line"/>
      <point x="721" y="408" type="line"/>
      <point x="742" y="506" type="line"/>
      <point x="647" y="506" type="line"/>
      <point x="743" y="700" type="line"/>
      <point x="622" y="700" type="line"/>
      <point x="527" y="506" type="line"/>
      <point x="379" y="506" type="line"/>
      <point x="475" y="700" type="line"/>
      <point x="354" y="700" type="line"/>
      <point x="258" y="506" type="line"/>
      <point x="125" y="506" type="line"/>
      <point x="103" y="408" type="line"/>
      <point x="210" y="408" type="line"/>
      <point x="153" y="292" type="line"/>
      <point x="30" y="292" type="line"/>
      <point x="9" y="194" type="line"/>
      <point x="105" y="194" type="line"/>
    </contour>
    <contour>
      <point x="274" y="292" type="line"/>
      <point x="331" y="408" type="line"/>
      <point x="479" y="408" type="line"/>
      <point x="422" y="292" type="line"/>
    </contour>
  </outline>
</glyph>
<glyph name="dollar" format="2">
  <advance width="589"/>
  <unicode hex="0024"/>
  <outline>
    <contour>
      <point x="184" y="-66" type="line"/>
      <point x="249" y="-66" type="line"/>
      <point x="266" y="15" type="line"/>
      <point x="273" y="15" type="line"/>
      <point x="445" y="15"/>
      <point x="556" y="103"/>
      <point x="556" y="237" type="curve" smooth="yes"/>
      <point x="556" y="321"/>
      <point x="502" y="375"/>
      <point x="390" y="403" type="curve" smooth="yes"/>
      <point x="351" y="412" type="line"/>
      <point x="383" y="565" type="line"/>
      <point x="436" y="553"/>
      <point x="484" y="525"/>
      <point x="528" y="483" type="curve"/>
      <point x="612" y="577" type="line"/>
      <point x="558" y="629"/>
      <point x="485" y="665"/>
      <point x="407" y="679" type="curve"/>
      <point x="426" y="767" type="line"/>
      <point x="361" y="767" type="line"/>
      <point x="344" y="687" type="line"/>
      <point x="327" y="687" type="line"/>
      <point x="165" y="687"/>
      <point x="63" y="607"/>
      <point x="63" y="479" type="curve" smooth="yes"/>
      <point x="63" y="397"/>
      <point x="112" y="341"/>
      <point x="204" y="317" type="curve" smooth="yes"/>
      <point x="262" y="302" type="line"/>
      <point x="227" y="135" type="line"/>
      <point x="169" y="149"/>
      <point x="116" y="183"/>
      <point x="66" y="238" type="curve"/>
      <point x="-22" y="146" type="line"/>
      <point x="37" y="78"/>
      <point x="115" y="36"/>
      <point x="202" y="21" type="curve"/>
    </contour>
    <contour>
      <point x="288" y="422" type="line"/>
      <point x="270" y="426" type="line" smooth="yes"/>
      <point x="215" y="440"/>
      <point x="191" y="462"/>
      <point x="191" y="496" type="curve" smooth="yes"/>
      <point x="191" y="544"/>
      <point x="238" y="574"/>
      <point x="312" y="574" type="curve" smooth="yes"/>
      <point x="320" y="574" type="line"/>
    </contour>
    <contour>
      <point x="290" y="128" type="curve"/>
      <point x="324" y="292" type="line"/>
      <point x="398" y="271"/>
      <point x="424" y="252"/>
      <point x="424" y="214" type="curve" smooth="yes"/>
      <point x="424" y="163"/>
      <point x="373" y="129"/>
    </contour>
  </outline>
</glyph>
<glyph name="ampersand" format="2">
  <advance width="670"/>
  <unicode hex="0026"/>
  <outline>
    <contour>
      <point x="619" y="81" type="line"/>
      <point x="594" y="100"/>
      <point x="568" y="122"/>
      <point x="542" y="148" type="curve"/>
      <point x="585" y="198"/>
      <point x="623" y="263"/>
      <point x="658" y="344" type="curve"/>
      <point x="547" y="373" type="line"/>
      <point x="522" y="314"/>
      <point x="494" y="264"/>
      <point x="464" y="225" type="curve"/>
      <point x="425" y="269"/>
      <point x="387" y="315"/>
      <point x="357" y="360" type="curve"/>
      <point x="412" y="388" type="line" smooth="yes"/>
      <point x="500" y="431"/>
      <point x="544" y="491"/>
      <point x="544" y="564" type="curve" smooth="yes"/>
      <point x="544" y="649"/>
      <point x="473" y="710"/>
      <point x="370" y="710" type="curve" smooth="yes"/>
      <point x="247" y="710"/>
      <point x="160" y="626"/>
      <point x="160" y="509" type="curve" smooth="yes"/>
      <point x="160" y="469"/>
      <point x="168" y="433"/>
      <point x="190" y="391" type="curve"/>
      <point x="67" y="334"/>
      <point x="14" y="268"/>
      <point x="14" y="172" type="curve" smooth="yes"/>
      <point x="14" y="61"/>
      <point x="105" y="-10"/>
      <point x="246" y="-10" type="curve" smooth="yes"/>
      <point x="320" y="-10"/>
      <point x="389" y="12"/>
      <point x="450" y="55" type="curve"/>
      <point x="476" y="30"/>
      <point x="503" y="6"/>
      <point x="528" y="-15" type="curve"/>
    </contour>
    <contour>
      <point x="282" y="527" type="curve" smooth="yes"/>
      <point x="282" y="575"/>
      <point x="313" y="609"/>
      <point x="358" y="609" type="curve" smooth="yes"/>
      <point x="397" y="609"/>
      <point x="421" y="585"/>
      <point x="421" y="549" type="curve" smooth="yes"/>
      <point x="421" y="516"/>
      <point x="399" y="486"/>
      <point x="354" y="464" type="curve" smooth="yes"/>
      <point x="307" y="441" type="line"/>
      <point x="290" y="474"/>
      <point x="282" y="500"/>
    </contour>
    <contour>
      <point x="141" y="190" type="curve" smooth="yes"/>
      <point x="141" y="237"/>
      <point x="170" y="272"/>
      <point x="240" y="307" type="curve"/>
      <point x="281" y="244"/>
      <point x="326" y="186"/>
      <point x="375" y="132" type="curve"/>
      <point x="339" y="109"/>
      <point x="302" y="97"/>
      <point x="262" y="97" type="curve" smooth="yes"/>
      <point x="188" y="97"/>
      <point x="141" y="133"/>
    </contour>
  </outline>
</glyph>
<glyph name="quotesingle" format="2">
  <advance width="246"/>
  <unicode hex="0027"/>
  <outline>
    <contour>
      <point x="108" y="425" type="line"/>
      <point x="206" y="425" type="line"/>
      <point x="283" y="705" type="line"/>
      <point x="152" y="705" type="line"/>
    </contour>
  </outline>
</glyph>
<glyph name="parenleft" format="2">
  <advance width="404"/>
  <unicode hex="0028"/>
  <outline>
    <contour>
      <point x="208" y="-218" type="curve"/>
      <point x="298" y="-140" type="line"/>
      <point x="211" y="-69"/>
      <point x="165" y="31"/>
      <point x="165" y="150" type="curve" smooth="yes"/>
      <point x="165" y="351"/>
      <point x="278" y="532"/>
      <point x="458" y="620" type="curve"/>
      <point x="402" y="711" type="line"/>
      <point x="180" y="608"/>
      <point x="39" y="385"/>
      <point x="39" y="137" type="curve" smooth="yes"/>
      <point x="39" y="-11"/>
      <point x="98" y="-135"/>
    </contour>
  </outline>
</glyph>
<glyph name="parenright" format="2">
  <advance width="404"/>
  <unicode hex="0029"/>
  <outline>
    <contour>
      <point x="196" y="713" type="curve"/>
      <point x="106" y="635" type="line"/>
      <point x="193" y="563"/>
      <point x="239" y="464"/>
      <point x="239" y="344" type="curve" smooth="yes"/>
      <point x="239" y="144"/>
      <point x="126" y="-38"/>
      <point x="-54" y="-125" type="curve"/>
      <point x="2" y="-216" type="line"/>
      <point x="224" y="-113"/>
      <point x="365" y="110"/>
      <point x="365" y="357" type="curve" smooth="yes"/>
      <point x="365" y="505"/>
      <point x="306" y="629"/>
    </contour>
  </outline>
</glyph>
<glyph name="asterisk" format="2">
  <advance width="466"/>
  <unicode hex="002A"/>
  <outline>
    <contour>
      <point x="202" y="317" type="line"/>
      <point x="290" y="317" type="line"/>
      <point x="312" y="430" type="line"/>
      <point x="398" y="359" type="line"/>
      <point x="461" y="429" type="line"/>
      <point x="366" y="501" type="line"/>
      <point x="493" y="563" type="line"/>
      <point x="459" y="640" type="line"/>
      <point x="343" y="582" type="line"/>
      <point x="370" y="700" type="line"/>
      <point x="283" y="700" type="line"/>
      <point x="260" y="584" type="line"/>
      <point x="171" y="657" type="line"/>
      <point x="110" y="589" type="line"/>
      <point x="207" y="514" type="line"/>
      <point x="83" y="456" type="line"/>
      <point x="115" y="376" type="line"/>
      <point x="228" y="433" type="line"/>
    </contour>
  </outline>
</glyph>
<glyph name="plus" format="2">
  <advance width="600"/>
  <unicode hex="002B"/>
  <outline>
    <contour>
      <point x="224" y="129" type="line"/>
      <point x="327" y="129" type="line"/>
      <point x="364" y="304" type="line"/>
      <point x="530" y="304" type="line"/>
      <point x="552" y="410" type="line"/>
      <point x="386" y="410" type="line"/>
      <point x="424" y="584" type="line"/>
      <point x="321" y="584" type="line"/>
      <point x="284" y="410" type="line"/>
      <point x="118" y="410" type="line"/>
      <point x="95" y="304" type="line"/>
      <point x="261" y="304" type="line"/>
    </contour>
  </outline>
</glyph>
<glyph name="hyphen" format="2">
  <advance width="449"/>
  <unicode hex="002D"/>
  <outline>
    <contour>
      <point x="57" y="343" type="line"/>
      <point x="33" y="227" type="line"/>
      <point x="403" y="227" type="line"/>
      <point x="427" y="343" type="line"/>
    </contour>
  </outline>
</glyph>
<glyph name="period" format="2">
  <advance width="250"/>
  <unicode hex="002E"/>
  <outline>
    <contour>
      <point x="76" y="-10" type="curve" smooth="yes"/>
      <point x="123" y="-10"/>
      <point x="165" y="33"/>
      <point x="165" y="81" type="curve" smooth="yes"/>
      <point x="165" y="121"/>
      <point x="135" y="152"/>
      <point x="95" y="152" type="curve" smooth="yes"/>
      <point x="47" y="152"/>
      <point x="5" y="110"/>
      <point x="5" y="61" type="curve" smooth="yes"/>
      <point x="5" y="21"/>
      <point x="35" y="-10"/>
    </contour>
  </outline>
</glyph>
<glyph name="slash" format="2">
  <advance width="508"/>
  <unicode hex="002F"/>
  <outline>
    <contour>
      <point x="-170" y="-209" type="line"/>
      <point x="-26" y="-209" type="line"/>
      <point x="582" y="700" type="line"/>
      <point x="439" y="700" type="line"/>
    </contour>
  </outline>
</glyph>
<glyph name="zero" format="2">
  <advance width="673"/>
  <unicode hex="0030"/>
  <outline>
    <contour>
      <point x="308" y="-10" type="curve" smooth="yes"/>
      <point x="505" y="-10"/>
      <point x="667" y="189"/>
      <point x="667" y="432" type="curve" smooth="yes"/>
      <point x="667" y="602"/>
      <point x="563" y="711"/>
      <point x="403" y="711" type="curve" smooth="yes"/>
      <point x="206" y="711"/>
      <point x="45" y="512"/>
      <point x="45" y="269" type="curve" smooth="yes"/>
      <point x="45" y="99"/>
      <point x="148" y="-10"/>
    </contour>
    <contour>
      <point x="321" y="108" type="curve" smooth="yes"/>
      <point x="231" y="108"/>
      <point x="177" y="172"/>
      <point x="177" y="276" type="curve" smooth="yes"/>
      <point x="177" y="450"/>
      <point x="274" y="593"/>
      <point x="390" y="593" type="curve" smooth="yes"/>
      <point x="480" y="593"/>
      <point x="535" y="529"/>
      <point x="535" y="424" type="curve" smooth="yes"/>
      <point x="535" y="251"/>
      <point x="438" y="108"/>
    </contour>
  </outline>
</glyph>
<glyph name="one" format="2">
  <advance width="343"/>
  <unicode hex="0031"/>
  <outline>
    <contour>
      <point x="100" y="0" type="line"/>
      <point x="234" y="0" type="line"/>
      <point x="383" y="700" type="line"/>
      <point x="298" y="700" type="line"/>
      <point x="98" y="624" type="line"/>
      <point x="73" y="504" type="line"/>
      <point x="219" y="561" type="line"/>
    </contour>
  </outline>
</glyph>
<glyph name="four" format="2">
  <advance width="659"/>
  <unicode hex="0034"/>
  <outline>
    <contour>
      <point x="359" y="0" type="line"/>
      <point x="492" y="0" type="line"/>
      <point x="527" y="164" type="line"/>
      <point x="612" y="164" type="line"/>
      <point x="636" y="279" type="line"/>
      <point x="552" y="279" type="line"/>
      <point x="641" y="700" type="line"/>
      <point x="487" y="700" type="line"/>
      <point x="29" y="274" type="line"/>
      <point x="5" y="164" type="line"/>
      <point x="394" y="164" type="line"/>
    </contour>
    <contour>
      <point x="189" y="279" type="line"/>
      <point x="475" y="545" type="line"/>
      <point x="418" y="279" type="line"/>
    </contour>
  </outline>
</glyph>
<glyph name="nine" format="2">
  <advance width="625"/>
  <unicode hex="0039"/>
  <outline>
    <contour>
      <point x="350" y="711" type="curve" smooth="yes"/>
      <point x="203" y="711"/>
      <point x="81" y="601"/>
      <point x="81" y="459" type="curve" smooth="yes"/>
      <point x="81" y="349"/>
      <point x="168" y="267"/>
      <point x="289" y="267" type="curve" smooth="yes"/>
      <point x="359" y="267"/>
      <point x="424" y="301"/>
      <point x="475" y="362" type="curve"/>
      <point x="453" y="209"/>
      <point x="357" y="104"/>
      <point x="244" y="104" type="curve" smooth="yes"/>
      <point x="194" y="104"/>
      <point x="149" y="123"/>
      <point x="105" y="163" type="curve"/>
      <point x="26" y="69" type="line"/>
      <point x="80" y="18"/>
      <point x="152" y="-11"/>
      <point x="236" y="-11" type="curve" smooth="yes"/>
      <point x="441" y="-11"/>
      <point x="605" y="175"/>
      <point x="605" y="426" type="curve" smooth="yes"/>
      <point x="605" y="603"/>
      <point x="500" y="711"/>
    </contour>
    <contour>
      <point x="339" y="598" type="curve" smooth="yes"/>
      <point x="421" y="598"/>
      <point x="477" y="535"/>
      <point x="480" y="431" type="curve"/>
      <point x="436" y="390"/>
      <point x="382" y="368"/>
      <point x="326" y="368" type="curve" smooth="yes"/>
      <point x="256" y="368"/>
      <point x="207" y="412"/>
      <point x="207" y="472" type="curve" smooth="yes"/>
      <point x="207" y="544"/>
      <point x="265" y="598"/>
    </contour>
  </outline>
</glyph>
<glyph name="less" format="2">
  <advance width="600"/>
  <unicode hex="003C"/>
  <outline>
    <contour>
      <point x="397" y="60" type="line"/>
      <point x="481" y="138" type="line"/>
      <point x="274" y="342" type="line"/>
      <point x="573" y="551" type="line"/>
      <point x="518" y="636" type="line"/>
      <point x="114" y="348" type="line"/>
    </contour>
  </outline>
</glyph>
<glyph name="greater" format="2">
  <advance width="600"/>
  <unicode hex="003E"/>
  <outline>
    <contour>
      <point x="247" y="636" type="line"/>
      <point x="163" y="558" type="line"/>
      <point x="370" y="353" type="line"/>
      <point x="71" y="144" type="line"/>
      <point x="126" y="60" type="line"/>
      <point x="530" y="348" type="line"/>
    </contour>
  </outline>
</glyph>
<glyph name="question" format="2">
  <advance width="515"/>
  <unicode hex="003F"/>
  <outline>
    <contour>
      <point x="165" y="213" type="curve"/>
      <point x="278" y="213" type="line"/>
      <point x="287" y="267"/>
      <point x="307" y="294"/>
      <point x="354" y="320" type="curve" smooth="yes"/>
      <point x="391" y="342" type="line" smooth="yes"/>
      <point x="501" y="405"/>
      <point x="547" y="464"/>
      <point x="547" y="544" type="curve" smooth="yes"/>
      <point x="547" y="642"/>
      <point x="458" y="710"/>
      <point x="331" y="710" type="curve" smooth="yes"/>
      <point x="229" y="710"/>
      <point x="131" y="657"/>
      <point x="72" y="569" type="curve"/>
      <point x="169" y="518" type="line"/>
      <point x="203" y="565"/>
      <point x="257" y="595"/>
      <point x="314" y="595" type="curve" smooth="yes"/>
      <point x="373" y="595"/>
      <point x="412" y="567"/>
      <point x="412" y="524" type="curve" smooth="yes"/>
      <point x="412" y="493"/>
      <point x="386" y="460"/>
      <point x="341" y="433" type="curve" smooth="yes"/>
      <point x="279" y="396" type="line" smooth="yes"/>
      <point x="208" y="354"/>
      <point x="180" y="308"/>
    </contour>
    <contour>
      <point x="184" y="-10" type="curve" smooth="yes"/>
      <point x="231" y="-10"/>
      <point x="273" y="33"/>
      <point x="273" y="81" type="curve" smooth="yes"/>
      <point x="273" y="121"/>
      <point x="243" y="152"/>
      <point x="203" y="152" type="curve" smooth="yes"/>
      <point x="154" y="152"/>
      <point x="113" y="110"/>
      <point x="113" y="61" type="curve" smooth="yes"/>
      <point x="113" y="21"/>
      <point x="143" y="-10"/>
    </contour>
  </outline>
</glyph>
<glyph name="at" format="2">
  <advance width="775"/>
  <unicode hex="0040"/>
  <outline>
    <contour>
      <point x="400" y="-144" type="curve" smooth="yes"/>
      <point x="467" y="-144"/>
      <point x="528" y="-130"/>
      <point x="591" y="-101" type="curve"/>
      <point x="564" y="-42" type="line"/>
      <point x="516" y="-66"/>
      <point x="461" y="-78"/>
      <point x="400" y="-78" type="curve" smooth="yes"/>
      <point x="223" y="-78"/>
      <point x="100" y="41"/>
      <point x="100" y="213" type="curve" smooth="yes"/>
      <point x="100" y="388"/>
      <point x="229" y="521"/>
      <point x="398" y="521" type="curve"/>
      <point x="552" y="521"/>
      <point x="668" y="414"/>
      <point x="668" y="271" type="curve" smooth="yes"/>
      <point x="668" y="180"/>
      <point x="625" y="116"/>
      <point x="563" y="116" type="curve" smooth="yes"/>
      <point x="529" y="116"/>
      <point x="513" y="134"/>
      <point x="521" y="168" type="curve" smooth="yes"/>
      <point x="564" y="374" type="line"/>
      <point x="469" y="374" type="line"/>
      <point x="465" y="354" type="line"/>
      <point x="441" y="375"/>
      <point x="408" y="387"/>
      <point x="373" y="387" type="curve" smooth="yes"/>
      <point x="273" y="387"/>
      <point x="195" y="306"/>
      <point x="195" y="203" type="curve" smooth="yes"/>
      <point x="195" y="116"/>
      <point x="258" y="48"/>
      <point x="340" y="48" type="curve" smooth="yes"/>
      <point x="377" y="48"/>
      <point x="415" y="62"/>
      <point x="445" y="88" type="curve"/>
      <point x="464" y="62"/>
      <point x="500" y="47"/>
      <point x="549" y="47" type="curve" smooth="yes"/>
      <point x="660" y="47"/>
      <point x="739" y="143"/>
      <point x="739" y="277" type="curve" smooth="yes"/>
      <point x="739" y="449"/>
      <point x="591" y="582"/>
      <point x="401" y="582" type="curve"/>
      <point x="188" y="582"/>
      <point x="30" y="422"/>
      <point x="30" y="207" type="curve" smooth="yes"/>
      <point x="30" y="4"/>
      <point x="186" y="-144"/>
    </contour>
    <contour>
      <point x="363" y="125" type="curve" smooth="yes"/>
      <point x="318" y="125"/>
      <point x="286" y="161"/>
      <point x="286" y="211" type="curve" smooth="yes"/>
      <point x="286" y="263"/>
      <point x="327" y="306"/>
      <point x="376" y="306" type="curve" smooth="yes"/>
      <point x="408" y="306"/>
      <point x="433" y="294"/>
      <point x="448" y="272" type="curve"/>
      <point x="430" y="182" type="line" smooth="yes"/>
      <point x="428" y="170"/>
      <point x="427" y="160"/>
      <point x="428" y="150" type="curve"/>
      <point x="408" y="133"/>
      <point x="386" y="125"/>
    </contour>
  </outline>
</glyph>
<glyph name="A" format="2">
  <advance width="718"/>
  <unicode hex="0041"/>
  <anchor x="444" y="700" name="top"/>
  <anchor x="666" y="0" name="bottom"/>
  <outline>
    <contour>
      <point x="-59" y="0" type="line"/>
      <point x="97" y="0" type="line"/>
      <point x="205" y="183" type="line"/>
      <point x="488" y="183" type="line"/>
      <point x="520" y="0" type="line"/>
      <point x="666" y="0" type="line"/>
      <point x="533" y="700" type="line"/>
      <point x="369" y="700" type="line"/>
    </contour>
    <contour>
      <point x="272" y="300" type="line"/>
      <point x="424" y="558" type="line"/>
      <point x="469" y="300" type="line"/>
    </contour>
  </outline>
</glyph>
<glyph name="B" format="2">
  <advance width="678"/>
  <unicode hex="0042"/>
  <outline>
    <contour>
      <point x="7" y="0" type="line"/>
      <point x="366" y="0" type="line" smooth="yes"/>
      <point x="519" y="0"/>
      <point x="633" y="95"/>
      <point x="633" y="223" type="curve" smooth="yes"/>
      <point x="633" y="280"/>
      <point x="602" y="326"/>
      <point x="551" y="355" type="curve"/>
      <point x="621" y="391"/>
      <point x="666" y="456"/>
      <point x="666" y="533" type="curve" smooth="yes"/>
      <point x="666" y="635"/>
      <point x="584" y="700"/>
      <point x="457" y="700" type="curve" smooth="yes"/>
      <point x="156" y="700" type="line"/>
    </contour>
    <contour>
      <point x="237" y="414" type="line"/>
      <point x="272" y="580" type="line"/>
      <point x="434" y="580" type="line" smooth="yes"/>
      <point x="488" y="580"/>
      <point x="521" y="553"/>
      <point x="521" y="509" type="curve" smooth="yes"/>
      <point x="521" y="454"/>
      <point x="474" y="414"/>
      <point x="410" y="414" type="curve" smooth="yes"/>
    </contour>
    <contour>
      <point x="174" y="120" type="line"/>
      <point x="213" y="301" type="line"/>
      <point x="394" y="301" type="line" smooth="yes"/>
      <point x="454" y="301"/>
      <point x="490" y="272"/>
      <point x="490" y="224" type="curve" smooth="yes"/>
      <point x="490" y="163"/>
      <point x="440" y="120"/>
      <point x="369" y="120" type="curve" smooth="yes"/>
    </contour>
  </outline>
</glyph>
<glyph name="C" format="2">
  <advance width="708"/>
  <unicode hex="0043"/>
  <anchor x="452" y="700" name="top"/>
  <anchor x="378" y="0" name="bottom"/>
  <outline>
    <contour>
      <point x="392" y="-12" type="curve" smooth="yes"/>
      <point x="494" y="-12"/>
      <point x="602" y="33"/>
      <point x="676" y="107" type="curve"/>
      <point x="598" y="205" type="line"/>
      <point x="544" y="151"/>
      <point x="478" y="121"/>
      <point x="408" y="121" type="curve" smooth="yes"/>
      <point x="288" y="121"/>
      <point x="200" y="210"/>
      <point x="200" y="328" type="curve" smooth="yes"/>
      <point x="200" y="465"/>
      <point x="304" y="575"/>
      <point x="434" y="575" type="curve" smooth="yes"/>
      <point x="514" y="575"/>
      <point x="579" y="539"/>
      <point x="619" y="473" type="curve"/>
      <point x="729" y="567" type="line"/>
      <point x="669" y="658"/>
      <point x="568" y="708"/>
      <point x="442" y="708" type="curve" smooth="yes"/>
      <point x="228" y="708"/>
      <point x="54" y="534"/>
      <point x="54" y="320" type="curve" smooth="yes"/>
      <point x="54" y="133"/>
      <point x="201" y="-12"/>
    </contour>
  </outline>
</glyph>
<glyph name="D" format="2">
  <advance width="723"/>
  <unicode hex="0044"/>
  <anchor x="454" y="700" name="top"/>
  <outline>
    <contour>
      <point x="7" y="0" type="line"/>
      <point x="305" y="0" type="line" smooth="yes"/>
      <point x="525" y="0"/>
      <point x="709" y="176"/>
      <point x="709" y="388" type="curve" smooth="yes"/>
      <point x="709" y="569"/>
      <point x="573" y="700"/>
      <point x="385" y="700" type="curve" smooth="yes"/>
      <point x="156" y="700" type="line"/>
    </contour>
    <contour>
      <point x="176" y="129" type="line"/>
      <point x="270" y="571" type="line"/>
      <point x="369" y="571" type="line" smooth="yes"/>
      <point x="481" y="571"/>
      <point x="561" y="491"/>
      <point x="561" y="378" type="curve" smooth="yes"/>
      <point x="561" y="239"/>
      <point x="452" y="129"/>
      <point x="317" y="129" type="curve" smooth="yes"/>
    </contour>
  </outline>
</glyph>
<glyph name="E" format="2">
  <advance width="634"/>
  <unicode hex="0045"/>
  <anchor x="415" y="700" name="top"/>
  <anchor x="538" y="0" name="bottom"/>
  <outline>
    <contour>
      <point x="7" y="0" type="line"/>
      <point x="538" y="0" type="line"/>
      <point x="565" y="126" type="line"/>
      <point x="175" y="126" type="line"/>
      <point x="211" y="292" type="line"/>
      <point x="464" y="292" type="line"/>
      <point x="490" y="414" type="line"/>
      <point x="236" y="414" type="line"/>
      <point x="271" y="574" type="line"/>
      <point x="656" y="574" type="line"/>
      <point x="683" y="700" type="line"/>
      <point x="156" y="700" type="line"/>
    </contour>
  </outline>
</glyph>
<glyph name="F" format="2">
  <advance width="628"/>
  <unicode hex="0046"/>
  <outline>
    <contour>
      <point x="7" y="0" type="line"/>
      <point x="149" y="0" type="line"/>
      <point x="210" y="287" type="line"/>
      <point x="467" y="287" type="line"/>
      <point x="493" y="409" type="line"/>
      <point x="235" y="409" type="line"/>
      <point x="271" y="574" type="line"/>
      <point x="658" y="574" type="line"/>
      <point x="686" y="700" type="line"/>
      <point x="156" y="700" type="line"/>
    </contour>
  </outline>
</glyph>
<glyph name="G" format="2">
  <advance width="778"/>
  <unicode hex="0047"/>
  <anchor x="454" y="701" name="top"/>
  <anchor x="399" y="0" name="bottom"/>
  <outline>
    <contour>
      <point x="383" y="-13" type="curve" smooth="yes"/>
      <point x="567" y="-13"/>
      <point x="722" y="126"/>
      <point x="757" y="324" type="curve" smooth="yes"/>
      <point x="770" y="393" type="line"/>
      <point x="417" y="393" type="line"/>
      <point x="391" y="268" type="line"/>
      <point x="595" y="268" type="line"/>
      <point x="570" y="179"/>
      <point x="491" y="119"/>
      <point x="397" y="119" type="curve" smooth="yes"/>
      <point x="281" y="119"/>
      <point x="197" y="203"/>
      <point x="197" y="320" type="curve" smooth="yes"/>
      <point x="197" y="461"/>
      <point x="303" y="575"/>
      <point x="435" y="575" type="curve" smooth="yes"/>
      <point x="513" y="575"/>
      <point x="582" y="538"/>
      <point x="620" y="472" type="curve"/>
      <point x="732" y="565" type="line"/>
      <point x="673" y="655"/>
      <point x="567" y="709"/>
      <point x="447" y="709" type="curve" smooth="yes"/>
      <point x="232" y="709"/>
      <point x="51" y="527"/>
      <point x="51" y="311" type="curve" smooth="yes"/>
      <point x="51" y="126"/>
      <point x="193" y="-13"/>
    </contour>
  </outline>
</glyph>
<glyph name="H" format="2">
  <advance width="724"/>
  <unicode hex="0048"/>
  <anchor x="456" y="700" name="top"/>
  <outline>
    <contour>
      <point x="7" y="0" type="line"/>
      <point x="149" y="0" type="line"/>
      <point x="209" y="287" type="line"/>
      <point x="525" y="287" type="line"/>
      <point x="465" y="0" type="line"/>
      <point x="606" y="0" type="line"/>
      <point x="755" y="700" type="line"/>
      <point x="614" y="700" type="line"/>
      <point x="554" y="418" type="line"/>
      <point x="238" y="418" type="line"/>
      <point x="298" y="700" type="line"/>
      <point x="156" y="700" type="line"/>
    </contour>
  </outline>
</glyph>
<glyph name="I" format="2">
  <advance width="266"/>
  <unicode hex="0049"/>
  <anchor x="227" y="700" name="top"/>
  <anchor x="149" y="0" name="bottom"/>
  <outline>
    <contour>
      <point x="7" y="0" type="line"/>
      <point x="149" y="0" type="line"/>
      <point x="298" y="700" type="line"/>
      <point x="156" y="700" type="line"/>
    </contour>
  </outline>
</glyph>
<glyph name="J" format="2">
  <advance width="629"/>
  <unicode hex="004A"/>
  <anchor x="602" y="700" name="top"/>
  <outline>
    <contour>
      <point x="275" y="-10" type="curve" smooth="yes"/>
      <point x="426" y="-10"/>
      <point x="540" y="89"/>
      <point x="575" y="249" type="curve" smooth="yes"/>
      <point x="672" y="700" type="line"/>
      <point x="528" y="700" type="line"/>
      <point x="438" y="273" type="line" smooth="yes"/>
      <point x="418" y="180"/>
      <point x="354" y="122"/>
      <point x="272" y="122" type="curve" smooth="yes"/>
      <point x="200" y="122"/>
      <point x="158" y="164"/>
      <point x="146" y="250" type="curve"/>
      <point x="14" y="204" type="line"/>
      <point x="34" y="67"/>
      <point x="129" y="-10"/>
    </contour>
  </outline>
</glyph>
<glyph name="K" format="2">
  <advance width="683"/>
  <unicode hex="004B"/>
  <anchor x="285" y="0" name="bottom"/>
  <outline>
    <contour>
      <point x="7" y="0" type="line"/>
      <point x="149" y="0" type="line"/>
      <point x="219" y="332" type="line"/>
      <point x="453" y="0" type="line"/>
      <point x="632" y="0" type="line"/>
      <point x="366" y="362" type="line"/>
      <point x="776" y="700" type="line"/>
      <point x="591" y="700" type="line"/>
      <point x="233" y="398" type="line"/>
      <point x="298" y="700" type="line"/>
      <point x="156" y="700" type="line"/>
    </contour>
  </outline>
</glyph>
<glyph name="L" format="2">
  <advance width="616"/>
  <unicode hex="004C"/>
  <anchor x="226" y="700" name="top"/>
  <anchor x="287" y="0" name="bottom"/>
  <outline>
    <contour>
      <point x="7" y="0" type="line"/>
      <point x="524" y="0" type="line"/>
      <point x="551" y="128" type="line"/>
      <point x="176" y="128" type="line"/>
      <point x="298" y="700" type="line"/>
      <point x="156" y="700" type="line"/>
    </contour>
  </outline>
</glyph>
<glyph name="M" format="2">
  <advance width="864"/>
  <unicode hex="004D"/>
  <outline>
    <contour>
      <point x="7" y="0" type="line"/>
      <point x="141" y="0" type="line"/>
      <point x="250" y="517" type="line"/>
      <point x="390" y="50" type="line"/>
      <point x="725" y="514" type="line"/>
      <point x="616" y="0" type="line"/>
      <point x="747" y="0" type="line"/>
      <point x="896" y="700" type="line"/>
      <point x="710" y="700" type="line"/>
      <point x="441" y="323" type="line"/>
      <point x="334" y="700" type="line"/>
      <point x="156" y="700" type="line"/>
    </contour>
  </outline>
</glyph>
<glyph name="N" format="2">
  <advance width="734"/>
  <unicode hex="004E"/>
  <anchor x="460" y="700" name="top"/>
  <anchor x="311" y="0" name="bottom"/>
  <outline>
    <contour>
      <point x="7" y="0" type="line"/>
      <point x="141" y="0" type="line"/>
      <point x="243" y="481" type="line"/>
      <point x="492" y="0" type="line"/>
      <point x="616" y="0" type="line"/>
      <point x="765" y="700" type="line"/>
      <point x="631" y="700" type="line"/>
      <point x="533" y="235" type="line"/>
      <point x="290" y="700" type="line"/>
      <point x="156" y="700" type="line"/>
    </contour>
  </outline>
</glyph>
<glyph name="O" format="2">
  <advance width="797"/>
  <unicode hex="004F"/>
  <anchor x="449" y="700" name="top"/>
  <outline>
    <contour>
      <point x="392" y="-11" type="curve" smooth="yes"/>
      <point x="605" y="-11"/>
      <point x="781" y="166"/>
      <point x="781" y="380" type="curve" smooth="yes"/>
      <point x="781" y="569"/>
      <point x="636" y="711"/>
      <point x="443" y="711" type="curve" smooth="yes"/>
      <point x="230" y="711"/>
      <point x="54" y="534"/>
      <point x="54" y="320" type="curve" smooth="yes"/>
      <point x="54" y="131"/>
      <point x="199" y="-11"/>
    </contour>
    <contour>
      <point x="401" y="122" type="curve" smooth="yes"/>
      <point x="285" y="122"/>
      <point x="200" y="211"/>
      <point x="200" y="329" type="curve" smooth="yes"/>
      <point x="200" y="466"/>
      <point x="304" y="578"/>
      <point x="434" y="578" type="curve" smooth="yes"/>
      <point x="551" y="578"/>
      <point x="636" y="489"/>
      <point x="636" y="371" type="curve" smooth="yes"/>
      <point x="636" y="234"/>
      <point x="531" y="122"/>
    </contour>
  </outline>
</glyph>
<glyph name="P" format="2">
  <advance width="668"/>
  <unicode hex="0050"/>
  <outline>
    <contour>
      <point x="7" y="0" type="line"/>
      <point x="149" y="0" type="line"/>
      <point x="204" y="264" type="line"/>
      <point x="423" y="264" type="line" smooth="yes"/>
      <point x="569" y="264"/>
      <point x="683" y="368"/>
      <point x="683" y="502" type="curve" smooth="yes"/>
      <point x="683" y="620"/>
      <point x="597" y="700"/>
      <point x="468" y="700" type="curve" smooth="yes"/>
      <point x="156" y="700" type="line"/>
    </contour>
    <contour>
      <point x="231" y="384" type="line"/>
      <point x="271" y="575" type="line"/>
      <point x="443" y="575" type="line" smooth="yes"/>
      <point x="502" y="575"/>
      <point x="539" y="542"/>
      <point x="539" y="490" type="curve" smooth="yes"/>
      <point x="539" y="429"/>
      <point x="489" y="384"/>
      <point x="420" y="384" type="curve" smooth="yes"/>
    </contour>
  </outline>
</glyph>
<glyph name="Q" format="2">
  <advance width="797"/>
  <unicode hex="0051"/>
  <outline>
    <contour>
      <point x="392" y="-11" type="curve" smooth="yes"/>
      <point x="442" y="-11"/>
      <point x="489" y="-1"/>
      <point x="531" y="18" type="curve"/>
      <point x="560" y="-32" type="line"/>
      <point x="692" y="-15" type="line"/>
      <point x="638" y="78" type="line"/>
      <point x="725" y="150"/>
      <point x="781" y="259"/>
      <point x="781" y="380" type="curve" smooth="yes"/>
      <point x="781" y="569"/>
      <point x="636" y="711"/>
      <point x="443" y="711" type="curve" smooth="yes"/>
      <point x="230" y="711"/>
      <point x="54" y="534"/>
      <point x="54" y="320" type="curve" smooth="yes"/>
      <point x="54" y="131"/>
      <point x="199" y="-11"/>
    </contour>
    <contour>
      <point x="401" y="122" type="curve" smooth="yes"/>
      <point x="285" y="122"/>
      <point x="200" y="211"/>
      <point x="200" y="329" type="curve" smooth="yes"/>
      <point x="200" y="466"/>
      <point x="304" y="578"/>
      <point x="434" y="578" type="curve" smooth="yes"/>
      <point x="551" y="578"/>
      <point x="636" y="489"/>
      <point x="636" y="371" type="curve" smooth="yes"/>
      <point x="636" y="303"/>
      <point x="610" y="243"/>
      <point x="569" y="198" type="curve"/>
      <point x="534" y="259" type="line"/>
      <point x="403" y="242" type="line"/>
      <point x="465" y="136" type="line"/>
      <point x="445" y="127"/>
      <point x="424" y="122"/>
    </contour>
  </outline>
</glyph>
<glyph name="R" format="2">
  <advance width="666"/>
  <unicode hex="0052"/>
  <anchor x="419" y="700" name="top"/>
  <anchor x="286" y="0" name="bottom"/>
  <outline>
    <contour>
      <point x="7" y="0" type="line"/>
      <point x="149" y="0" type="line"/>
      <point x="205" y="268" type="line"/>
      <point x="363" y="268" type="line"/>
      <point x="455" y="0" type="line"/>
      <point x="605" y="0" type="line"/>
      <point x="501" y="279" type="line"/>
      <point x="608" y="307"/>
      <point x="683" y="397"/>
      <point x="683" y="505" type="curve" smooth="yes"/>
      <point x="683" y="621"/>
      <point x="596" y="700"/>
      <point x="468" y="700" type="curve" smooth="yes"/>
      <point x="156" y="700" type="line"/>
    </contour>
    <contour>
      <point x="231" y="387" type="line"/>
      <point x="271" y="575" type="line"/>
      <point x="443" y="575" type="line" smooth="yes"/>
      <point x="501" y="575"/>
      <point x="538" y="543"/>
      <point x="538" y="492" type="curve" smooth="yes"/>
      <point x="538" y="431"/>
      <point x="488" y="387"/>
      <point x="419" y="387" type="curve" smooth="yes"/>
    </contour>
  </outline>
</glyph>
<glyph name="S" format="2">
  <advance width="619"/>
  <unicode hex="0053"/>
  <note>
Version created Fri Aug  3 17:49:29 2018
</note>
  <anchor x="347" y="700" name="top"/>
  <anchor x="296" y="0" name="bottom"/>
  <outline>
    <contour>
      <point x="307" y="-10" type="curve" smooth="yes"/>
      <point x="481" y="-10"/>
      <point x="594" y="82"/>
      <point x="594" y="223" type="curve" smooth="yes"/>
      <point x="594" y="314"/>
      <point x="534" y="375"/>
      <point x="415" y="404" type="curve" smooth="yes"/>
      <point x="290" y="434" type="line" smooth="yes"/>
      <point x="227" y="451"/>
      <point x="201" y="473"/>
      <point x="201" y="509" type="curve" smooth="yes"/>
      <point x="201" y="558"/>
      <point x="247" y="589"/>
      <point x="320" y="589" type="curve" smooth="yes"/>
      <point x="401" y="589"/>
      <point x="474" y="556"/>
      <point x="543" y="489" type="curve"/>
      <point x="632" y="591" type="line"/>
      <point x="555" y="666"/>
      <point x="445" y="710"/>
      <point x="333" y="710" type="curve" smooth="yes"/>
      <point x="168" y="710"/>
      <point x="65" y="626"/>
      <point x="65" y="493" type="curve" smooth="yes"/>
      <point x="65" y="405"/>
      <point x="118" y="344"/>
      <point x="220" y="317" type="curve" smooth="yes"/>
      <point x="351" y="283" type="line" smooth="yes"/>
      <point x="423" y="264"/>
      <point x="452" y="242"/>
      <point x="452" y="202" type="curve" smooth="yes"/>
      <point x="452" y="147"/>
      <point x="400" y="111"/>
      <point x="319" y="111" type="curve" smooth="yes"/>
      <point x="230" y="111"/>
      <point x="155" y="149"/>
      <point x="83" y="230" type="curve"/>
      <point x="-12" y="132" type="line"/>
      <point x="68" y="40"/>
      <point x="180" y="-10"/>
    </contour>
  </outline>
</glyph>
<glyph name="T" format="2">
  <advance width="639"/>
  <unicode hex="0054"/>
  <anchor x="413" y="700" name="top"/>
  <anchor x="264" y="0" name="bottom"/>
  <outline>
    <contour>
      <point x="193" y="0" type="line"/>
      <point x="335" y="0" type="line"/>
      <point x="457" y="572" type="line"/>
      <point x="687" y="572" type="line"/>
      <point x="715" y="700" type="line"/>
      <point x="111" y="700" type="line"/>
      <point x="83" y="572" type="line"/>
      <point x="315" y="572" type="line"/>
    </contour>
  </outline>
</glyph>
<glyph name="U" format="2">
  <advance width="710"/>
  <unicode hex="0055"/>
  <anchor x="442" y="700" name="top"/>
  <anchor x="414" y="0" name="bottom"/>
  <outline>
    <contour>
      <point x="329" y="-10" type="curve" smooth="yes"/>
      <point x="500" y="-10"/>
      <point x="623" y="97"/>
      <point x="662" y="278" type="curve" smooth="yes"/>
      <point x="752" y="700" type="line"/>
      <point x="610" y="700" type="line"/>
      <point x="523" y="291" type="line" smooth="yes"/>
      <point x="503" y="189"/>
      <point x="430" y="124"/>
      <point x="339" y="124" type="curve" smooth="yes"/>
      <point x="235" y="124"/>
      <point x="181" y="200"/>
      <point x="205" y="314" type="curve" smooth="yes"/>
      <point x="287" y="700" type="line"/>
      <point x="145" y="700" type="line"/>
      <point x="66" y="328" type="line" smooth="yes"/>
      <point x="23" y="128"/>
      <point x="130" y="-10"/>
    </contour>
  </outline>
</glyph>
<glyph name="V" format="2">
  <advance width="718"/>
  <unicode hex="0056"/>
  <outline>
    <contour>
      <point x="223" y="0" type="line"/>
      <point x="388" y="0" type="line"/>
      <point x="815" y="700" type="line"/>
      <point x="662" y="700" type="line"/>
      <point x="333" y="148" type="line"/>
      <point x="238" y="700" type="line"/>
      <point x="90" y="700" type="line"/>
    </contour>
  </outline>
</glyph>
<glyph name="W" format="2">
  <advance width="926"/>
  <unicode hex="0057"/>
  <anchor x="554" y="700" name="top"/>
  <outline>
    <contour>
      <point x="123" y="0" type="line"/>
      <point x="272" y="0" type="line"/>
      <point x="511" y="488" type="line"/>
      <point x="544" y="0" type="line"/>
      <point x="694" y="0" type="line"/>
      <point x="994" y="700" type="line"/>
      <point x="848" y="700" type="line"/>
      <point x="655" y="228" type="line"/>
      <point x="621" y="700" type="line"/>
      <point x="487" y="700" type="line"/>
      <point x="253" y="227" type="line"/>
      <point x="260" y="700" type="line"/>
      <point x="120" y="700" type="line"/>
    </contour>
  </outline>
</glyph>
<glyph name="X" format="2">
  <advance width="686"/>
  <unicode hex="0058"/>
  <outline>
    <contour>
      <point x="-58" y="0" type="line"/>
      <point x="113" y="0" type="line"/>
      <point x="346" y="254" type="line"/>
      <point x="473" y="0" type="line"/>
      <point x="633" y="0" type="line"/>
      <point x="449" y="358" type="line"/>
      <point x="771" y="700" type="line"/>
      <point x="599" y="700" type="line"/>
      <point x="388" y="470" type="line"/>
      <point x="273" y="700" type="line"/>
      <point x="114" y="700" type="line"/>
      <point x="286" y="365" type="line"/>
    </contour>
  </outline>
</glyph>
<glyph name="Y" format="2">
  <advance width="691"/>
  <unicode hex="0059"/>
  <anchor x="432" y="700" name="top"/>
  <outline>
    <contour>
      <point x="219" y="0" type="line"/>
      <point x="361" y="0" type="line"/>
      <point x="418" y="266" type="line"/>
      <point x="791" y="700" type="line"/>
      <point x="624" y="700" type="line"/>
      <point x="368" y="396" type="line"/>
      <point x="238" y="700" type="line"/>
      <point x="87" y="700" type="line"/>
      <point x="275" y="269" type="line"/>
    </contour>
  </outline>
</glyph>
<glyph name="Z" format="2">
  <advance width="604"/>
  <unicode hex="005A"/>
  <anchor x="377" y="700" name="top"/>
  <outline>
    <contour>
      <point x="-34" y="0" type="line"/>
      <point x="533" y="0" type="line"/>
      <point x="560" y="126" type="line"/>
      <point x="186" y="126" type="line"/>
      <point x="656" y="601" type="line"/>
      <point x="678" y="700" type="line"/>
      <point x="118" y="700" type="line"/>
      <point x="91" y="574" type="line"/>
      <point x="456" y="574" type="line"/>
      <point x="-13" y="99" type="line"/>
    </contour>
  </outline>
</glyph>
<glyph name="bracketleft" format="2">
  <advance width="386"/>
  <unicode hex="005B"/>
  <outline>
    <contour>
      <point x="-46" y="-213" type="line"/>
      <point x="248" y="-213" type="line"/>
      <point x="271" y="-105" type="line"/>
      <point x="105" y="-105" type="line"/>
      <point x="253" y="593" type="line"/>
      <point x="419" y="593" type="line"/>
      <point x="442" y="700" type="line"/>
      <point x="149" y="700" type="line"/>
    </contour>
  </outline>
</glyph>
<glyph name="backslash" format="2">
  <advance width="487"/>
  <unicode hex="005C"/>
  <outline>
    <contour>
      <point x="462" y="-209" type="line"/>
      <point x="240" y="700" type="line"/>
      <point x="108" y="700" type="line"/>
      <point x="328" y="-209" type="line"/>
    </contour>
  </outline>
</glyph>
<glyph name="bracketright" format="2">
  <advance width="386"/>
  <unicode hex="005D"/>
  <outline>
    <contour>
      <point x="425" y="700" type="line"/>
      <point x="131" y="700" type="line"/>
      <point x="108" y="593" type="line"/>
      <point x="274" y="593" type="line"/>
      <point x="126" y="-105" type="line"/>
      <point x="-40" y="-105" type="line"/>
      <point x="-63" y="-213" type="line"/>
      <point x="230" y="-213" type="line"/>
    </contour>
  </outline>
</glyph>
<glyph name="asciicircum" format="2">
  <advance width="600"/>
  <unicode hex="005E"/>
  <outline>
    <contour>
      <point x="92" y="350" type="line"/>
      <point x="202" y="350" type="line"/>
      <point x="377" y="598" type="line"/>
      <point x="447" y="350" type="line"/>
      <point x="552" y="350" type="line"/>
      <point x="453" y="700" type="line"/>
      <point x="341" y="700" type="line"/>
    </contour>
  </outline>
</glyph>
<glyph name="underscore" format="2">
  <advance width="484"/>
  <unicode hex="005F"/>
  <outline>
    <contour>
      <point x="-94" y="-176" type="line"/>
      <point x="392" y="-176" type="line"/>
      <point x="413" y="-80" type="line"/>
      <point x="-73" y="-80" type="line"/>
    </contour>
  </outline>
</glyph>
<glyph name="grave" format="2">
  <advance width="600"/>
  <unicode hex="0060"/>
  <outline>
    <contour>
      <point x="330" y="608" type="line"/>
      <point x="439" y="608" type="line"/>
      <point x="352" y="738" type="line"/>
      <point x="199" y="738" type="line"/>
    </contour>
  </outline>
</glyph>
<glyph name="a" format="2">
  <advance width="545"/>
  <unicode hex="0061"/>
  <note>
Version created Mon Aug  6 16:22:34 2018
</note>
  <anchor x="297" y="521" name="top"/>
  <anchor x="442" y="0" name="bottom"/>
  <outline>
    <contour>
      <point x="186" y="-6" type="curve" smooth="yes"/>
      <point x="232" y="-6"/>
      <point x="274" y="6"/>
      <point x="316" y="32" type="curve"/>
      <point x="310" y="0" type="line"/>
      <point x="442" y="0" type="line"/>
      <point x="508" y="313" type="line" smooth="yes"/>
      <point x="536" y="448"/>
      <point x="458" y="530"/>
      <point x="299" y="530" type="curve" smooth="yes"/>
      <point x="236" y="530"/>
      <point x="167" y="516"/>
      <point x="90" y="486" type="curve"/>
      <point x="123" y="383" type="line"/>
      <point x="187" y="407"/>
      <point x="232" y="417"/>
      <point x="270" y="417" type="curve" smooth="yes"/>
      <point x="355" y="417"/>
      <point x="391" y="382"/>
      <point x="376" y="311" type="curve" smooth="yes"/>
      <point x="370" y="284" type="line"/>
      <point x="327" y="301"/>
      <point x="277" y="311"/>
      <point x="228" y="311" type="curve" smooth="yes"/>
      <point x="92" y="311"/>
      <point x="9" y="245"/>
      <point x="9" y="139" type="curve" smooth="yes"/>
      <point x="9" y="51"/>
      <point x="78" y="-6"/>
    </contour>
    <contour>
      <point x="232" y="91" type="curve" smooth="yes"/>
      <point x="172" y="91"/>
      <point x="136" y="113"/>
      <point x="136" y="151" type="curve" smooth="yes"/>
      <point x="136" y="194"/>
      <point x="175" y="221"/>
      <point x="238" y="221" type="curve" smooth="yes"/>
      <point x="279" y="221"/>
      <point x="318" y="213"/>
      <point x="352" y="196" type="curve"/>
      <point x="335" y="120" type="line"/>
      <point x="304" y="100"/>
      <point x="269" y="91"/>
    </contour>
  </outline>
</glyph>
<glyph name="b" format="2">
  <advance width="619"/>
  <unicode hex="0062"/>
  <outline>
    <contour>
      <point x="299" y="-8" type="curve" smooth="yes"/>
      <point x="460" y="-8"/>
      <point x="589" y="124"/>
      <point x="589" y="287" type="curve" smooth="yes"/>
      <point x="589" y="424"/>
      <point x="489" y="528"/>
      <point x="357" y="528" type="curve" smooth="yes"/>
      <point x="315" y="528"/>
      <point x="274" y="517"/>
      <point x="238" y="496" type="curve"/>
      <point x="287" y="730" type="line"/>
      <point x="147" y="700" type="line"/>
      <point x="-2" y="0" type="line"/>
      <point x="130" y="0" type="line"/>
      <point x="142" y="52" type="line"/>
      <point x="183" y="13"/>
      <point x="237" y="-8"/>
    </contour>
    <contour>
      <point x="294" y="110" type="curve" smooth="yes"/>
      <point x="241" y="110"/>
      <point x="194" y="133"/>
      <point x="168" y="169" type="curve"/>
      <point x="211" y="371" type="line"/>
      <point x="242" y="398"/>
      <point x="280" y="412"/>
      <point x="322" y="412" type="curve" smooth="yes"/>
      <point x="400" y="412"/>
      <point x="458" y="353"/>
      <point x="458" y="275" type="curve" smooth="yes"/>
      <point x="458" y="183"/>
      <point x="386" y="110"/>
    </contour>
  </outline>
</glyph>
<glyph name="c" format="2">
  <advance width="520"/>
  <unicode hex="0063"/>
  <anchor x="322" y="521" name="top"/>
  <anchor x="275" y="0" name="bottom"/>
  <outline>
    <contour>
      <point x="274" y="-10" type="curve" smooth="yes"/>
      <point x="349" y="-10"/>
      <point x="419" y="17"/>
      <point x="477" y="70" type="curve"/>
      <point x="409" y="160" type="line"/>
      <point x="370" y="125"/>
      <point x="332" y="108"/>
      <point x="289" y="108" type="curve" smooth="yes"/>
      <point x="214" y="108"/>
      <point x="161" y="163"/>
      <point x="161" y="241" type="curve" smooth="yes"/>
      <point x="161" y="334"/>
      <point x="230" y="411"/>
      <point x="313" y="411" type="curve" smooth="yes"/>
      <point x="364" y="411"/>
      <point x="405" y="388"/>
      <point x="436" y="341" type="curve"/>
      <point x="529" y="425" type="line"/>
      <point x="483" y="490"/>
      <point x="402" y="530"/>
      <point x="315" y="530" type="curve" smooth="yes"/>
      <point x="157" y="530"/>
      <point x="27" y="398"/>
      <point x="27" y="234" type="curve" smooth="yes"/>
      <point x="27" y="93"/>
      <point x="132" y="-10"/>
    </contour>
  </outline>
</glyph>
<glyph name="e" format="2">
  <advance width="576"/>
  <unicode hex="0065"/>
  <anchor x="314" y="521" name="top"/>
  <anchor x="377" y="0" name="bottom"/>
  <outline>
    <contour>
      <point x="291" y="-10" type="curve" smooth="yes"/>
      <point x="367" y="-10"/>
      <point x="426" y="8"/>
      <point x="490" y="54" type="curve"/>
      <point x="415" y="141" type="line"/>
      <point x="385" y="117"/>
      <point x="346" y="103"/>
      <point x="302" y="103" type="curve" smooth="yes"/>
      <point x="228" y="103"/>
      <point x="174" y="149"/>
      <point x="162" y="215" type="curve"/>
      <point x="540" y="215" type="line"/>
      <point x="544" y="249"/>
      <point x="545" y="263"/>
      <point x="545" y="278" type="curve" smooth="yes"/>
      <point x="545" y="424"/>
      <point x="448" y="529"/>
      <point x="310" y="529" type="curve" smooth="yes"/>
      <point x="156" y="529"/>
      <point x="28" y="397"/>
      <point x="28" y="237" type="curve" smooth="yes"/>
      <point x="28" y="93"/>
      <point x="138" y="-10"/>
    </contour>
    <contour>
      <point x="170" y="312" type="line"/>
      <point x="192" y="373"/>
      <point x="242" y="415"/>
      <point x="303" y="415" type="curve" smooth="yes"/>
      <point x="363" y="415"/>
      <point x="408" y="374"/>
      <point x="419" y="312" type="curve"/>
    </contour>
  </outline>
</glyph>
<glyph name="f" format="2">
  <advance width="422"/>
  <unicode hex="0066"/>
  <outline>
    <contour>
      <point x="76" y="0" type="line"/>
      <point x="210" y="0" type="line"/>
      <point x="297" y="407" type="line"/>
      <point x="435" y="407" type="line"/>
      <point x="459" y="521" type="line"/>
      <point x="321" y="521" type="line"/>
      <point x="332" y="572" type="line" smooth="yes"/>
      <point x="341" y="614"/>
      <point x="367" y="634"/>
      <point x="413" y="634" type="curve" smooth="yes"/>
      <point x="437" y="634"/>
      <point x="459" y="630"/>
      <point x="482" y="622" type="curve"/>
      <point x="505" y="736" type="line"/>
      <point x="482" y="746"/>
      <point x="442" y="752"/>
      <point x="408" y="752" type="curve" smooth="yes"/>
      <point x="297" y="752"/>
      <point x="223" y="693"/>
      <point x="200" y="585" type="curve" smooth="yes"/>
      <point x="186" y="521" type="line"/>
      <point x="73" y="521" type="line"/>
      <point x="49" y="407" type="line"/>
      <point x="162" y="407" type="line"/>
    </contour>
  </outline>
</glyph>
<glyph name="g" format="2">
  <advance width="619"/>
  <unicode hex="0067"/>
  <note>
Version created Sun Jan 13 16:53:00 2019
</note>
  <anchor x="339" y="521" name="top"/>
  <outline>
    <contour>
      <point x="261" y="-213" type="curve" smooth="yes"/>
      <point x="394" y="-213"/>
      <point x="480" y="-146"/>
      <point x="506" y="-22" type="curve" smooth="yes"/>
      <point x="620" y="521" type="line"/>
      <point x="486" y="521" type="line"/>
      <point x="476" y="474" type="line"/>
      <point x="436" y="509"/>
      <point x="382" y="528"/>
      <point x="320" y="528" type="curve" smooth="yes"/>
      <point x="161" y="528"/>
      <point x="32" y="398"/>
      <point x="32" y="236" type="curve" smooth="yes"/>
      <point x="32" y="99"/>
      <point x="131" y="-3"/>
      <point x="262" y="-3" type="curve" smooth="yes"/>
      <point x="304" y="-3"/>
      <point x="345" y="7"/>
      <point x="381" y="28" type="curve"/>
      <point x="374" y="-7" type="line" smooth="yes"/>
      <point x="361" y="-68"/>
      <point x="321" y="-98"/>
      <point x="257" y="-98" type="curve" smooth="yes"/>
      <point x="200" y="-98"/>
      <point x="138" y="-77"/>
      <point x="80" y="-39" type="curve"/>
      <point x="18" y="-141" type="line"/>
      <point x="83" y="-186"/>
      <point x="175" y="-213"/>
    </contour>
    <contour>
      <point x="298" y="111" type="curve" smooth="yes"/>
      <point x="220" y="111"/>
      <point x="164" y="169"/>
      <point x="164" y="248" type="curve" smooth="yes"/>
      <point x="164" y="338"/>
      <point x="235" y="411"/>
      <point x="325" y="411" type="curve" smooth="yes"/>
      <point x="376" y="411"/>
      <point x="423" y="390"/>
      <point x="451" y="357" type="curve"/>
      <point x="407" y="150" type="line"/>
      <point x="376" y="125"/>
      <point x="339" y="111"/>
    </contour>
  </outline>
</glyph>
<glyph name="h" format="2">
  <advance width="582"/>
  <unicode hex="0068"/>
  <anchor x="211" y="700" name="top"/>
  <outline>
    <contour>
      <point x="-2" y="0" type="line"/>
      <point x="132" y="0" type="line"/>
      <point x="210" y="365" type="line"/>
      <point x="240" y="397"/>
      <point x="276" y="413"/>
      <point x="319" y="413" type="curve" smooth="yes"/>
      <point x="386" y="413"/>
      <point x="421" y="367"/>
      <point x="407" y="298" type="curve" smooth="yes"/>
      <point x="343" y="0" type="line"/>
      <point x="478" y="0" type="line"/>
      <point x="544" y="311" type="line" smooth="yes"/>
      <point x="570" y="437"/>
      <point x="500" y="529"/>
      <point x="376" y="529" type="curve" smooth="yes"/>
      <point x="325" y="529"/>
      <point x="277" y="514"/>
      <point x="235" y="483" type="curve"/>
      <point x="287" y="730" type="line"/>
      <point x="147" y="700" type="line"/>
    </contour>
  </outline>
</glyph>
<glyph name="i" format="2">
  <advance width="240"/>
  <unicode hex="0069"/>
  <anchor x="132" y="0" name="bottom"/>
  <outline>
    <contour>
      <point x="-2" y="0" type="line"/>
      <point x="132" y="0" type="line"/>
      <point x="242" y="521" type="line"/>
      <point x="108" y="521" type="line"/>
    </contour>
    <contour>
      <point x="196" y="583" type="curve" smooth="yes"/>
      <point x="242" y="583"/>
      <point x="282" y="624"/>
      <point x="282" y="671" type="curve" smooth="yes"/>
      <point x="282" y="709"/>
      <point x="252" y="739"/>
      <point x="214" y="739" type="curve" smooth="yes"/>
      <point x="168" y="739"/>
      <point x="128" y="699"/>
      <point x="128" y="652" type="curve" smooth="yes"/>
      <point x="128" y="613"/>
      <point x="158" y="583"/>
    </contour>
  </outline>
</glyph>
<glyph name="j" format="2">
  <advance width="240"/>
  <unicode hex="006A"/>
  <outline>
    <contour>
      <point x="196" y="583" type="curve" smooth="yes"/>
      <point x="242" y="583"/>
      <point x="282" y="624"/>
      <point x="282" y="671" type="curve" smooth="yes"/>
      <point x="282" y="709"/>
      <point x="252" y="739"/>
      <point x="214" y="739" type="curve" smooth="yes"/>
      <point x="168" y="739"/>
      <point x="128" y="699"/>
      <point x="128" y="652" type="curve" smooth="yes"/>
      <point x="128" y="613"/>
      <point x="158" y="583"/>
    </contour>
    <contour>
      <point x="-65" y="-215" type="curve" smooth="yes"/>
      <point x="32" y="-215"/>
      <point x="97" y="-163"/>
      <point x="117" y="-68" type="curve" smooth="yes"/>
      <point x="243" y="521" type="line"/>
      <point x="108" y="521" type="line"/>
      <point x="-14" y="-54" type="line" smooth="yes"/>
      <point x="-21" y="-88"/>
      <point x="-40" y="-104"/>
      <point x="-73" y="-104" type="curve" smooth="yes"/>
      <point x="-95" y="-104"/>
      <point x="-109" y="-102"/>
      <point x="-124" y="-98" type="curve"/>
      <point x="-146" y="-202" type="line"/>
      <point x="-128" y="-209"/>
      <point x="-91" y="-215"/>
    </contour>
  </outline>
</glyph>
<glyph name="k" format="2">
  <advance width="557"/>
  <unicode hex="006B"/>
  <anchor x="229" y="0" name="bottom"/>
  <outline>
    <contour>
      <point x="-2" y="0" type="line"/>
      <point x="132" y="0" type="line"/>
      <point x="181" y="231" type="line"/>
      <point x="357" y="0" type="line"/>
      <point x="520" y="0" type="line"/>
      <point x="312" y="261" type="line"/>
      <point x="618" y="521" type="line"/>
      <point x="451" y="521" type="line"/>
      <point x="195" y="297" type="line"/>
      <point x="287" y="730" type="line"/>
      <point x="147" y="700" type="line"/>
    </contour>
  </outline>
</glyph>
<glyph name="l" format="2">
  <advance width="240"/>
  <unicode hex="006C"/>
  <anchor x="213" y="700" name="top"/>
  <anchor x="64" y="0" name="bottom"/>
  <outline>
    <contour>
      <point x="-2" y="0" type="line"/>
      <point x="132" y="0" type="line"/>
      <point x="287" y="730" type="line"/>
      <point x="147" y="700" type="line"/>
    </contour>
  </outline>
</glyph>
<glyph name="m" format="2">
  <advance width="888"/>
  <unicode hex="006D"/>
  <outline>
    <contour>
      <point x="-2" y="0" type="line"/>
      <point x="132" y="0" type="line"/>
      <point x="209" y="365" type="line"/>
      <point x="240" y="397"/>
      <point x="273" y="413"/>
      <point x="309" y="413" type="curve" smooth="yes"/>
      <point x="370" y="413"/>
      <point x="401" y="367"/>
      <point x="387" y="299" type="curve" smooth="yes"/>
      <point x="323" y="0" type="line"/>
      <point x="457" y="0" type="line"/>
      <point x="524" y="313" type="line" smooth="yes"/>
      <point x="527" y="328"/>
      <point x="529" y="344"/>
      <point x="530" y="357" type="curve"/>
      <point x="562" y="395"/>
      <point x="597" y="413"/>
      <point x="636" y="413" type="curve" smooth="yes"/>
      <point x="695" y="413"/>
      <point x="727" y="367"/>
      <point x="713" y="301" type="curve" smooth="yes"/>
      <point x="649" y="0" type="line"/>
      <point x="783" y="0" type="line"/>
      <point x="850" y="313" type="line" smooth="yes"/>
      <point x="876" y="437"/>
      <point x="810" y="529"/>
      <point x="694" y="529" type="curve" smooth="yes"/>
      <point x="626" y="529"/>
      <point x="564" y="500"/>
      <point x="512" y="445" type="curve"/>
      <point x="487" y="497"/>
      <point x="436" y="529"/>
      <point x="368" y="529" type="curve" smooth="yes"/>
      <point x="320" y="529"/>
      <point x="274" y="513"/>
      <point x="234" y="480" type="curve"/>
      <point x="242" y="521" type="line"/>
      <point x="108" y="521" type="line"/>
    </contour>
  </outline>
</glyph>
<glyph name="n" format="2">
  <advance width="582"/>
  <unicode hex="006E"/>
  <anchor x="346" y="521" name="top"/>
  <anchor x="237" y="0" name="bottom"/>
  <outline>
    <contour>
      <point x="-2" y="0" type="line"/>
      <point x="132" y="0" type="line"/>
      <point x="209" y="365" type="line"/>
      <point x="239" y="397"/>
      <point x="276" y="413"/>
      <point x="319" y="413" type="curve" smooth="yes"/>
      <point x="386" y="413"/>
      <point x="421" y="367"/>
      <point x="407" y="298" type="curve" smooth="yes"/>
      <point x="343" y="0" type="line"/>
      <point x="478" y="0" type="line"/>
      <point x="544" y="311" type="line" smooth="yes"/>
      <point x="570" y="437"/>
      <point x="500" y="529"/>
      <point x="376" y="529" type="curve" smooth="yes"/>
      <point x="324" y="529"/>
      <point x="277" y="514"/>
      <point x="234" y="483" type="curve"/>
      <point x="242" y="521" type="line"/>
      <point x="108" y="521" type="line"/>
    </contour>
  </outline>
</glyph>
<glyph name="o" format="2">
  <advance width="607"/>
  <unicode hex="006F"/>
  <anchor x="329" y="521" name="top"/>
  <outline>
    <contour>
      <point x="286" y="-10" type="curve" smooth="yes"/>
      <point x="444" y="-10"/>
      <point x="577" y="123"/>
      <point x="577" y="281" type="curve" smooth="yes"/>
      <point x="577" y="423"/>
      <point x="467" y="531"/>
      <point x="321" y="531" type="curve" smooth="yes"/>
      <point x="162" y="531"/>
      <point x="30" y="399"/>
      <point x="30" y="240" type="curve" smooth="yes"/>
      <point x="30" y="98"/>
      <point x="139" y="-10"/>
    </contour>
    <contour>
      <point x="292" y="109" type="curve" smooth="yes"/>
      <point x="217" y="109"/>
      <point x="162" y="167"/>
      <point x="162" y="247" type="curve" smooth="yes"/>
      <point x="162" y="337"/>
      <point x="230" y="412"/>
      <point x="314" y="412" type="curve" smooth="yes"/>
      <point x="390" y="412"/>
      <point x="445" y="354"/>
      <point x="445" y="274" type="curve" smooth="yes"/>
      <point x="445" y="184"/>
      <point x="376" y="109"/>
    </contour>
  </outline>
</glyph>
<glyph name="p" format="2">
  <advance width="619"/>
  <unicode hex="0070"/>
  <outline>
    <contour>
      <point x="-46" y="-204" type="line"/>
      <point x="88" y="-204" type="line"/>
      <point x="143" y="50" type="line"/>
      <point x="183" y="13"/>
      <point x="238" y="-8"/>
      <point x="299" y="-8" type="curve" smooth="yes"/>
      <point x="460" y="-8"/>
      <point x="589" y="124"/>
      <point x="589" y="287" type="curve" smooth="yes"/>
      <point x="589" y="424"/>
      <point x="489" y="528"/>
      <point x="357" y="528" type="curve" smooth="yes"/>
      <point x="314" y="528"/>
      <point x="273" y="517"/>
      <point x="235" y="494" type="curve"/>
      <point x="241" y="521" type="line"/>
      <point x="108" y="521" type="line"/>
    </contour>
    <contour>
      <point x="294" y="110" type="curve" smooth="yes"/>
      <point x="241" y="110"/>
      <point x="195" y="133"/>
      <point x="168" y="169" type="curve"/>
      <point x="212" y="372" type="line"/>
      <point x="242" y="398"/>
      <point x="280" y="412"/>
      <point x="322" y="412" type="curve" smooth="yes"/>
      <point x="400" y="412"/>
      <point x="458" y="353"/>
      <point x="458" y="275" type="curve" smooth="yes"/>
      <point x="458" y="183"/>
      <point x="386" y="110"/>
    </contour>
  </outline>
</glyph>
<glyph name="q" format="2">
  <advance width="619"/>
  <unicode hex="0071"/>
  <outline>
    <contour>
      <point x="333" y="-204" type="line"/>
      <point x="468" y="-204" type="line"/>
      <point x="621" y="521" type="line"/>
      <point x="488" y="521" type="line"/>
      <point x="478" y="472" type="line"/>
      <point x="438" y="508"/>
      <point x="383" y="528"/>
      <point x="320" y="528" type="curve" smooth="yes"/>
      <point x="160" y="528"/>
      <point x="30" y="397"/>
      <point x="30" y="234" type="curve" smooth="yes"/>
      <point x="30" y="97"/>
      <point x="131" y="-7"/>
      <point x="262" y="-7" type="curve" smooth="yes"/>
      <point x="305" y="-7"/>
      <point x="345" y="4"/>
      <point x="382" y="25" type="curve"/>
    </contour>
    <contour>
      <point x="298" y="109" type="curve" smooth="yes"/>
      <point x="220" y="109"/>
      <point x="162" y="167"/>
      <point x="162" y="246" type="curve" smooth="yes"/>
      <point x="162" y="338"/>
      <point x="234" y="411"/>
      <point x="325" y="411" type="curve" smooth="yes"/>
      <point x="377" y="411"/>
      <point x="425" y="389"/>
      <point x="452" y="354" type="curve"/>
      <point x="408" y="149" type="line"/>
      <point x="377" y="123"/>
      <point x="340" y="109"/>
    </contour>
  </outline>
</glyph>
<glyph name="r" format="2">
  <advance width="399"/>
  <unicode hex="0072"/>
  <anchor x="278" y="521" name="top"/>
  <anchor x="64" y="0" name="bottom"/>
  <outline>
    <contour>
      <point x="-3" y="0" type="line"/>
      <point x="132" y="0" type="line"/>
      <point x="204" y="344" type="line"/>
      <point x="238" y="389"/>
      <point x="284" y="415"/>
      <point x="335" y="415" type="curve" smooth="yes"/>
      <point x="361" y="415"/>
      <point x="395" y="407"/>
      <point x="409" y="397" type="curve"/>
      <point x="434" y="517" type="line"/>
      <point x="420" y="526"/>
      <point x="396" y="531"/>
      <point x="369" y="531" type="curve" smooth="yes"/>
      <point x="317" y="531"/>
      <point x="269" y="509"/>
      <point x="231" y="469" type="curve"/>
      <point x="242" y="521" type="line"/>
      <point x="108" y="521" type="line"/>
    </contour>
  </outline>
</glyph>
<glyph name="s" format="2">
  <advance width="485"/>
  <unicode hex="0073"/>
  <note>
Version created Fri Aug  3 17:49:29 2018
</note>
  <anchor x="257" y="521" name="top"/>
  <anchor x="215" y="0" name="bottom"/>
  <outline>
    <contour>
      <point x="228" y="-11" type="curve" smooth="yes"/>
      <point x="354" y="-11"/>
      <point x="449" y="65"/>
      <point x="449" y="166" type="curve" smooth="yes"/>
      <point x="449" y="236"/>
      <point x="401" y="286"/>
      <point x="313" y="305" type="curve" smooth="yes"/>
      <point x="218" y="326" type="line" smooth="yes"/>
      <point x="173" y="336"/>
      <point x="156" y="350"/>
      <point x="156" y="375" type="curve" smooth="yes"/>
      <point x="156" y="407"/>
      <point x="186" y="427"/>
      <point x="234" y="427" type="curve" smooth="yes"/>
      <point x="285" y="427"/>
      <point x="340" y="406"/>
      <point x="393" y="366" type="curve"/>
      <point x="468" y="449" type="line"/>
      <point x="407" y="501"/>
      <point x="327" y="529"/>
      <point x="243" y="529" type="curve" smooth="yes"/>
      <point x="116" y="529"/>
      <point x="37" y="464"/>
      <point x="37" y="359" type="curve" smooth="yes"/>
      <point x="37" y="286"/>
      <point x="82" y="237"/>
      <point x="168" y="218" type="curve" smooth="yes"/>
      <point x="264" y="197" type="line" smooth="yes"/>
      <point x="302" y="188"/>
      <point x="321" y="173"/>
      <point x="321" y="150" type="curve" smooth="yes"/>
      <point x="321" y="116"/>
      <point x="284" y="93"/>
      <point x="229" y="93" type="curve" smooth="yes"/>
      <point x="170" y="93"/>
      <point x="114" y="117"/>
      <point x="58" y="165" type="curve"/>
      <point x="-19" y="78" type="line"/>
      <point x="38" y="23"/>
      <point x="132" y="-11"/>
    </contour>
  </outline>
</glyph>
<glyph name="t" format="2">
  <advance width="416"/>
  <unicode hex="0074"/>
  <anchor x="228" y="0" name="bottom"/>
  <outline>
    <contour>
      <point x="249" y="-7" type="curve" smooth="yes"/>
      <point x="280" y="-7"/>
      <point x="320" y="-2"/>
      <point x="344" y="4" type="curve"/>
      <point x="368" y="115" type="line"/>
      <point x="344" y="109"/>
      <point x="325" y="107"/>
      <point x="304" y="107" type="curve" smooth="yes"/>
      <point x="246" y="107"/>
      <point x="228" y="127"/>
      <point x="238" y="178" type="curve" smooth="yes"/>
      <point x="288" y="407" type="line"/>
      <point x="433" y="407" type="line"/>
      <point x="457" y="521" type="line"/>
      <point x="312" y="521" type="line"/>
      <point x="347" y="685" type="line"/>
      <point x="206" y="654" type="line"/>
      <point x="178" y="521" type="line"/>
      <point x="73" y="521" type="line"/>
      <point x="49" y="407" type="line"/>
      <point x="154" y="407" type="line"/>
      <point x="101" y="156" type="line" smooth="yes"/>
      <point x="78" y="51"/>
      <point x="132" y="-7"/>
    </contour>
  </outline>
</glyph>
<glyph name="u" format="2">
  <advance width="582"/>
  <unicode hex="0075"/>
  <anchor x="336" y="521" name="top"/>
  <anchor x="473" y="0" name="bottom"/>
  <outline>
    <contour>
      <point x="205" y="-8" type="curve" smooth="yes"/>
      <point x="257" y="-8"/>
      <point x="305" y="7"/>
      <point x="347" y="38" type="curve"/>
      <point x="339" y="0" type="line"/>
      <point x="473" y="0" type="line"/>
      <point x="584" y="521" type="line"/>
      <point x="450" y="521" type="line"/>
      <point x="372" y="156" type="line"/>
      <point x="342" y="124"/>
      <point x="305" y="108"/>
      <point x="263" y="108" type="curve" smooth="yes"/>
      <point x="196" y="108"/>
      <point x="160" y="154"/>
      <point x="175" y="223" type="curve" smooth="yes"/>
      <point x="238" y="521" type="line"/>
      <point x="104" y="521" type="line"/>
      <point x="38" y="210" type="line" smooth="yes"/>
      <point x="11" y="84"/>
      <point x="81" y="-8"/>
    </contour>
  </outline>
</glyph>
<glyph name="w" format="2">
  <advance width="756"/>
  <unicode hex="0077"/>
  <anchor x="433" y="521" name="top"/>
  <outline>
    <contour>
      <point x="96" y="0" type="line"/>
      <point x="224" y="0" type="line"/>
      <point x="394" y="334" type="line"/>
      <point x="422" y="0" type="line"/>
      <point x="551" y="0" type="line"/>
      <point x="802" y="521" type="line"/>
      <point x="674" y="521" type="line"/>
      <point x="518" y="185" type="line"/>
      <point x="488" y="521" type="line"/>
      <point x="375" y="521" type="line"/>
      <point x="204" y="185" type="line"/>
      <point x="190" y="521" type="line"/>
      <point x="65" y="521" type="line"/>
    </contour>
  </outline>
</glyph>
<glyph name="x" format="2">
  <advance width="543"/>
  <unicode hex="0078"/>
  <outline>
    <contour>
      <point x="-58" y="0" type="line"/>
      <point x="99" y="0" type="line"/>
      <point x="255" y="166" type="line"/>
      <point x="340" y="0" type="line"/>
      <point x="489" y="0" type="line"/>
      <point x="350" y="265" type="line"/>
      <point x="596" y="521" type="line"/>
      <point x="439" y="521" type="line"/>
      <point x="294" y="366" type="line"/>
      <point x="215" y="521" type="line"/>
      <point x="64" y="521" type="line"/>
      <point x="199" y="267" type="line"/>
    </contour>
  </outline>
</glyph>
<glyph name="y" format="2">
  <advance width="565"/>
  <unicode hex="0079"/>
  <anchor x="332" y="521" name="top"/>
  <outline>
    <contour>
      <point x="22" y="-214" type="curve" smooth="yes"/>
      <point x="120" y="-214"/>
      <point x="188" y="-171"/>
      <point x="255" y="-64" type="curve" smooth="yes"/>
      <point x="623" y="521" type="line"/>
      <point x="476" y="521" type="line"/>
      <point x="252" y="155" type="line"/>
      <point x="198" y="521" type="line"/>
      <point x="55" y="521" type="line"/>
      <point x="145" y="0" type="line"/>
      <point x="127" y="-28" type="line" smooth="yes"/>
      <point x="99" y="-73"/>
      <point x="63" y="-93"/>
      <point x="16" y="-93" type="curve" smooth="yes"/>
      <point x="-4" y="-93"/>
      <point x="-20" y="-91"/>
      <point x="-33" y="-87" type="curve"/>
      <point x="-57" y="-204" type="line"/>
      <point x="-33" y="-210"/>
      <point x="-7" y="-214"/>
    </contour>
  </outline>
</glyph>
<glyph name="z" format="2">
  <advance width="490"/>
  <unicode hex="007A"/>
  <anchor x="287" y="521" name="top"/>
  <outline>
    <contour>
      <point x="-29" y="0" type="line"/>
      <point x="406" y="0" type="line"/>
      <point x="431" y="115" type="line"/>
      <point x="175" y="115" type="line"/>
      <point x="490" y="424" type="line"/>
      <point x="510" y="521" type="line"/>
      <point x="83" y="521" type="line"/>
      <point x="59" y="406" type="line"/>
      <point x="305" y="406" type="line"/>
      <point x="-8" y="97" type="line"/>
    </contour>
  </outline>
</glyph>
<glyph name="braceleft" format="2">
  <advance width="420"/>
  <unicode hex="007B"/>
  <outline>
    <contour>
      <point x="197" y="-218" type="curve" smooth="yes"/>
      <point x="224" y="-218"/>
      <point x="251" y="-216"/>
      <point x="283" y="-207" type="curve"/>
      <point x="284" y="-108" type="line"/>
      <point x="268" y="-113"/>
      <point x="251" y="-115"/>
      <point x="232" y="-115" type="curve" smooth="yes"/>
      <point x="181" y="-115"/>
      <point x="149" y="-80"/>
      <point x="190" y="-14" type="curve" smooth="yes"/>
      <point x="246" y="76" type="line" smooth="yes"/>
      <point x="295" y="156"/>
      <point x="257" y="220"/>
      <point x="182" y="241" type="curve"/>
      <point x="261" y="255"/>
      <point x="321" y="316"/>
      <point x="310" y="397" type="curve" smooth="yes"/>
      <point x="293" y="501" type="line" smooth="yes"/>
      <point x="283" y="570"/>
      <point x="321" y="606"/>
      <point x="370" y="606" type="curve" smooth="yes"/>
      <point x="387" y="606"/>
      <point x="412" y="600"/>
      <point x="432" y="591" type="curve"/>
      <point x="472" y="688" type="line"/>
      <point x="436" y="705"/>
      <point x="400" y="710"/>
      <point x="363" y="710" type="curve" smooth="yes"/>
      <point x="239" y="710"/>
      <point x="159" y="621"/>
      <point x="178" y="503" type="curve" smooth="yes"/>
      <point x="195" y="408" type="line" smooth="yes"/>
      <point x="206" y="344"/>
      <point x="168" y="297"/>
      <point x="104" y="297" type="curve" smooth="yes"/>
      <point x="22" y="297" type="line"/>
      <point x="0" y="195" type="line"/>
      <point x="82" y="195" type="line" smooth="yes"/>
      <point x="148" y="195"/>
      <point x="164" y="139"/>
      <point x="126" y="80" type="curve" smooth="yes"/>
      <point x="73" y="-2" type="line" smooth="yes"/>
      <point x="1" y="-113"/>
      <point x="48" y="-218"/>
    </contour>
  </outline>
</glyph>
<glyph name="bar" format="2">
  <advance width="318"/>
  <unicode hex="007C"/>
  <outline>
    <contour>
      <point x="-3" y="-211" type="line"/>
      <point x="122" y="-211" type="line"/>
      <point x="315" y="700" type="line"/>
      <point x="190" y="700" type="line"/>
    </contour>
  </outline>
</glyph>
<glyph name="braceright" format="2">
  <advance width="420"/>
  <unicode hex="007D"/>
  <outline>
    <contour>
      <point x="217" y="707" type="curve" smooth="yes"/>
      <point x="189" y="707"/>
      <point x="163" y="704"/>
      <point x="130" y="696" type="curve"/>
      <point x="130" y="596" type="line"/>
      <point x="146" y="601"/>
      <point x="162" y="604"/>
      <point x="181" y="604" type="curve" smooth="yes"/>
      <point x="233" y="604"/>
      <point x="264" y="568"/>
      <point x="223" y="502" type="curve" smooth="yes"/>
      <point x="167" y="412" type="line" smooth="yes"/>
      <point x="118" y="333"/>
      <point x="156" y="269"/>
      <point x="231" y="247" type="curve"/>
      <point x="152" y="233"/>
      <point x="92" y="173"/>
      <point x="104" y="91" type="curve" smooth="yes"/>
      <point x="120" y="-13" type="line" smooth="yes"/>
      <point x="130" y="-81"/>
      <point x="93" y="-117"/>
      <point x="44" y="-117" type="curve" smooth="yes"/>
      <point x="27" y="-117"/>
      <point x="1" y="-111"/>
      <point x="-19" y="-102" type="curve"/>
      <point x="-59" y="-199" type="line"/>
      <point x="-22" y="-216"/>
      <point x="13" y="-222"/>
      <point x="50" y="-222" type="curve" smooth="yes"/>
      <point x="174" y="-222"/>
      <point x="254" y="-133"/>
      <point x="235" y="-14" type="curve" smooth="yes"/>
      <point x="219" y="81" type="line" smooth="yes"/>
      <point x="208" y="144"/>
      <point x="245" y="192"/>
      <point x="309" y="192" type="curve" smooth="yes"/>
      <point x="392" y="192" type="line"/>
      <point x="413" y="293" type="line"/>
      <point x="331" y="293" type="line" smooth="yes"/>
      <point x="265" y="293"/>
      <point x="249" y="349"/>
      <point x="288" y="409" type="curve" smooth="yes"/>
      <point x="341" y="490" type="line" smooth="yes"/>
      <point x="412" y="601"/>
      <point x="365" y="707"/>
    </contour>
  </outline>
</glyph>
<glyph name="asciitilde" format="2">
  <advance width="600"/>
  <unicode hex="007E"/>
  <outline>
    <contour>
      <point x="147" y="297" type="line"/>
      <point x="164" y="345"/>
      <point x="186" y="369"/>
      <point x="216" y="369" type="curve" smooth="yes"/>
      <point x="232" y="369"/>
      <point x="247" y="363"/>
      <point x="274" y="346" type="curve" smooth="yes"/>
      <point x="342" y="304" type="line" smooth="yes"/>
      <point x="377" y="281"/>
      <point x="411" y="270"/>
      <point x="441" y="270" type="curve" smooth="yes"/>
      <point x="507" y="270"/>
      <point x="562" y="325"/>
      <point x="595" y="425" type="curve"/>
      <point x="506" y="446" type="line"/>
      <point x="488" y="397"/>
      <point x="466" y="374"/>
      <point x="436" y="374" type="curve" smooth="yes"/>
      <point x="421" y="374"/>
      <point x="404" y="380"/>
      <point x="379" y="396" type="curve" smooth="yes"/>
      <point x="311" y="439" type="line" smooth="yes"/>
      <point x="274" y="461"/>
      <point x="241" y="472"/>
      <point x="211" y="472" type="curve" smooth="yes"/>
      <point x="145" y="472"/>
      <point x="90" y="417"/>
      <point x="58" y="317" type="curve"/>
    </contour>
  </outline>
</glyph>
<glyph name="exclamdown" format="2">
  <advance width="235"/>
  <unicode hex="00A1"/>
  <outline>
    <contour>
      <point x="174" y="286" type="line"/>
      <point x="71" y="286" type="line"/>
      <point x="-50" y="-206" type="line"/>
      <point x="87" y="-206" type="line"/>
    </contour>
    <contour>
      <point x="161" y="505" type="curve" smooth="yes"/>
      <point x="115" y="505"/>
      <point x="73" y="462"/>
      <point x="73" y="415" type="curve" smooth="yes"/>
      <point x="73" y="374"/>
      <point x="102" y="344"/>
      <point x="142" y="344" type="curve" smooth="yes"/>
      <point x="191" y="344"/>
      <point x="233" y="386"/>
      <point x="233" y="434" type="curve" smooth="yes"/>
      <point x="233" y="474"/>
      <point x="202" y="505"/>
    </contour>
  </outline>
</glyph>
<glyph name="cent" format="2">
  <advance width="521"/>
  <unicode hex="00A2"/>
  <outline>
    <contour>
      <point x="190" y="-112" type="line"/>
      <point x="248" y="-112" type="line"/>
      <point x="270" y="-10" type="line"/>
      <point x="348" y="-10"/>
      <point x="417" y="16"/>
      <point x="477" y="70" type="curve"/>
      <point x="409" y="160" type="line"/>
      <point x="372" y="127"/>
      <point x="337" y="110"/>
      <point x="295" y="108" type="curve"/>
      <point x="358" y="403" type="line"/>
      <point x="388" y="393"/>
      <point x="415" y="373"/>
      <point x="436" y="341" type="curve"/>
      <point x="529" y="425" type="line"/>
      <point x="495" y="473"/>
      <point x="443" y="507"/>
      <point x="383" y="522" type="curve"/>
      <point x="404" y="620" type="line"/>
      <point x="345" y="620" type="line"/>
      <point x="327" y="530" type="line"/>
      <point x="155" y="530"/>
      <point x="27" y="401"/>
      <point x="27" y="234" type="curve" smooth="yes"/>
      <point x="27" y="114"/>
      <point x="103" y="22"/>
      <point x="213" y="-4" type="curve"/>
    </contour>
    <contour>
      <point x="239" y="118" type="line"/>
      <point x="192" y="137"/>
      <point x="161" y="183"/>
      <point x="161" y="241" type="curve" smooth="yes"/>
      <point x="161" y="330"/>
      <point x="223" y="403"/>
      <point x="301" y="410" type="curve"/>
    </contour>
  </outline>
</glyph>
<glyph name="sterling" format="2">
  <advance width="643"/>
  <unicode hex="00A3"/>
  <outline>
    <contour>
      <point x="424" y="-31" type="curve" smooth="yes"/>
      <point x="491" y="-31"/>
      <point x="545" y="-1"/>
      <point x="596" y="63" type="curve"/>
      <point x="509" y="130" type="line"/>
      <point x="482" y="95"/>
      <point x="453" y="79"/>
      <point x="419" y="79" type="curve" smooth="yes"/>
      <point x="407" y="79"/>
      <point x="393" y="81"/>
      <point x="378" y="85" type="curve" smooth="yes"/>
      <point x="229" y="129" type="line"/>
      <point x="261" y="155"/>
      <point x="278" y="195"/>
      <point x="279" y="245" type="curve" smooth="yes"/>
      <point x="280" y="286" type="line"/>
      <point x="444" y="286" type="line"/>
      <point x="463" y="375" type="line"/>
      <point x="279" y="375" type="line"/>
      <point x="280" y="458" type="line" smooth="yes"/>
      <point x="281" y="545"/>
      <point x="329" y="600"/>
      <point x="405" y="600" type="curve" smooth="yes"/>
      <point x="479" y="600"/>
      <point x="521" y="561"/>
      <point x="532" y="484" type="curve"/>
      <point x="647" y="514" type="line"/>
      <point x="627" y="642"/>
      <point x="543" y="711"/>
      <point x="408" y="711" type="curve" smooth="yes"/>
      <point x="261" y="711"/>
      <point x="155" y="604"/>
      <point x="154" y="455" type="curve" smooth="yes"/>
      <point x="153" y="375" type="line"/>
      <point x="73" y="375" type="line"/>
      <point x="54" y="286" type="line"/>
      <point x="153" y="286" type="line"/>
      <point x="152" y="210" type="line" smooth="yes"/>
      <point x="152" y="180"/>
      <point x="141" y="159"/>
      <point x="121" y="146" type="curve"/>
      <point x="58" y="144"/>
      <point x="5" y="113"/>
      <point x="-42" y="52" type="curve"/>
      <point x="45" y="-22" type="line"/>
      <point x="75" y="17"/>
      <point x="104" y="35"/>
      <point x="141" y="35" type="curve" smooth="yes"/>
      <point x="153" y="35"/>
      <point x="166" y="33"/>
      <point x="181" y="29" type="curve" smooth="yes"/>
      <point x="338" y="-18" type="line" smooth="yes"/>
      <point x="369" y="-27"/>
      <point x="398" y="-31"/>
    </contour>
  </outline>
</glyph>
<glyph name="uni00A4" format="2">
  <advance width="685"/>
  <unicode hex="00A4"/>
  <outline>
    <contour>
      <point x="92" y="46" type="line"/>
      <point x="188" y="143" type="line"/>
      <point x="231" y="113"/>
      <point x="285" y="96"/>
      <point x="342" y="96" type="curve" smooth="yes"/>
      <point x="400" y="96"/>
      <point x="452" y="113"/>
      <point x="496" y="143" type="curve"/>
      <point x="592" y="45" type="line"/>
      <point x="659" y="112" type="line"/>
      <point x="563" y="208" type="line"/>
      <point x="595" y="251"/>
      <point x="613" y="305"/>
      <point x="613" y="363" type="curve" smooth="yes"/>
      <point x="613" y="423"/>
      <point x="594" y="477"/>
      <point x="562" y="520" type="curve"/>
      <point x="658" y="617" type="line"/>
      <point x="593" y="682" type="line"/>
      <point x="496" y="584" type="line"/>
      <point x="452" y="614"/>
      <point x="400" y="630"/>
      <point x="342" y="630" type="curve" smooth="yes"/>
      <point x="286" y="630"/>
      <point x="233" y="614"/>
      <point x="190" y="585" type="curve"/>
      <point x="93" y="683" type="line"/>
      <point x="27" y="616" type="line"/>
      <point x="121" y="519" type="line"/>
      <point x="90" y="476"/>
      <point x="71" y="422"/>
      <point x="71" y="363" type="curve" smooth="yes"/>
      <point x="71" y="304"/>
      <point x="90" y="250"/>
      <point x="122" y="207" type="curve"/>
      <point x="27" y="111" type="line"/>
    </contour>
    <contour>
      <point x="342" y="212" type="curve" smooth="yes"/>
      <point x="261" y="212"/>
      <point x="198" y="278"/>
      <point x="198" y="363" type="curve" smooth="yes"/>
      <point x="198" y="449"/>
      <point x="262" y="515"/>
      <point x="342" y="515" type="curve" smooth="yes"/>
      <point x="423" y="515"/>
      <point x="486" y="449"/>
      <point x="486" y="363" type="curve" smooth="yes"/>
      <point x="486" y="278"/>
      <point x="424" y="212"/>
    </contour>
  </outline>
</glyph>
<glyph name="yen" format="2">
  <advance width="696"/>
  <unicode hex="00A5"/>
  <outline>
    <contour>
      <point x="219" y="0" type="line"/>
      <point x="361" y="0" type="line"/>
      <point x="389" y="130" type="line"/>
      <point x="561" y="130" type="line"/>
      <point x="576" y="204" type="line"/>
      <point x="404" y="204" type="line"/>
      <point x="417" y="263" type="line"/>
      <point x="590" y="263" type="line"/>
      <point x="605" y="336" type="line"/>
      <point x="474" y="336" type="line"/>
      <point x="791" y="700" type="line"/>
      <point x="624" y="700" type="line"/>
      <point x="368" y="396" type="line"/>
      <point x="238" y="700" type="line"/>
      <point x="87" y="700" type="line"/>
      <point x="250" y="336" type="line"/>
      <point x="118" y="336" type="line"/>
      <point x="103" y="263" type="line"/>
      <point x="274" y="263" type="line"/>
      <point x="261" y="204" type="line"/>
      <point x="89" y="204" type="line"/>
      <point x="74" y="130" type="line"/>
      <point x="246" y="130" type="line"/>
    </contour>
  </outline>
</glyph>
<glyph name="uni00A6" format="2">
  <advance width="320"/>
  <unicode hex="00A6"/>
  <guideline x="162" y="244" angle="192.0" identifier="ClaBlADU7P"/>
  <guideline x="162" y="244" angle="0.0" identifier="gnkGUokBKe"/>
  <outline>
    <contour>
      <point x="228" y="284" type="line"/>
      <point x="317" y="700" type="line"/>
      <point x="191" y="700" type="line"/>
      <point x="102" y="284" type="line"/>
    </contour>
    <contour>
      <point x="-2" y="-211" type="line"/>
      <point x="124" y="-211" type="line"/>
      <point x="211" y="204" type="line"/>
      <point x="85" y="204" type="line"/>
    </contour>
  </outline>
</glyph>
<glyph name="section" format="2">
  <advance width="567"/>
  <unicode hex="00A7"/>
  <outline>
    <contour>
      <point x="241" y="-52" type="curve" smooth="yes"/>
      <point x="355" y="-52"/>
      <point x="437" y="15"/>
      <point x="437" y="110" type="curve" smooth="yes"/>
      <point x="437" y="134"/>
      <point x="431" y="155"/>
      <point x="417" y="173" type="curve"/>
      <point x="497" y="195"/>
      <point x="545" y="253"/>
      <point x="545" y="330" type="curve" smooth="yes"/>
      <point x="545" y="384"/>
      <point x="513" y="420"/>
      <point x="426" y="463" type="curve" smooth="yes"/>
      <point x="327" y="511" type="line" smooth="yes"/>
      <point x="297" y="526"/>
      <point x="285" y="542"/>
      <point x="285" y="564" type="curve" smooth="yes"/>
      <point x="285" y="596"/>
      <point x="314" y="620"/>
      <point x="354" y="620" type="curve" smooth="yes"/>
      <point x="398" y="620"/>
      <point x="451" y="597"/>
      <point x="504" y="555" type="curve"/>
      <point x="573" y="631" type="line"/>
      <point x="510" y="682"/>
      <point x="435" y="709"/>
      <point x="357" y="709" type="curve" smooth="yes"/>
      <point x="244" y="709"/>
      <point x="163" y="642"/>
      <point x="163" y="547" type="curve" smooth="yes"/>
      <point x="163" y="522"/>
      <point x="169" y="502"/>
      <point x="182" y="483" type="curve"/>
      <point x="104" y="462"/>
      <point x="55" y="405"/>
      <point x="55" y="327" type="curve" smooth="yes"/>
      <point x="55" y="273"/>
      <point x="87" y="236"/>
      <point x="173" y="194" type="curve" smooth="yes"/>
      <point x="271" y="145" type="line" smooth="yes"/>
      <point x="301" y="131"/>
      <point x="314" y="115"/>
      <point x="314" y="93" type="curve" smooth="yes"/>
      <point x="314" y="61"/>
      <point x="285" y="37"/>
      <point x="244" y="37" type="curve" smooth="yes"/>
      <point x="200" y="37"/>
      <point x="148" y="59"/>
      <point x="94" y="102" type="curve"/>
      <point x="26" y="26" type="line"/>
      <point x="88" y="-25"/>
      <point x="164" y="-52"/>
    </contour>
    <contour>
      <point x="343" y="234" type="curve"/>
      <point x="223" y="290" type="line" smooth="yes"/>
      <point x="184" y="308"/>
      <point x="169" y="327"/>
      <point x="169" y="352" type="curve" smooth="yes"/>
      <point x="169" y="392"/>
      <point x="206" y="420"/>
      <point x="257" y="423" type="curve"/>
      <point x="376" y="367" type="line" smooth="yes"/>
      <point x="414" y="349"/>
      <point x="430" y="330"/>
      <point x="430" y="305" type="curve" smooth="yes"/>
      <point x="430" y="265"/>
      <point x="393" y="237"/>
    </contour>
  </outline>
</glyph>
<glyph name="dieresis" format="2">
  <advance width="600"/>
  <unicode hex="00A8"/>
  <outline>
    <contour>
      <point x="272" y="602" type="curve" smooth="yes"/>
      <point x="313" y="602"/>
      <point x="350" y="640"/>
      <point x="350" y="683" type="curve" smooth="yes"/>
      <point x="350" y="719"/>
      <point x="324" y="747"/>
      <point x="290" y="747" type="curve" smooth="yes"/>
      <point x="247" y="747"/>
      <point x="210" y="710"/>
      <point x="210" y="666" type="curve" smooth="yes"/>
      <point x="210" y="630"/>
      <point x="236" y="602"/>
    </contour>
    <contour>
      <point x="483" y="602" type="curve" smooth="yes"/>
      <point x="525" y="602"/>
      <point x="561" y="640"/>
      <point x="561" y="683" type="curve" smooth="yes"/>
      <point x="561" y="719"/>
      <point x="535" y="747"/>
      <point x="501" y="747" type="curve" smooth="yes"/>
      <point x="458" y="747"/>
      <point x="421" y="709"/>
      <point x="421" y="666" type="curve" smooth="yes"/>
      <point x="421" y="630"/>
      <point x="448" y="602"/>
    </contour>
  </outline>
</glyph>
<glyph name="copyright" format="2">
  <advance width="774"/>
  <unicode hex="00A9"/>
  <outline>
    <contour>
      <point x="367" y="-11" type="curve" smooth="yes"/>
      <point x="580" y="-11"/>
      <point x="760" y="175"/>
      <point x="760" y="394" type="curve" smooth="yes"/>
      <point x="760" y="576"/>
      <point x="625" y="711"/>
      <point x="443" y="711" type="curve" smooth="yes"/>
      <point x="230" y="711"/>
      <point x="51" y="525"/>
      <point x="51" y="305" type="curve" smooth="yes"/>
      <point x="51" y="124"/>
      <point x="186" y="-11"/>
    </contour>
    <contour>
      <point x="373" y="54" type="curve" smooth="yes"/>
      <point x="228" y="54"/>
      <point x="121" y="164"/>
      <point x="121" y="313" type="curve" smooth="yes"/>
      <point x="121" y="491"/>
      <point x="268" y="646"/>
      <point x="437" y="646" type="curve" smooth="yes"/>
      <point x="582" y="646"/>
      <point x="690" y="536"/>
      <point x="690" y="387" type="curve" smooth="yes"/>
      <point x="690" y="209"/>
      <point x="542" y="54"/>
    </contour>
    <contour>
      <point x="388" y="161" type="curve" smooth="yes"/>
      <point x="441" y="161"/>
      <point x="493" y="181"/>
      <point x="532" y="217" type="curve"/>
      <point x="486" y="288" type="line"/>
      <point x="458" y="265"/>
      <point x="432" y="253"/>
      <point x="405" y="253" type="curve" smooth="yes"/>
      <point x="359" y="253"/>
      <point x="326" y="287"/>
      <point x="326" y="334" type="curve" smooth="yes"/>
      <point x="326" y="395"/>
      <point x="374" y="448"/>
      <point x="430" y="448" type="curve" smooth="yes"/>
      <point x="463" y="448"/>
      <point x="489" y="432"/>
      <point x="511" y="399" type="curve"/>
      <point x="587" y="462" type="line"/>
      <point x="556" y="513"/>
      <point x="499" y="541"/>
      <point x="438" y="541" type="curve" smooth="yes"/>
      <point x="323" y="541"/>
      <point x="221" y="446"/>
      <point x="221" y="326" type="curve" smooth="yes"/>
      <point x="221" y="231"/>
      <point x="291" y="161"/>
    </contour>
  </outline>
</glyph>
<glyph name="ordfeminine" format="2">
  <advance width="429"/>
  <unicode hex="00AA"/>
  <outline>
    <contour>
      <point x="200" y="306" type="curve" smooth="yes"/>
      <point x="234" y="306"/>
      <point x="265" y="314"/>
      <point x="296" y="333" type="curve"/>
      <point x="291" y="311" type="line"/>
      <point x="396" y="311" type="line"/>
      <point x="446" y="545" type="line" smooth="yes"/>
      <point x="467" y="647"/>
      <point x="408" y="710"/>
      <point x="286" y="710" type="curve" smooth="yes"/>
      <point x="238" y="710"/>
      <point x="185" y="699"/>
      <point x="127" y="676" type="curve"/>
      <point x="153" y="595" type="line"/>
      <point x="203" y="613"/>
      <point x="235" y="620"/>
      <point x="263" y="620" type="curve" smooth="yes"/>
      <point x="325" y="620"/>
      <point x="352" y="596"/>
      <point x="341" y="544" type="curve" smooth="yes"/>
      <point x="337" y="526" type="line"/>
      <point x="305" y="538"/>
      <point x="268" y="545"/>
      <point x="232" y="545" type="curve" smooth="yes"/>
      <point x="130" y="545"/>
      <point x="66" y="496"/>
      <point x="66" y="416" type="curve" smooth="yes"/>
      <point x="66" y="349"/>
      <point x="118" y="306"/>
    </contour>
    <contour>
      <point x="237" y="382" type="curve" smooth="yes"/>
      <point x="192" y="382"/>
      <point x="168" y="397"/>
      <point x="168" y="425" type="curve" smooth="yes"/>
      <point x="168" y="456"/>
      <point x="195" y="475"/>
      <point x="242" y="475" type="curve" smooth="yes"/>
      <point x="269" y="475"/>
      <point x="298" y="469"/>
      <point x="323" y="457" type="curve"/>
      <point x="311" y="402" type="line"/>
      <point x="288" y="389"/>
      <point x="263" y="382"/>
    </contour>
  </outline>
</glyph>
<glyph name="uni00AC" format="2">
  <advance width="558"/>
  <unicode hex="00AC"/>
  <outline>
    <contour>
      <point x="327" y="0" type="line"/>
      <point x="462" y="0" type="line"/>
      <point x="535" y="343" type="line"/>
      <point x="59" y="343" type="line"/>
      <point x="34" y="227" type="line"/>
      <point x="376" y="227" type="line"/>
    </contour>
  </outline>
</glyph>
<glyph name="registered" format="2">
  <advance width="477"/>
  <unicode hex="00AE"/>
  <outline>
    <contour>
      <point x="274" y="306" type="curve" smooth="yes"/>
      <point x="394" y="306"/>
      <point x="499" y="415"/>
      <point x="499" y="538" type="curve" smooth="yes"/>
      <point x="499" y="643"/>
      <point x="423" y="719"/>
      <point x="318" y="719" type="curve" smooth="yes"/>
      <point x="198" y="719"/>
      <point x="93" y="612"/>
      <point x="93" y="488" type="curve" smooth="yes"/>
      <point x="93" y="383"/>
      <point x="169" y="306"/>
    </contour>
    <contour>
      <point x="278" y="351" type="curve" smooth="yes"/>
      <point x="197" y="351"/>
      <point x="142" y="407"/>
      <point x="142" y="488" type="curve" smooth="yes"/>
      <point x="142" y="592"/>
      <point x="218" y="675"/>
      <point x="313" y="675" type="curve" smooth="yes"/>
      <point x="395" y="675"/>
      <point x="451" y="619"/>
      <point x="451" y="537" type="curve" smooth="yes"/>
      <point x="451" y="434"/>
      <point x="373" y="351"/>
    </contour>
    <contour>
      <point x="204" y="420" type="line"/>
      <point x="251" y="420" type="line"/>
      <point x="265" y="486" type="line"/>
      <point x="290" y="486" type="line"/>
      <point x="312" y="420" type="line"/>
      <point x="361" y="420" type="line"/>
      <point x="336" y="494" type="line"/>
      <point x="361" y="505"/>
      <point x="378" y="529"/>
      <point x="378" y="555" type="curve" smooth="yes"/>
      <point x="378" y="588"/>
      <point x="357" y="608"/>
      <point x="322" y="608" type="curve" smooth="yes"/>
      <point x="244" y="608" type="line"/>
    </contour>
    <contour>
      <point x="309" y="571" type="line" smooth="yes"/>
      <point x="324" y="571"/>
      <point x="332" y="564"/>
      <point x="332" y="549" type="curve" smooth="yes"/>
      <point x="332" y="532"/>
      <point x="320" y="520"/>
      <point x="302" y="520" type="curve" smooth="yes"/>
      <point x="272" y="520" type="line"/>
      <point x="283" y="571" type="line"/>
    </contour>
  </outline>
</glyph>
<glyph name="macron" format="2">
  <advance width="600"/>
  <unicode hex="00AF"/>
  <outline>
    <contour>
      <point x="223" y="625" type="line"/>
      <point x="532" y="625" type="line"/>
      <point x="552" y="711" type="line"/>
      <point x="242" y="711" type="line"/>
    </contour>
  </outline>
</glyph>
<glyph name="degree" format="2">
  <advance width="367"/>
  <unicode hex="00B0"/>
  <outline>
    <contour>
      <point x="234" y="418" type="curve" smooth="yes"/>
      <point x="320" y="418"/>
      <point x="393" y="493"/>
      <point x="393" y="580" type="curve" smooth="yes"/>
      <point x="393" y="654"/>
      <point x="338" y="709"/>
      <point x="263" y="709" type="curve" smooth="yes"/>
      <point x="178" y="709"/>
      <point x="105" y="634"/>
      <point x="105" y="547" type="curve" smooth="yes"/>
      <point x="105" y="473"/>
      <point x="159" y="418"/>
    </contour>
    <contour>
      <point x="239" y="491" type="curve" smooth="yes"/>
      <point x="205" y="491"/>
      <point x="179" y="520"/>
      <point x="179" y="556" type="curve" smooth="yes"/>
      <point x="179" y="600"/>
      <point x="215" y="636"/>
      <point x="258" y="636" type="curve" smooth="yes"/>
      <point x="292" y="636"/>
      <point x="319" y="608"/>
      <point x="319" y="571" type="curve" smooth="yes"/>
      <point x="319" y="527"/>
      <point x="282" y="491"/>
    </contour>
  </outline>
</glyph>
<glyph name="plusminus" format="2">
  <advance width="600"/>
  <unicode hex="00B1"/>
  <outline>
    <contour>
      <point x="31" y="-1" type="line"/>
      <point x="465" y="-1" type="line"/>
      <point x="487" y="105" type="line"/>
      <point x="53" y="105" type="line"/>
    </contour>
    <contour>
      <point x="239" y="199" type="line"/>
      <point x="341" y="199" type="line"/>
      <point x="375" y="355" type="line"/>
      <point x="540" y="355" type="line"/>
      <point x="563" y="461" type="line"/>
      <point x="397" y="461" type="line"/>
      <point x="431" y="616" type="line"/>
      <point x="328" y="616" type="line"/>
      <point x="295" y="461" type="line"/>
      <point x="129" y="461" type="line"/>
      <point x="106" y="355" type="line"/>
      <point x="273" y="355" type="line"/>
    </contour>
  </outline>
</glyph>
<glyph name="twosuperior" format="2">
  <advance width="301"/>
  <unicode hex="00B2"/>
  <outline>
    <contour>
      <point x="46" y="350" type="line"/>
      <point x="302" y="350" type="line"/>
      <point x="316" y="420" type="line"/>
      <point x="185" y="420" type="line"/>
      <point x="273" y="485" type="line" smooth="yes"/>
      <point x="327" y="525"/>
      <point x="352" y="563"/>
      <point x="352" y="609" type="curve" smooth="yes"/>
      <point x="352" y="666"/>
      <point x="302" y="705"/>
      <point x="229" y="705" type="curve" smooth="yes"/>
      <point x="184" y="705"/>
      <point x="136" y="688"/>
      <point x="92" y="655" type="curve"/>
      <point x="125" y="595" type="line"/>
      <point x="162" y="622"/>
      <point x="189" y="633"/>
      <point x="215" y="633" type="curve" smooth="yes"/>
      <point x="248" y="633"/>
      <point x="268" y="617"/>
      <point x="268" y="593" type="curve" smooth="yes"/>
      <point x="268" y="572"/>
      <point x="253" y="551"/>
      <point x="220" y="528" type="curve" smooth="yes"/>
      <point x="58" y="408" type="line"/>
    </contour>
  </outline>
</glyph>
<glyph name="threesuperior" format="2">
  <advance width="322"/>
  <unicode hex="00B3"/>
  <outline>
    <contour>
      <point x="191" y="345" type="curve" smooth="yes"/>
      <point x="274" y="345"/>
      <point x="339" y="394"/>
      <point x="339" y="457" type="curve" smooth="yes"/>
      <point x="339" y="484"/>
      <point x="325" y="506"/>
      <point x="299" y="519" type="curve"/>
      <point x="338" y="538"/>
      <point x="365" y="572"/>
      <point x="365" y="610" type="curve" smooth="yes"/>
      <point x="365" y="666"/>
      <point x="314" y="705"/>
      <point x="241" y="705" type="curve" smooth="yes"/>
      <point x="191" y="705"/>
      <point x="140" y="687"/>
      <point x="100" y="653" type="curve"/>
      <point x="144" y="597" type="line"/>
      <point x="173" y="621"/>
      <point x="199" y="632"/>
      <point x="229" y="632" type="curve" smooth="yes"/>
      <point x="258" y="632"/>
      <point x="279" y="616"/>
      <point x="279" y="596" type="curve" smooth="yes"/>
      <point x="279" y="573"/>
      <point x="251" y="555"/>
      <point x="215" y="555" type="curve" smooth="yes"/>
      <point x="191" y="555" type="line"/>
      <point x="177" y="487" type="line"/>
      <point x="210" y="487" type="line" smooth="yes"/>
      <point x="240" y="487"/>
      <point x="257" y="475"/>
      <point x="257" y="455" type="curve" smooth="yes"/>
      <point x="257" y="434"/>
      <point x="231" y="418"/>
      <point x="197" y="418" type="curve" smooth="yes"/>
      <point x="158" y="418"/>
      <point x="133" y="430"/>
      <point x="113" y="460" type="curve"/>
      <point x="50" y="412" type="line"/>
      <point x="76" y="369"/>
      <point x="126" y="345"/>
    </contour>
  </outline>
</glyph>
<glyph name="acute" format="2">
  <advance width="600"/>
  <unicode hex="00B4"/>
  <outline>
    <contour>
      <point x="306" y="608" type="line"/>
      <point x="418" y="608" type="line"/>
      <point x="578" y="738" type="line"/>
      <point x="423" y="738" type="line"/>
    </contour>
  </outline>
</glyph>
<glyph name="uni00B5" format="2">
  <advance width="593"/>
  <unicode hex="00B5"/>
  <outline>
    <contour>
      <point x="-49" y="-209" type="line"/>
      <point x="87" y="-209" type="line"/>
      <point x="133" y="4" type="line"/>
      <point x="151" y="-5"/>
      <point x="174" y="-10"/>
      <point x="199" y="-10" type="curve" smooth="yes"/>
      <point x="256" y="-10"/>
      <point x="310" y="8"/>
      <point x="357" y="42" type="curve"/>
      <point x="348" y="0" type="line"/>
      <point x="485" y="0" type="line"/>
      <point x="595" y="521" type="line"/>
      <point x="458" y="521" type="line"/>
      <point x="382" y="160" type="line"/>
      <point x="350" y="127"/>
      <point x="310" y="108"/>
      <point x="263" y="108" type="curve" smooth="yes"/>
      <point x="197" y="108"/>
      <point x="164" y="151"/>
      <point x="178" y="218" type="curve"/>
      <point x="243" y="521" type="line"/>
      <point x="106" y="521" type="line"/>
    </contour>
  </outline>
</glyph>
<glyph name="paragraph" format="2">
  <advance width="724"/>
  <unicode hex="00B6"/>
  <outline>
    <contour>
      <point x="271" y="0" type="line"/>
      <point x="382" y="0" type="line"/>
      <point x="435" y="252" type="line"/>
      <point x="530" y="252" type="line"/>
      <point x="476" y="0" type="line"/>
      <point x="586" y="0" type="line"/>
      <point x="735" y="700" type="line"/>
      <point x="360" y="700" type="line" smooth="yes"/>
      <point x="204" y="700"/>
      <point x="90" y="593"/>
      <point x="90" y="446" type="curve" smooth="yes"/>
      <point x="90" y="330"/>
      <point x="179" y="252"/>
      <point x="312" y="252" type="curve" smooth="yes"/>
      <point x="325" y="252" type="line"/>
    </contour>
    <contour>
      <point x="458" y="361" type="line"/>
      <point x="507" y="589" type="line"/>
      <point x="601" y="589" type="line"/>
      <point x="553" y="361" type="line"/>
    </contour>
    <contour>
      <point x="319" y="361" type="line" smooth="yes"/>
      <point x="252" y="361"/>
      <point x="209" y="400"/>
      <point x="209" y="462" type="curve" smooth="yes"/>
      <point x="209" y="535"/>
      <point x="266" y="589"/>
      <point x="342" y="589" type="curve" smooth="yes"/>
      <point x="396" y="589" type="line"/>
      <point x="347" y="361" type="line"/>
    </contour>
  </outline>
</glyph>
<glyph name="periodcentered" format="2">
  <advance width="250"/>
  <unicode hex="00B7"/>
  <outline>
    <contour>
      <point x="121" y="204" type="curve" smooth="yes"/>
      <point x="168" y="204"/>
      <point x="210" y="247"/>
      <point x="210" y="295" type="curve" smooth="yes"/>
      <point x="210" y="335"/>
      <point x="180" y="366"/>
      <point x="140" y="366" type="curve" smooth="yes"/>
      <point x="92" y="366"/>
      <point x="50" y="324"/>
      <point x="50" y="275" type="curve" smooth="yes"/>
      <point x="50" y="235"/>
      <point x="80" y="204"/>
    </contour>
  </outline>
</glyph>
<glyph name="cedilla" format="2">
  <advance width="600"/>
  <unicode hex="00B8"/>
  <guideline x="285" y="0" angle="78.0" color="0.999,0.001,0.001,0.999" identifier="iVRxW6xjfL"/>
  <outline>
    <contour>
      <point x="200" y="-235" type="curve" smooth="yes"/>
      <point x="276" y="-235"/>
      <point x="337" y="-187"/>
      <point x="337" y="-127" type="curve" smooth="yes"/>
      <point x="337" y="-84"/>
      <point x="309" y="-55"/>
      <point x="261" y="-47" type="curve"/>
      <point x="285" y="0" type="line"/>
      <point x="218" y="0" type="line"/>
      <point x="171" y="-95" type="line"/>
      <point x="210" y="-95" type="line" smooth="yes"/>
      <point x="240" y="-95"/>
      <point x="258" y="-109"/>
      <point x="258" y="-131" type="curve" smooth="yes"/>
      <point x="258" y="-155"/>
      <point x="236" y="-171"/>
      <point x="203" y="-171" type="curve" smooth="yes"/>
      <point x="173" y="-171"/>
      <point x="147" y="-160"/>
      <point x="126" y="-138" type="curve"/>
      <point x="76" y="-184" type="line"/>
      <point x="107" y="-219"/>
      <point x="147" y="-235"/>
    </contour>
  </outline>
</glyph>
<glyph name="ordmasculine" format="2">
  <advance width="475"/>
  <unicode hex="00BA"/>
  <outline>
    <contour>
      <point x="277" y="303" type="curve" smooth="yes"/>
      <point x="396" y="303"/>
      <point x="497" y="403"/>
      <point x="497" y="521" type="curve" smooth="yes"/>
      <point x="497" y="629"/>
      <point x="414" y="710"/>
      <point x="303" y="710" type="curve" smooth="yes"/>
      <point x="182" y="710"/>
      <point x="83" y="611"/>
      <point x="83" y="492" type="curve" smooth="yes"/>
      <point x="83" y="384"/>
      <point x="166" y="303"/>
    </contour>
    <contour>
      <point x="282" y="396" type="curve" smooth="yes"/>
      <point x="227" y="396"/>
      <point x="187" y="438"/>
      <point x="187" y="497" type="curve" smooth="yes"/>
      <point x="187" y="562"/>
      <point x="237" y="616"/>
      <point x="297" y="616" type="curve" smooth="yes"/>
      <point x="353" y="616"/>
      <point x="393" y="574"/>
      <point x="393" y="517" type="curve" smooth="yes"/>
      <point x="393" y="451"/>
      <point x="343" y="396"/>
    </contour>
  </outline>
</glyph>
<glyph name="guillemotright" format="2">
  <advance width="679"/>
  <unicode hex="00BB"/>
  <outline>
    <contour>
      <point x="228" y="0" type="line"/>
      <point x="367" y="0" type="line"/>
      <point x="661" y="261" type="line"/>
      <point x="478" y="521" type="line"/>
      <point x="341" y="521" type="line"/>
      <point x="517" y="262" type="line"/>
    </contour>
    <contour>
      <point x="-20" y="0" type="line"/>
      <point x="120" y="0" type="line"/>
      <point x="413" y="261" type="line"/>
      <point x="230" y="521" type="line"/>
      <point x="93" y="521" type="line"/>
      <point x="270" y="262" type="line"/>
    </contour>
  </outline>
</glyph>
<glyph name="questiondown" format="2">
  <advance width="515"/>
  <unicode hex="00BF"/>
  <outline>
    <contour>
      <point x="349" y="283" type="curve"/>
      <point x="236" y="283" type="line"/>
      <point x="227" y="229"/>
      <point x="207" y="202"/>
      <point x="160" y="176" type="curve" smooth="yes"/>
      <point x="122" y="154" type="line" smooth="yes"/>
      <point x="13" y="91"/>
      <point x="-33" y="32"/>
      <point x="-33" y="-48" type="curve" smooth="yes"/>
      <point x="-33" y="-146"/>
      <point x="56" y="-214"/>
      <point x="182" y="-214" type="curve" smooth="yes"/>
      <point x="285" y="-214"/>
      <point x="383" y="-160"/>
      <point x="442" y="-72" type="curve"/>
      <point x="345" y="-21" type="line"/>
      <point x="310" y="-69"/>
      <point x="256" y="-99"/>
      <point x="200" y="-99" type="curve" smooth="yes"/>
      <point x="140" y="-99"/>
      <point x="101" y="-71"/>
      <point x="101" y="-28" type="curve" smooth="yes"/>
      <point x="101" y="4"/>
      <point x="128" y="36"/>
      <point x="173" y="63" type="curve" smooth="yes"/>
      <point x="235" y="100" type="line" smooth="yes"/>
      <point x="305" y="142"/>
      <point x="334" y="189"/>
    </contour>
    <contour>
      <point x="330" y="506" type="curve" smooth="yes"/>
      <point x="283" y="506"/>
      <point x="241" y="463"/>
      <point x="241" y="416" type="curve" smooth="yes"/>
      <point x="241" y="375"/>
      <point x="270" y="344"/>
      <point x="311" y="344" type="curve" smooth="yes"/>
      <point x="360" y="344"/>
      <point x="401" y="386"/>
      <point x="401" y="435" type="curve" smooth="yes"/>
      <point x="401" y="475"/>
      <point x="371" y="506"/>
    </contour>
  </outline>
</glyph>
<glyph name="AE" format="2">
  <advance width="964"/>
  <unicode hex="00C6"/>
  <outline>
    <contour>
      <point x="-59" y="0" type="line"/>
      <point x="88" y="0" type="line"/>
      <point x="200" y="183" type="line"/>
      <point x="484" y="183" type="line"/>
      <point x="511" y="0" type="line"/>
      <point x="868" y="0" type="line"/>
      <point x="894" y="126" type="line"/>
      <point x="634" y="126" type="line"/>
      <point x="607" y="292" type="line"/>
      <point x="803" y="292" type="line"/>
      <point x="830" y="414" type="line"/>
      <point x="590" y="414" type="line"/>
      <point x="564" y="574" type="line"/>
      <point x="990" y="574" type="line"/>
      <point x="1016" y="700" type="line"/>
      <point x="371" y="700" type="line"/>
    </contour>
    <contour>
      <point x="271" y="300" type="line"/>
      <point x="430" y="558" type="line"/>
      <point x="468" y="300" type="line"/>
    </contour>
  </outline>
</glyph>
<glyph name="Ccedilla" format="2">
  <advance width="708"/>
  <unicode hex="00C7"/>
  <outline>
    <contour>
      <point x="325" y="-235" type="curve" smooth="yes"/>
      <point x="401" y="-235"/>
      <point x="462" y="-187"/>
      <point x="462" y="-127" type="curve" smooth="yes"/>
      <point x="462" y="-84"/>
      <point x="434" y="-55"/>
      <point x="386" y="-47" type="curve"/>
      <point x="404" y="-12" type="line"/>
      <point x="503" y="-8"/>
      <point x="604" y="36"/>
      <point x="676" y="107" type="curve"/>
      <point x="598" y="205" type="line"/>
      <point x="544" y="151"/>
      <point x="478" y="121"/>
      <point x="408" y="121" type="curve" smooth="yes"/>
      <point x="288" y="121"/>
      <point x="200" y="210"/>
      <point x="200" y="328" type="curve" smooth="yes"/>
      <point x="200" y="465"/>
      <point x="304" y="575"/>
      <point x="434" y="575" type="curve" smooth="yes"/>
      <point x="514" y="575"/>
      <point x="579" y="539"/>
      <point x="619" y="473" type="curve"/>
      <point x="729" y="567" type="line"/>
      <point x="669" y="658"/>
      <point x="568" y="708"/>
      <point x="442" y="708" type="curve" smooth="yes"/>
      <point x="228" y="708"/>
      <point x="54" y="534"/>
      <point x="54" y="320" type="curve" smooth="yes"/>
      <point x="54" y="151"/>
      <point x="175" y="16"/>
      <point x="339" y="-8" type="curve"/>
      <point x="296" y="-95" type="line"/>
      <point x="335" y="-95" type="line" smooth="yes"/>
      <point x="365" y="-95"/>
      <point x="383" y="-109"/>
      <point x="383" y="-131" type="curve" smooth="yes"/>
      <point x="383" y="-155"/>
      <point x="361" y="-171"/>
      <point x="328" y="-171" type="curve" smooth="yes"/>
      <point x="298" y="-171"/>
      <point x="272" y="-160"/>
      <point x="251" y="-138" type="curve"/>
      <point x="201" y="-184" type="line"/>
      <point x="232" y="-219"/>
      <point x="272" y="-235"/>
    </contour>
  </outline>
</glyph>
<glyph name="multiply" format="2">
  <advance width="600"/>
  <unicode hex="00D7"/>
  <outline>
    <contour>
      <point x="135" y="141" type="line"/>
      <point x="309" y="293" type="line"/>
      <point x="419" y="140" type="line"/>
      <point x="496" y="206" type="line"/>
      <point x="386" y="359" type="line"/>
      <point x="561" y="512" type="line"/>
      <point x="512" y="577" type="line"/>
      <point x="338" y="425" type="line"/>
      <point x="228" y="577" type="line"/>
      <point x="151" y="511" type="line"/>
      <point x="261" y="358" type="line"/>
      <point x="86" y="206" type="line"/>
    </contour>
  </outline>
</glyph>
<glyph name="Oslash" format="2">
  <advance width="798"/>
  <unicode hex="00D8"/>
  <outline>
    <contour>
      <point x="392" y="-11" type="curve" smooth="yes"/>
      <point x="605" y="-11"/>
      <point x="781" y="166"/>
      <point x="781" y="380" type="curve" smooth="yes"/>
      <point x="781" y="456"/>
      <point x="757" y="525"/>
      <point x="717" y="580" type="curve"/>
      <point x="839" y="700" type="line"/>
      <point x="706" y="700" type="line"/>
      <point x="650" y="645" type="line"/>
      <point x="594" y="687"/>
      <point x="523" y="711"/>
      <point x="443" y="711" type="curve" smooth="yes"/>
      <point x="230" y="711"/>
      <point x="54" y="534"/>
      <point x="54" y="320" type="curve" smooth="yes"/>
      <point x="54" y="244"/>
      <point x="77" y="176"/>
      <point x="118" y="121" type="curve"/>
      <point x="-5" y="0" type="line"/>
      <point x="127" y="0" type="line"/>
      <point x="184" y="56" type="line"/>
      <point x="240" y="13"/>
      <point x="312" y="-11"/>
    </contour>
    <contour>
      <point x="225" y="227" type="line"/>
      <point x="209" y="256"/>
      <point x="200" y="291"/>
      <point x="200" y="329" type="curve" smooth="yes"/>
      <point x="200" y="466"/>
      <point x="304" y="578"/>
      <point x="434" y="578" type="curve" smooth="yes"/>
      <point x="478" y="578"/>
      <point x="516" y="565"/>
      <point x="548" y="544" type="curve"/>
    </contour>
    <contour>
      <point x="401" y="122" type="curve" smooth="yes"/>
      <point x="358" y="122"/>
      <point x="318" y="135"/>
      <point x="286" y="158" type="curve"/>
      <point x="609" y="474" type="line"/>
      <point x="626" y="445"/>
      <point x="636" y="410"/>
      <point x="636" y="371" type="curve" smooth="yes"/>
      <point x="636" y="234"/>
      <point x="531" y="122"/>
    </contour>
  </outline>
</glyph>
<glyph name="Thorn" format="2">
  <advance width="668"/>
  <unicode hex="00DE"/>
  <outline>
    <contour>
      <point x="8" y="0" type="line"/>
      <point x="149" y="0" type="line"/>
      <point x="177" y="131" type="line"/>
      <point x="378" y="131" type="line" smooth="yes"/>
      <point x="522" y="131"/>
      <point x="632" y="236"/>
      <point x="632" y="375" type="curve" smooth="yes"/>
      <point x="632" y="491"/>
      <point x="548" y="570"/>
      <point x="423" y="570" type="curve" smooth="yes"/>
      <point x="270" y="570" type="line"/>
      <point x="298" y="700" type="line"/>
      <point x="157" y="700" type="line"/>
    </contour>
    <contour>
      <point x="203" y="251" type="line"/>
      <point x="244" y="446" type="line"/>
      <point x="397" y="446" type="line" smooth="yes"/>
      <point x="452" y="446"/>
      <point x="487" y="414"/>
      <point x="487" y="364" type="curve" smooth="yes"/>
      <point x="487" y="297"/>
      <point x="441" y="251"/>
      <point x="374" y="251" type="curve" smooth="yes"/>
    </contour>
  </outline>
</glyph>
<glyph name="germandbls" format="2">
  <advance width="672"/>
  <unicode hex="00DF"/>
  <outline>
    <contour>
      <point x="445" y="-13" type="curve" smooth="yes"/>
      <point x="557" y="-13"/>
      <point x="638" y="56"/>
      <point x="638" y="151" type="curve" smooth="yes"/>
      <point x="638" y="204"/>
      <point x="609" y="241"/>
      <point x="544" y="273" type="curve" smooth="yes"/>
      <point x="472" y="308" type="line" smooth="yes"/>
      <point x="444" y="320"/>
      <point x="434" y="332"/>
      <point x="434" y="348" type="curve" smooth="yes"/>
      <point x="434" y="411"/>
      <point x="648" y="408"/>
      <point x="648" y="563" type="curve" smooth="yes"/>
      <point x="648" y="661"/>
      <point x="542" y="731"/>
      <point x="395" y="731" type="curve" smooth="yes"/>
      <point x="241" y="731"/>
      <point x="137" y="649"/>
      <point x="105" y="499" type="curve" smooth="yes"/>
      <point x="-2" y="0" type="line"/>
      <point x="132" y="0" type="line"/>
      <point x="236" y="482" type="line" smooth="yes"/>
      <point x="255" y="574"/>
      <point x="309" y="621"/>
      <point x="394" y="621" type="curve" smooth="yes"/>
      <point x="461" y="621"/>
      <point x="514" y="588"/>
      <point x="514" y="546" type="curve" smooth="yes"/>
      <point x="514" y="461"/>
      <point x="308" y="467"/>
      <point x="308" y="332" type="curve" smooth="yes"/>
      <point x="308" y="286"/>
      <point x="333" y="254"/>
      <point x="387" y="228" type="curve" smooth="yes"/>
      <point x="463" y="192" type="line" smooth="yes"/>
      <point x="501" y="173"/>
      <point x="516" y="159"/>
      <point x="516" y="137" type="curve" smooth="yes"/>
      <point x="516" y="104"/>
      <point x="488" y="83"/>
      <point x="442" y="83" type="curve" smooth="yes"/>
      <point x="392" y="83"/>
      <point x="345" y="107"/>
      <point x="308" y="156" type="curve"/>
      <point x="227" y="89" type="line"/>
      <point x="277" y="24"/>
      <point x="357" y="-13"/>
    </contour>
  </outline>
</glyph>
<glyph name="ae" format="2">
  <advance width="899"/>
  <unicode hex="00E6"/>
  <outline>
    <contour>
      <point x="209" y="-6" type="curve" smooth="yes"/>
      <point x="282" y="-6"/>
      <point x="343" y="18"/>
      <point x="411" y="74" type="curve"/>
      <point x="457" y="21"/>
      <point x="529" y="-10"/>
      <point x="614" y="-10" type="curve" smooth="yes"/>
      <point x="689" y="-10"/>
      <point x="749" y="8"/>
      <point x="812" y="54" type="curve"/>
      <point x="738" y="141" type="line"/>
      <point x="708" y="117"/>
      <point x="668" y="103"/>
      <point x="624" y="103" type="curve" smooth="yes"/>
      <point x="551" y="103"/>
      <point x="496" y="149"/>
      <point x="484" y="215" type="curve"/>
      <point x="863" y="215" type="line"/>
      <point x="867" y="249"/>
      <point x="868" y="263"/>
      <point x="868" y="278" type="curve" smooth="yes"/>
      <point x="868" y="424"/>
      <point x="771" y="529"/>
      <point x="633" y="529" type="curve" smooth="yes"/>
      <point x="570" y="529"/>
      <point x="508" y="504"/>
      <point x="459" y="461" type="curve"/>
      <point x="428" y="505"/>
      <point x="369" y="530"/>
      <point x="290" y="530" type="curve" smooth="yes"/>
      <point x="226" y="530"/>
      <point x="159" y="516"/>
      <point x="79" y="486" type="curve"/>
      <point x="112" y="383" type="line"/>
      <point x="179" y="407"/>
      <point x="220" y="417"/>
      <point x="257" y="417" type="curve" smooth="yes"/>
      <point x="337" y="417"/>
      <point x="376" y="381"/>
      <point x="362" y="317" type="curve" smooth="yes"/>
      <point x="356" y="290" type="line"/>
      <point x="315" y="304"/>
      <point x="271" y="311"/>
      <point x="226" y="311" type="curve" smooth="yes"/>
      <point x="96" y="311"/>
      <point x="16" y="248"/>
      <point x="16" y="144" type="curve" smooth="yes"/>
      <point x="16" y="53"/>
      <point x="91" y="-6"/>
    </contour>
    <contour>
      <point x="493" y="312" type="line"/>
      <point x="514" y="373"/>
      <point x="565" y="415"/>
      <point x="626" y="415" type="curve" smooth="yes"/>
      <point x="685" y="415"/>
      <point x="730" y="374"/>
      <point x="742" y="312" type="curve"/>
    </contour>
    <contour>
      <point x="235" y="91" type="curve" smooth="yes"/>
      <point x="179" y="91"/>
      <point x="143" y="115"/>
      <point x="143" y="154" type="curve" smooth="yes"/>
      <point x="143" y="193"/>
      <point x="181" y="220"/>
      <point x="240" y="220" type="curve" smooth="yes"/>
      <point x="279" y="220"/>
      <point x="323" y="212"/>
      <point x="355" y="199" type="curve"/>
      <point x="357" y="177"/>
      <point x="362" y="157"/>
      <point x="370" y="139" type="curve"/>
      <point x="328" y="107"/>
      <point x="282" y="91"/>
    </contour>
  </outline>
</glyph>
<glyph name="ccedilla" format="2">
  <advance width="520"/>
  <unicode hex="00E7"/>
  <outline>
    <contour>
      <point x="222" y="-234" type="curve" smooth="yes"/>
      <point x="298" y="-234"/>
      <point x="359" y="-186"/>
      <point x="359" y="-125" type="curve" smooth="yes"/>
      <point x="359" y="-82"/>
      <point x="331" y="-54"/>
      <point x="283" y="-46" type="curve"/>
      <point x="302" y="-9" type="line"/>
      <point x="366" y="-3"/>
      <point x="426" y="24"/>
      <point x="477" y="70" type="curve"/>
      <point x="409" y="160" type="line"/>
      <point x="370" y="125"/>
      <point x="332" y="108"/>
      <point x="289" y="108" type="curve" smooth="yes"/>
      <point x="214" y="108"/>
      <point x="161" y="163"/>
      <point x="161" y="241" type="curve" smooth="yes"/>
      <point x="161" y="334"/>
      <point x="230" y="411"/>
      <point x="313" y="411" type="curve" smooth="yes"/>
      <point x="364" y="411"/>
      <point x="405" y="388"/>
      <point x="436" y="341" type="curve"/>
      <point x="529" y="425" type="line"/>
      <point x="483" y="490"/>
      <point x="402" y="530"/>
      <point x="315" y="530" type="curve" smooth="yes"/>
      <point x="157" y="530"/>
      <point x="27" y="398"/>
      <point x="27" y="234" type="curve" smooth="yes"/>
      <point x="27" y="106"/>
      <point x="114" y="9"/>
      <point x="236" y="-8" type="curve"/>
      <point x="193" y="-94" type="line"/>
      <point x="232" y="-94" type="line" smooth="yes"/>
      <point x="262" y="-94"/>
      <point x="281" y="-108"/>
      <point x="281" y="-130" type="curve" smooth="yes"/>
      <point x="281" y="-154"/>
      <point x="258" y="-170"/>
      <point x="225" y="-170" type="curve" smooth="yes"/>
      <point x="195" y="-170"/>
      <point x="169" y="-159"/>
      <point x="148" y="-137" type="curve"/>
      <point x="98" y="-182" type="line"/>
      <point x="129" y="-217"/>
      <point x="169" y="-234"/>
    </contour>
  </outline>
</glyph>
<glyph name="eth" format="2">
  <advance width="582"/>
  <unicode hex="00F0"/>
  <outline>
    <contour>
      <point x="266" y="-9" type="curve" smooth="yes"/>
      <point x="441" y="-9"/>
      <point x="570" y="153"/>
      <point x="570" y="372" type="curve" smooth="yes"/>
      <point x="570" y="466"/>
      <point x="547" y="548"/>
      <point x="504" y="618" type="curve"/>
      <point x="594" y="662" type="line"/>
      <point x="558" y="737" type="line"/>
      <point x="451" y="685" type="line"/>
      <point x="423" y="715"/>
      <point x="390" y="740"/>
      <point x="352" y="763" type="curve"/>
      <point x="265" y="679" type="line"/>
      <point x="291" y="664"/>
      <point x="314" y="649"/>
      <point x="335" y="629" type="curve"/>
      <point x="261" y="593" type="line"/>
      <point x="296" y="517" type="line"/>
      <point x="391" y="564" type="line"/>
      <point x="421" y="520"/>
      <point x="439" y="471"/>
      <point x="441" y="422" type="curve"/>
      <point x="409" y="463"/>
      <point x="359" y="486"/>
      <point x="295" y="486" type="curve" smooth="yes"/>
      <point x="150" y="486"/>
      <point x="30" y="367"/>
      <point x="30" y="224" type="curve" smooth="yes"/>
      <point x="30" y="86"/>
      <point x="127" y="-9"/>
    </contour>
    <contour>
      <point x="271" y="112" type="curve" smooth="yes"/>
      <point x="206" y="112"/>
      <point x="157" y="161"/>
      <point x="157" y="227" type="curve" smooth="yes"/>
      <point x="157" y="305"/>
      <point x="223" y="372"/>
      <point x="299" y="372" type="curve" smooth="yes"/>
      <point x="364" y="372"/>
      <point x="412" y="322"/>
      <point x="412" y="257" type="curve" smooth="yes"/>
      <point x="412" y="179"/>
      <point x="346" y="112"/>
    </contour>
  </outline>
</glyph>
<glyph name="divide" format="2">
  <advance width="600"/>
  <unicode hex="00F7"/>
  <outline>
    <contour>
      <point x="96" y="306" type="line"/>
      <point x="530" y="306" type="line"/>
      <point x="552" y="411" type="line"/>
      <point x="118" y="411" type="line"/>
    </contour>
    <contour>
      <point x="272" y="62" type="curve" smooth="yes"/>
      <point x="321" y="62"/>
      <point x="360" y="104"/>
      <point x="360" y="150" type="curve" smooth="yes"/>
      <point x="360" y="194"/>
      <point x="328" y="226"/>
      <point x="287" y="226" type="curve" smooth="yes"/>
      <point x="237" y="226"/>
      <point x="197" y="186"/>
      <point x="197" y="139" type="curve" smooth="yes"/>
      <point x="197" y="95"/>
      <point x="229" y="62"/>
    </contour>
    <contour>
      <point x="365" y="496" type="curve" smooth="yes"/>
      <point x="413" y="496"/>
      <point x="453" y="537"/>
      <point x="453" y="584" type="curve" smooth="yes"/>
      <point x="453" y="627"/>
      <point x="421" y="660"/>
      <point x="379" y="660" type="curve" smooth="yes"/>
      <point x="329" y="660"/>
      <point x="289" y="620"/>
      <point x="289" y="572" type="curve" smooth="yes"/>
      <point x="289" y="529"/>
      <point x="322" y="496"/>
    </contour>
  </outline>
</glyph>
<glyph name="oslash" format="2">
  <advance width="607"/>
  <unicode hex="00F8"/>
  <outline>
    <contour>
      <point x="286" y="-10" type="curve" smooth="yes"/>
      <point x="444" y="-10"/>
      <point x="577" y="123"/>
      <point x="577" y="281" type="curve" smooth="yes"/>
      <point x="577" y="339"/>
      <point x="558" y="392"/>
      <point x="527" y="433" type="curve"/>
      <point x="615" y="521" type="line"/>
      <point x="514" y="521" type="line"/>
      <point x="476" y="483" type="line"/>
      <point x="433" y="513"/>
      <point x="380" y="531"/>
      <point x="321" y="531" type="curve" smooth="yes"/>
      <point x="162" y="531"/>
      <point x="30" y="399"/>
      <point x="30" y="240" type="curve" smooth="yes"/>
      <point x="30" y="182"/>
      <point x="48" y="129"/>
      <point x="80" y="88" type="curve"/>
      <point x="-9" y="0" type="line"/>
      <point x="91" y="0" type="line"/>
      <point x="131" y="39" type="line"/>
      <point x="173" y="8"/>
      <point x="227" y="-10"/>
    </contour>
    <contour>
      <point x="175" y="183" type="line"/>
      <point x="166" y="202"/>
      <point x="162" y="223"/>
      <point x="162" y="247" type="curve" smooth="yes"/>
      <point x="162" y="337"/>
      <point x="230" y="412"/>
      <point x="314" y="412" type="curve" smooth="yes"/>
      <point x="341" y="412"/>
      <point x="365" y="404"/>
      <point x="384" y="391" type="curve"/>
    </contour>
    <contour>
      <point x="292" y="109" type="curve" smooth="yes"/>
      <point x="265" y="109"/>
      <point x="242" y="117"/>
      <point x="221" y="130" type="curve"/>
      <point x="431" y="338" type="line"/>
      <point x="440" y="319"/>
      <point x="445" y="298"/>
      <point x="445" y="274" type="curve" smooth="yes"/>
      <point x="445" y="184"/>
      <point x="376" y="109"/>
    </contour>
  </outline>
</glyph>
<glyph name="thorn" format="2">
  <advance width="619"/>
  <unicode hex="00FE"/>
  <outline>
    <contour>
      <point x="-47" y="-209" type="line"/>
      <point x="87" y="-209" type="line"/>
      <point x="142" y="50" type="line"/>
      <point x="183" y="13"/>
      <point x="238" y="-8"/>
      <point x="299" y="-8" type="curve" smooth="yes"/>
      <point x="460" y="-8"/>
      <point x="589" y="124"/>
      <point x="589" y="287" type="curve" smooth="yes"/>
      <point x="589" y="424"/>
      <point x="489" y="528"/>
      <point x="357" y="528" type="curve" smooth="yes"/>
      <point x="315" y="528"/>
      <point x="274" y="517"/>
      <point x="238" y="496" type="curve"/>
      <point x="287" y="730" type="line"/>
      <point x="147" y="700" type="line"/>
    </contour>
    <contour>
      <point x="322" y="412" type="curve" smooth="yes"/>
      <point x="400" y="412"/>
      <point x="458" y="353"/>
      <point x="458" y="275" type="curve" smooth="yes"/>
      <point x="458" y="183"/>
      <point x="386" y="110"/>
      <point x="294" y="110" type="curve" smooth="yes"/>
      <point x="241" y="110"/>
      <point x="194" y="133"/>
      <point x="168" y="169" type="curve"/>
      <point x="211" y="372" type="line"/>
      <point x="242" y="398"/>
      <point x="280" y="412"/>
    </contour>
  </outline>
</glyph>
<glyph name="Aogonek" format="2">
  <advance width="718"/>
  <unicode hex="0104"/>
  <outline>
    <contour>
      <point x="-59" y="0" type="line"/>
      <point x="97" y="0" type="line"/>
      <point x="205" y="183" type="line"/>
      <point x="488" y="183" type="line"/>
      <point x="520" y="0" type="line"/>
      <point x="588" y="0" type="line"/>
      <point x="510" y="-45"/>
      <point x="471" y="-94"/>
      <point x="471" y="-148" type="curve" smooth="yes"/>
      <point x="471" y="-193"/>
      <point x="505" y="-221"/>
      <point x="559" y="-221" type="curve" smooth="yes"/>
      <point x="588" y="-221"/>
      <point x="617" y="-214"/>
      <point x="642" y="-200" type="curve"/>
      <point x="636" y="-139" type="line"/>
      <point x="624" y="-146"/>
      <point x="610" y="-150"/>
      <point x="596" y="-150" type="curve" smooth="yes"/>
      <point x="570" y="-150"/>
      <point x="555" y="-137"/>
      <point x="555" y="-115" type="curve" smooth="yes"/>
      <point x="555" y="-77"/>
      <point x="591" y="-40"/>
      <point x="666" y="0" type="curve"/>
      <point x="533" y="700" type="line"/>
      <point x="369" y="700" type="line"/>
    </contour>
    <contour>
      <point x="272" y="300" type="line"/>
      <point x="424" y="558" type="line"/>
      <point x="469" y="300" type="line"/>
    </contour>
  </outline>
</glyph>
<glyph name="aogonek" format="2">
  <advance width="545"/>
  <unicode hex="0105"/>
  <outline>
    <contour>
      <point x="335" y="-221" type="curve" smooth="yes"/>
      <point x="363" y="-221"/>
      <point x="393" y="-214"/>
      <point x="418" y="-200" type="curve"/>
      <point x="412" y="-139" type="line"/>
      <point x="400" y="-146"/>
      <point x="385" y="-150"/>
      <point x="372" y="-150" type="curve" smooth="yes"/>
      <point x="346" y="-150"/>
      <point x="330" y="-137"/>
      <point x="330" y="-115" type="curve" smooth="yes"/>
      <point x="330" y="-77"/>
      <point x="366" y="-40"/>
      <point x="442" y="0" type="curve"/>
      <point x="508" y="313" type="line" smooth="yes"/>
      <point x="536" y="448"/>
      <point x="458" y="530"/>
      <point x="299" y="530" type="curve" smooth="yes"/>
      <point x="236" y="530"/>
      <point x="167" y="516"/>
      <point x="90" y="486" type="curve"/>
      <point x="123" y="383" type="line"/>
      <point x="187" y="407"/>
      <point x="232" y="417"/>
      <point x="270" y="417" type="curve" smooth="yes"/>
      <point x="355" y="417"/>
      <point x="391" y="382"/>
      <point x="376" y="311" type="curve" smooth="yes"/>
      <point x="370" y="284" type="line"/>
      <point x="327" y="301"/>
      <point x="277" y="311"/>
      <point x="228" y="311" type="curve" smooth="yes"/>
      <point x="92" y="311"/>
      <point x="9" y="245"/>
      <point x="9" y="139" type="curve" smooth="yes"/>
      <point x="9" y="51"/>
      <point x="78" y="-6"/>
      <point x="186" y="-6" type="curve" smooth="yes"/>
      <point x="232" y="-6"/>
      <point x="274" y="6"/>
      <point x="316" y="32" type="curve"/>
      <point x="310" y="0" type="line"/>
      <point x="364" y="0" type="line"/>
      <point x="285" y="-45"/>
      <point x="247" y="-94"/>
      <point x="247" y="-148" type="curve" smooth="yes"/>
      <point x="247" y="-193"/>
      <point x="281" y="-221"/>
    </contour>
    <contour>
      <point x="232" y="91" type="curve" smooth="yes"/>
      <point x="172" y="91"/>
      <point x="136" y="113"/>
      <point x="136" y="151" type="curve" smooth="yes"/>
      <point x="136" y="194"/>
      <point x="175" y="221"/>
      <point x="238" y="221" type="curve" smooth="yes"/>
      <point x="279" y="221"/>
      <point x="318" y="213"/>
      <point x="352" y="196" type="curve"/>
      <point x="335" y="120" type="line"/>
      <point x="304" y="100"/>
      <point x="269" y="91"/>
    </contour>
  </outline>
</glyph>
<glyph name="Dcroat" format="2">
  <advance width="747"/>
  <unicode hex="0110"/>
  <outline>
    <contour>
      <point x="31" y="0" type="line"/>
      <point x="329" y="0" type="line" smooth="yes"/>
      <point x="549" y="0"/>
      <point x="733" y="176"/>
      <point x="733" y="388" type="curve" smooth="yes"/>
      <point x="733" y="569"/>
      <point x="596" y="700"/>
      <point x="409" y="700" type="curve" smooth="yes"/>
      <point x="180" y="700" type="line"/>
      <point x="118" y="408" type="line"/>
      <point x="40" y="408" type="line"/>
      <point x="16" y="293" type="line"/>
      <point x="93" y="293" type="line"/>
    </contour>
    <contour>
      <point x="200" y="129" type="line"/>
      <point x="234" y="293" type="line"/>
      <point x="403" y="293" type="line"/>
      <point x="427" y="408" type="line"/>
      <point x="259" y="408" type="line"/>
      <point x="294" y="571" type="line"/>
      <point x="392" y="571" type="line" smooth="yes"/>
      <point x="505" y="571"/>
      <point x="585" y="491"/>
      <point x="585" y="378" type="curve" smooth="yes"/>
      <point x="585" y="239"/>
      <point x="476" y="129"/>
      <point x="340" y="129" type="curve" smooth="yes"/>
    </contour>
  </outline>
</glyph>
<glyph name="dcroat" format="2">
  <advance width="617"/>
  <unicode hex="0111"/>
  <outline>
    <contour>
      <point x="262" y="-7" type="curve" smooth="yes"/>
      <point x="305" y="-7"/>
      <point x="346" y="4"/>
      <point x="383" y="26" type="curve"/>
      <point x="378" y="0" type="line"/>
      <point x="511" y="0" type="line"/>
      <point x="633" y="579" type="line"/>
      <point x="686" y="579" type="line"/>
      <point x="704" y="663" type="line"/>
      <point x="651" y="663" type="line"/>
      <point x="666" y="730" type="line"/>
      <point x="525" y="700" type="line"/>
      <point x="518" y="663" type="line"/>
      <point x="383" y="663" type="line"/>
      <point x="365" y="579" type="line"/>
      <point x="500" y="579" type="line"/>
      <point x="477" y="473" type="line"/>
      <point x="437" y="508"/>
      <point x="382" y="528"/>
      <point x="320" y="528" type="curve" smooth="yes"/>
      <point x="160" y="528"/>
      <point x="30" y="397"/>
      <point x="30" y="234" type="curve" smooth="yes"/>
      <point x="30" y="97"/>
      <point x="131" y="-7"/>
    </contour>
    <contour>
      <point x="298" y="109" type="curve" smooth="yes"/>
      <point x="220" y="109"/>
      <point x="162" y="167"/>
      <point x="162" y="246" type="curve" smooth="yes"/>
      <point x="162" y="338"/>
      <point x="234" y="411"/>
      <point x="325" y="411" type="curve" smooth="yes"/>
      <point x="377" y="411"/>
      <point x="425" y="389"/>
      <point x="452" y="355" type="curve"/>
      <point x="408" y="149" type="line"/>
      <point x="377" y="123"/>
      <point x="340" y="109"/>
    </contour>
  </outline>
</glyph>
<glyph name="Eogonek" format="2">
  <advance width="634"/>
  <unicode hex="0118"/>
  <outline>
    <contour>
      <point x="430" y="-221" type="curve" smooth="yes"/>
      <point x="459" y="-221"/>
      <point x="489" y="-214"/>
      <point x="513" y="-200" type="curve"/>
      <point x="508" y="-139" type="line"/>
      <point x="496" y="-146"/>
      <point x="481" y="-150"/>
      <point x="467" y="-150" type="curve" smooth="yes"/>
      <point x="442" y="-150"/>
      <point x="426" y="-137"/>
      <point x="426" y="-115" type="curve" smooth="yes"/>
      <point x="426" y="-77"/>
      <point x="462" y="-40"/>
      <point x="538" y="0" type="curve"/>
      <point x="565" y="126" type="line"/>
      <point x="175" y="126" type="line"/>
      <point x="211" y="292" type="line"/>
      <point x="464" y="292" type="line"/>
      <point x="490" y="414" type="line"/>
      <point x="236" y="414" type="line"/>
      <point x="271" y="574" type="line"/>
      <point x="656" y="574" type="line"/>
      <point x="683" y="700" type="line"/>
      <point x="156" y="700" type="line"/>
      <point x="7" y="0" type="line"/>
      <point x="459" y="0" type="line"/>
      <point x="381" y="-45"/>
      <point x="342" y="-94"/>
      <point x="342" y="-148" type="curve" smooth="yes"/>
      <point x="342" y="-193"/>
      <point x="377" y="-221"/>
    </contour>
  </outline>
</glyph>
<glyph name="eogonek" format="2">
  <advance width="576"/>
  <unicode hex="0119"/>
  <outline>
    <contour>
      <point x="271" y="-221" type="curve" smooth="yes"/>
      <point x="299" y="-221"/>
      <point x="329" y="-214"/>
      <point x="354" y="-200" type="curve"/>
      <point x="348" y="-139" type="line"/>
      <point x="336" y="-146"/>
      <point x="321" y="-150"/>
      <point x="308" y="-150" type="curve" smooth="yes"/>
      <point x="282" y="-150"/>
      <point x="266" y="-137"/>
      <point x="266" y="-115" type="curve" smooth="yes"/>
      <point x="266" y="-77"/>
      <point x="302" y="-40"/>
      <point x="377" y="-1" type="curve"/>
      <point x="416" y="9"/>
      <point x="452" y="27"/>
      <point x="490" y="54" type="curve"/>
      <point x="415" y="141" type="line"/>
      <point x="385" y="117"/>
      <point x="346" y="103"/>
      <point x="302" y="103" type="curve" smooth="yes"/>
      <point x="228" y="103"/>
      <point x="174" y="149"/>
      <point x="162" y="215" type="curve"/>
      <point x="540" y="215" type="line"/>
      <point x="544" y="249"/>
      <point x="545" y="263"/>
      <point x="545" y="278" type="curve" smooth="yes"/>
      <point x="545" y="424"/>
      <point x="448" y="529"/>
      <point x="310" y="529" type="curve" smooth="yes"/>
      <point x="156" y="529"/>
      <point x="28" y="397"/>
      <point x="28" y="237" type="curve" smooth="yes"/>
      <point x="28" y="96"/>
      <point x="134" y="-6"/>
      <point x="283" y="-10" type="curve"/>
      <point x="216" y="-52"/>
      <point x="183" y="-98"/>
      <point x="183" y="-148" type="curve" smooth="yes"/>
      <point x="183" y="-193"/>
      <point x="217" y="-221"/>
    </contour>
    <contour>
      <point x="170" y="312" type="line"/>
      <point x="192" y="373"/>
      <point x="242" y="415"/>
      <point x="303" y="415" type="curve" smooth="yes"/>
      <point x="363" y="415"/>
      <point x="408" y="374"/>
      <point x="419" y="312" type="curve"/>
    </contour>
  </outline>
</glyph>
<glyph name="gcommaaccent" format="2">
  <advance width="619"/>
  <unicode hex="0123"/>
  <outline>
    <contour>
      <point x="507" y="819" type="line"/>
      <point x="410" y="819" type="line"/>
      <point x="286" y="614" type="line"/>
      <point x="413" y="614" type="line"/>
    </contour>
    <component base="g"/>
  </outline>
</glyph>
<glyph name="Hbar" format="2">
  <advance width="753"/>
  <unicode hex="0126"/>
  <outline>
    <contour>
      <point x="21" y="0" type="line"/>
      <point x="163" y="0" type="line"/>
      <point x="224" y="287" type="line"/>
      <point x="540" y="287" type="line"/>
      <point x="479" y="0" type="line"/>
      <point x="621" y="0" type="line"/>
      <point x="726" y="498" type="line"/>
      <point x="794" y="498" type="line"/>
      <point x="818" y="613" type="line"/>
      <point x="751" y="613" type="line"/>
      <point x="770" y="700" type="line"/>
      <point x="628" y="700" type="line"/>
      <point x="609" y="613" type="line"/>
      <point x="293" y="613" type="line"/>
      <point x="312" y="700" type="line"/>
      <point x="170" y="700" type="line"/>
      <point x="152" y="613" type="line"/>
      <point x="85" y="613" type="line"/>
      <point x="61" y="498" type="line"/>
      <point x="127" y="498" type="line"/>
    </contour>
    <contour>
      <point x="252" y="418" type="line"/>
      <point x="268" y="498" type="line"/>
      <point x="585" y="498" type="line"/>
      <point x="568" y="418" type="line"/>
    </contour>
  </outline>
</glyph>
<glyph name="hbar" format="2">
  <advance width="581"/>
  <unicode hex="0127"/>
  <outline>
    <contour>
      <point x="-2" y="0" type="line"/>
      <point x="132" y="0" type="line"/>
      <point x="210" y="365" type="line"/>
      <point x="240" y="397"/>
      <point x="276" y="413"/>
      <point x="319" y="413" type="curve" smooth="yes"/>
      <point x="386" y="413"/>
      <point x="421" y="367"/>
      <point x="407" y="298" type="curve" smooth="yes"/>
      <point x="343" y="0" type="line"/>
      <point x="478" y="0" type="line"/>
      <point x="544" y="311" type="line" smooth="yes"/>
      <point x="570" y="437"/>
      <point x="500" y="529"/>
      <point x="376" y="529" type="curve" smooth="yes"/>
      <point x="325" y="529"/>
      <point x="277" y="514"/>
      <point x="235" y="483" type="curve"/>
      <point x="255" y="579" type="line"/>
      <point x="390" y="579" type="line"/>
      <point x="407" y="663" type="line"/>
      <point x="273" y="663" type="line"/>
      <point x="287" y="730" type="line"/>
      <point x="147" y="700" type="line"/>
      <point x="139" y="663" type="line"/>
      <point x="82" y="663" type="line"/>
      <point x="64" y="579" type="line"/>
      <point x="121" y="579" type="line"/>
    </contour>
  </outline>
</glyph>
<glyph name="Iogonek" format="2">
  <advance width="266"/>
  <unicode hex="012E"/>
  <outline>
    <contour>
      <point x="41" y="-221" type="curve" smooth="yes"/>
      <point x="70" y="-221"/>
      <point x="100" y="-214"/>
      <point x="124" y="-200" type="curve"/>
      <point x="119" y="-139" type="line"/>
      <point x="107" y="-146"/>
      <point x="92" y="-150"/>
      <point x="78" y="-150" type="curve" smooth="yes"/>
      <point x="53" y="-150"/>
      <point x="37" y="-137"/>
      <point x="37" y="-115" type="curve" smooth="yes"/>
      <point x="37" y="-77"/>
      <point x="73" y="-40"/>
      <point x="149" y="0" type="curve"/>
      <point x="298" y="700" type="line"/>
      <point x="156" y="700" type="line"/>
      <point x="7" y="0" type="line"/>
      <point x="70" y="0" type="line"/>
      <point x="-8" y="-45"/>
      <point x="-47" y="-94"/>
      <point x="-47" y="-148" type="curve" smooth="yes"/>
      <point x="-47" y="-193"/>
      <point x="-13" y="-221"/>
    </contour>
  </outline>
</glyph>
<glyph name="iogonek" format="2">
  <advance width="240"/>
  <unicode hex="012F"/>
  <outline>
    <contour>
      <point x="196" y="583" type="curve" smooth="yes"/>
      <point x="242" y="583"/>
      <point x="282" y="624"/>
      <point x="282" y="671" type="curve" smooth="yes"/>
      <point x="282" y="709"/>
      <point x="252" y="739"/>
      <point x="214" y="739" type="curve" smooth="yes"/>
      <point x="168" y="739"/>
      <point x="128" y="699"/>
      <point x="128" y="652" type="curve" smooth="yes"/>
      <point x="128" y="613"/>
      <point x="158" y="583"/>
    </contour>
    <contour>
      <point x="25" y="-221" type="curve" smooth="yes"/>
      <point x="53" y="-221"/>
      <point x="83" y="-214"/>
      <point x="108" y="-200" type="curve"/>
      <point x="102" y="-139" type="line"/>
      <point x="90" y="-146"/>
      <point x="75" y="-150"/>
      <point x="62" y="-150" type="curve" smooth="yes"/>
      <point x="36" y="-150"/>
      <point x="20" y="-137"/>
      <point x="20" y="-115" type="curve" smooth="yes"/>
      <point x="20" y="-77"/>
      <point x="56" y="-40"/>
      <point x="132" y="0" type="curve"/>
      <point x="242" y="521" type="line"/>
      <point x="108" y="521" type="line"/>
      <point x="-2" y="0" type="line"/>
      <point x="54" y="0" type="line"/>
      <point x="-24" y="-45"/>
      <point x="-63" y="-94"/>
      <point x="-63" y="-148" type="curve" smooth="yes"/>
      <point x="-63" y="-193"/>
      <point x="-29" y="-221"/>
    </contour>
  </outline>
</glyph>
<glyph name="dotlessi" format="2">
  <advance width="240"/>
  <unicode hex="0131"/>
  <anchor x="175" y="521" name="top"/>
  <anchor x="132" y="0" name="bottom"/>
  <outline>
    <contour>
      <point x="-2" y="0" type="line"/>
      <point x="132" y="0" type="line"/>
      <point x="242" y="521" type="line"/>
      <point x="108" y="521" type="line"/>
    </contour>
  </outline>
</glyph>
<glyph name="kgreenlandic" format="2">
  <advance width="557"/>
  <unicode hex="0138"/>
  <outline>
    <contour>
      <point x="-2" y="0" type="line"/>
      <point x="132" y="0" type="line"/>
      <point x="181" y="230" type="line"/>
      <point x="355" y="0" type="line"/>
      <point x="517" y="0" type="line"/>
      <point x="312" y="260" type="line"/>
      <point x="619" y="521" type="line"/>
      <point x="453" y="521" type="line"/>
      <point x="195" y="296" type="line"/>
      <point x="242" y="521" type="line"/>
      <point x="109" y="521" type="line"/>
    </contour>
  </outline>
</glyph>
<glyph name="lacute" format="2">
  <advance width="240"/>
  <unicode hex="013A"/>
  <outline>
    <contour>
      <point x="163" y="787" type="line"/>
      <point x="275" y="787" type="line"/>
      <point x="434" y="917" type="line"/>
      <point x="280" y="917" type="line"/>
    </contour>
    <contour>
      <point x="-2" y="0" type="line"/>
      <point x="132" y="0" type="line"/>
      <point x="280" y="700" type="line"/>
      <point x="147" y="700" type="line"/>
    </contour>
  </outline>
</glyph>
<glyph name="Lslash" format="2">
  <advance width="642"/>
  <unicode hex="0141"/>
  <outline>
    <contour>
      <point x="32" y="0" type="line"/>
      <point x="549" y="0" type="line"/>
      <point x="576" y="128" type="line"/>
      <point x="201" y="128" type="line"/>
      <point x="237" y="296" type="line"/>
      <point x="441" y="412" type="line"/>
      <point x="467" y="535" type="line"/>
      <point x="263" y="419" type="line"/>
      <point x="323" y="700" type="line"/>
      <point x="181" y="700" type="line"/>
      <point x="103" y="331" type="line"/>
      <point x="15" y="282" type="line"/>
      <point x="-10" y="159" type="line"/>
      <point x="76" y="208" type="line"/>
    </contour>
  </outline>
</glyph>
<glyph name="lslash" format="2">
  <advance width="283"/>
  <unicode hex="0142"/>
  <outline>
    <contour>
      <point x="22" y="0" type="line"/>
      <point x="156" y="0" type="line"/>
      <point x="231" y="354" type="line"/>
      <point x="311" y="405" type="line"/>
      <point x="338" y="530" type="line"/>
      <point x="257" y="479" type="line"/>
      <point x="311" y="730" type="line"/>
      <point x="171" y="700" type="line"/>
      <point x="103" y="383" type="line"/>
      <point x="25" y="334" type="line"/>
      <point x="-2" y="209" type="line"/>
      <point x="77" y="259" type="line"/>
    </contour>
  </outline>
</glyph>
<glyph name="Eng" format="2">
  <advance width="734"/>
  <unicode hex="014A"/>
  <outline>
    <contour>
      <point x="420" y="-212" type="curve" smooth="yes"/>
      <point x="516" y="-212"/>
      <point x="582" y="-160"/>
      <point x="602" y="-66" type="curve" smooth="yes"/>
      <point x="765" y="700" type="line"/>
      <point x="631" y="700" type="line"/>
      <point x="533" y="240" type="line"/>
      <point x="291" y="700" type="line"/>
      <point x="156" y="700" type="line"/>
      <point x="7" y="0" type="line"/>
      <point x="141" y="0" type="line"/>
      <point x="242" y="475" type="line"/>
      <point x="485" y="12" type="line"/>
      <point x="472" y="-51" type="line" smooth="yes"/>
      <point x="464" y="-85"/>
      <point x="446" y="-101"/>
      <point x="412" y="-101" type="curve" smooth="yes"/>
      <point x="389" y="-101"/>
      <point x="375" y="-98"/>
      <point x="361" y="-95" type="curve"/>
      <point x="338" y="-199" type="line"/>
      <point x="356" y="-205"/>
      <point x="391" y="-212"/>
    </contour>
  </outline>
</glyph>
<glyph name="eng" format="2">
  <advance width="581"/>
  <unicode hex="014B"/>
  <outline>
    <contour>
      <point x="281" y="-215" type="curve" smooth="yes"/>
      <point x="377" y="-215"/>
      <point x="443" y="-162"/>
      <point x="463" y="-68" type="curve" smooth="yes"/>
      <point x="544" y="312" type="line" smooth="yes"/>
      <point x="570" y="437"/>
      <point x="500" y="529"/>
      <point x="376" y="529" type="curve" smooth="yes"/>
      <point x="324" y="529"/>
      <point x="277" y="514"/>
      <point x="234" y="483" type="curve"/>
      <point x="242" y="521" type="line"/>
      <point x="108" y="521" type="line"/>
      <point x="-2" y="0" type="line"/>
      <point x="132" y="0" type="line"/>
      <point x="209" y="365" type="line"/>
      <point x="239" y="397"/>
      <point x="276" y="413"/>
      <point x="319" y="413" type="curve" smooth="yes"/>
      <point x="385" y="413"/>
      <point x="421" y="367"/>
      <point x="407" y="298" type="curve" smooth="yes"/>
      <point x="332" y="-54" type="line" smooth="yes"/>
      <point x="324" y="-88"/>
      <point x="306" y="-104"/>
      <point x="272" y="-104" type="curve" smooth="yes"/>
      <point x="250" y="-104"/>
      <point x="236" y="-102"/>
      <point x="222" y="-98" type="curve"/>
      <point x="199" y="-202" type="line"/>
      <point x="217" y="-209"/>
      <point x="254" y="-215"/>
    </contour>
  </outline>
</glyph>
<glyph name="OE" format="2">
  <advance width="1094"/>
  <unicode hex="0152"/>
  <outline>
    <contour>
      <point x="387" y="0" type="curve" smooth="yes"/>
      <point x="998" y="0" type="line"/>
      <point x="1024" y="126" type="line"/>
      <point x="665" y="126" type="line"/>
      <point x="711" y="170"/>
      <point x="745" y="228"/>
      <point x="760" y="292" type="curve"/>
      <point x="935" y="292" type="line"/>
      <point x="961" y="414" type="line"/>
      <point x="768" y="414" type="line"/>
      <point x="763" y="475"/>
      <point x="739" y="531"/>
      <point x="701" y="574" type="curve"/>
      <point x="1120" y="574" type="line"/>
      <point x="1146" y="700" type="line"/>
      <point x="440" y="700" type="line" smooth="yes"/>
      <point x="230" y="700"/>
      <point x="54" y="528"/>
      <point x="54" y="320" type="curve" smooth="yes"/>
      <point x="54" y="138"/>
      <point x="197" y="0"/>
    </contour>
    <contour>
      <point x="397" y="133" type="curve" smooth="yes"/>
      <point x="284" y="133"/>
      <point x="201" y="215"/>
      <point x="201" y="329" type="curve" smooth="yes"/>
      <point x="201" y="458"/>
      <point x="304" y="567"/>
      <point x="430" y="567" type="curve" smooth="yes"/>
      <point x="542" y="567"/>
      <point x="624" y="484"/>
      <point x="624" y="372" type="curve" smooth="yes"/>
      <point x="624" y="241"/>
      <point x="522" y="133"/>
    </contour>
  </outline>
</glyph>
<glyph name="oe" format="2">
  <advance width="994"/>
  <unicode hex="0153"/>
  <outline>
    <contour>
      <point x="286" y="-10" type="curve" smooth="yes"/>
      <point x="371" y="-10"/>
      <point x="447" y="30"/>
      <point x="500" y="92" type="curve"/>
      <point x="544" y="29"/>
      <point x="619" y="-10"/>
      <point x="710" y="-10" type="curve" smooth="yes"/>
      <point x="784" y="-10"/>
      <point x="844" y="8"/>
      <point x="908" y="54" type="curve"/>
      <point x="833" y="141" type="line"/>
      <point x="803" y="117"/>
      <point x="764" y="103"/>
      <point x="720" y="103" type="curve" smooth="yes"/>
      <point x="646" y="103"/>
      <point x="592" y="149"/>
      <point x="580" y="215" type="curve"/>
      <point x="958" y="215" type="line"/>
      <point x="963" y="249"/>
      <point x="964" y="263"/>
      <point x="964" y="278" type="curve" smooth="yes"/>
      <point x="964" y="424"/>
      <point x="866" y="529"/>
      <point x="728" y="529" type="curve"/>
      <point x="647" y="529"/>
      <point x="572" y="490"/>
      <point x="523" y="430" type="curve"/>
      <point x="479" y="491"/>
      <point x="406" y="531"/>
      <point x="321" y="531" type="curve" smooth="yes"/>
      <point x="162" y="531"/>
      <point x="30" y="399"/>
      <point x="30" y="240" type="curve" smooth="yes"/>
      <point x="30" y="98"/>
      <point x="139" y="-10"/>
    </contour>
    <contour>
      <point x="588" y="312" type="line"/>
      <point x="610" y="373"/>
      <point x="660" y="415"/>
      <point x="721" y="415" type="curve"/>
      <point x="781" y="415"/>
      <point x="825" y="374"/>
      <point x="837" y="312" type="curve"/>
    </contour>
    <contour>
      <point x="292" y="109" type="curve" smooth="yes"/>
      <point x="217" y="109"/>
      <point x="162" y="167"/>
      <point x="162" y="247" type="curve" smooth="yes"/>
      <point x="162" y="337"/>
      <point x="230" y="412"/>
      <point x="314" y="412" type="curve" smooth="yes"/>
      <point x="390" y="412"/>
      <point x="445" y="354"/>
      <point x="445" y="274" type="curve" smooth="yes"/>
      <point x="445" y="184"/>
      <point x="376" y="109"/>
    </contour>
  </outline>
</glyph>
<glyph name="Scedilla" format="2">
  <advance width="619"/>
  <unicode hex="015E"/>
  <outline>
    <contour>
      <point x="243" y="-235" type="curve" smooth="yes"/>
      <point x="319" y="-235"/>
      <point x="380" y="-187"/>
      <point x="380" y="-127" type="curve" smooth="yes"/>
      <point x="380" y="-84"/>
      <point x="352" y="-55"/>
      <point x="304" y="-47" type="curve"/>
      <point x="323" y="-10" type="line"/>
      <point x="487" y="-5"/>
      <point x="594" y="86"/>
      <point x="594" y="223" type="curve" smooth="yes"/>
      <point x="594" y="314"/>
      <point x="534" y="375"/>
      <point x="415" y="404" type="curve" smooth="yes"/>
      <point x="290" y="434" type="line" smooth="yes"/>
      <point x="227" y="451"/>
      <point x="201" y="473"/>
      <point x="201" y="509" type="curve" smooth="yes"/>
      <point x="201" y="558"/>
      <point x="247" y="589"/>
      <point x="320" y="589" type="curve" smooth="yes"/>
      <point x="401" y="589"/>
      <point x="474" y="556"/>
      <point x="543" y="489" type="curve"/>
      <point x="632" y="591" type="line"/>
      <point x="555" y="666"/>
      <point x="445" y="710"/>
      <point x="333" y="710" type="curve" smooth="yes"/>
      <point x="168" y="710"/>
      <point x="65" y="626"/>
      <point x="65" y="493" type="curve" smooth="yes"/>
      <point x="65" y="405"/>
      <point x="118" y="344"/>
      <point x="220" y="317" type="curve" smooth="yes"/>
      <point x="351" y="283" type="line" smooth="yes"/>
      <point x="423" y="264"/>
      <point x="452" y="242"/>
      <point x="452" y="202" type="curve" smooth="yes"/>
      <point x="452" y="147"/>
      <point x="400" y="111"/>
      <point x="319" y="111" type="curve" smooth="yes"/>
      <point x="230" y="111"/>
      <point x="155" y="149"/>
      <point x="83" y="230" type="curve"/>
      <point x="-12" y="132" type="line"/>
      <point x="57" y="52"/>
      <point x="151" y="4"/>
      <point x="258" y="-8" type="curve"/>
      <point x="214" y="-95" type="line"/>
      <point x="253" y="-95" type="line" smooth="yes"/>
      <point x="283" y="-95"/>
      <point x="302" y="-109"/>
      <point x="302" y="-131" type="curve" smooth="yes"/>
      <point x="302" y="-155"/>
      <point x="279" y="-171"/>
      <point x="246" y="-171" type="curve" smooth="yes"/>
      <point x="216" y="-171"/>
      <point x="190" y="-160"/>
      <point x="169" y="-138" type="curve"/>
      <point x="119" y="-184" type="line"/>
      <point x="150" y="-219"/>
      <point x="190" y="-235"/>
    </contour>
  </outline>
</glyph>
<glyph name="scedilla" format="2">
  <advance width="485"/>
  <unicode hex="015F"/>
  <outline>
    <contour>
      <point x="162" y="-235" type="curve" smooth="yes"/>
      <point x="238" y="-235"/>
      <point x="299" y="-187"/>
      <point x="299" y="-127" type="curve" smooth="yes"/>
      <point x="299" y="-84"/>
      <point x="271" y="-55"/>
      <point x="223" y="-47" type="curve"/>
      <point x="241" y="-11" type="line"/>
      <point x="361" y="-5"/>
      <point x="449" y="69"/>
      <point x="449" y="166" type="curve" smooth="yes"/>
      <point x="449" y="236"/>
      <point x="401" y="286"/>
      <point x="313" y="305" type="curve" smooth="yes"/>
      <point x="218" y="326" type="line" smooth="yes"/>
      <point x="173" y="336"/>
      <point x="156" y="350"/>
      <point x="156" y="375" type="curve" smooth="yes"/>
      <point x="156" y="407"/>
      <point x="186" y="427"/>
      <point x="234" y="427" type="curve" smooth="yes"/>
      <point x="285" y="427"/>
      <point x="340" y="406"/>
      <point x="393" y="366" type="curve"/>
      <point x="468" y="449" type="line"/>
      <point x="407" y="501"/>
      <point x="327" y="529"/>
      <point x="243" y="529" type="curve" smooth="yes"/>
      <point x="116" y="529"/>
      <point x="37" y="464"/>
      <point x="37" y="359" type="curve" smooth="yes"/>
      <point x="37" y="286"/>
      <point x="82" y="237"/>
      <point x="168" y="218" type="curve" smooth="yes"/>
      <point x="264" y="197" type="line" smooth="yes"/>
      <point x="302" y="188"/>
      <point x="321" y="173"/>
      <point x="321" y="150" type="curve" smooth="yes"/>
      <point x="321" y="116"/>
      <point x="284" y="93"/>
      <point x="229" y="93" type="curve" smooth="yes"/>
      <point x="170" y="93"/>
      <point x="114" y="117"/>
      <point x="58" y="165" type="curve"/>
      <point x="-19" y="78" type="line"/>
      <point x="28" y="33"/>
      <point x="99" y="2"/>
      <point x="176" y="-7" type="curve"/>
      <point x="133" y="-95" type="line"/>
      <point x="172" y="-95" type="line" smooth="yes"/>
      <point x="202" y="-95"/>
      <point x="220" y="-109"/>
      <point x="220" y="-131" type="curve" smooth="yes"/>
      <point x="220" y="-155"/>
      <point x="198" y="-171"/>
      <point x="165" y="-171" type="curve" smooth="yes"/>
      <point x="135" y="-171"/>
      <point x="109" y="-160"/>
      <point x="88" y="-138" type="curve"/>
      <point x="38" y="-184" type="line"/>
      <point x="69" y="-219"/>
      <point x="109" y="-235"/>
    </contour>
  </outline>
</glyph>
<glyph name="Tcedilla" format="2">
  <advance width="639"/>
  <unicode hex="0162"/>
  <outline>
    <contour>
      <point x="211" y="-235" type="curve" smooth="yes"/>
      <point x="287" y="-235"/>
      <point x="348" y="-187"/>
      <point x="348" y="-127" type="curve" smooth="yes"/>
      <point x="348" y="-84"/>
      <point x="320" y="-55"/>
      <point x="272" y="-47" type="curve"/>
      <point x="296" y="0" type="line"/>
      <point x="335" y="0" type="line"/>
      <point x="457" y="572" type="line"/>
      <point x="687" y="572" type="line"/>
      <point x="715" y="700" type="line"/>
      <point x="111" y="700" type="line"/>
      <point x="83" y="572" type="line"/>
      <point x="315" y="572" type="line"/>
      <point x="193" y="0" type="line"/>
      <point x="229" y="0" type="line"/>
      <point x="182" y="-95" type="line"/>
      <point x="221" y="-95" type="line" smooth="yes"/>
      <point x="251" y="-95"/>
      <point x="269" y="-109"/>
      <point x="269" y="-131" type="curve" smooth="yes"/>
      <point x="269" y="-155"/>
      <point x="247" y="-171"/>
      <point x="214" y="-171" type="curve" smooth="yes"/>
      <point x="184" y="-171"/>
      <point x="158" y="-160"/>
      <point x="137" y="-138" type="curve"/>
      <point x="87" y="-184" type="line"/>
      <point x="118" y="-219"/>
      <point x="158" y="-235"/>
    </contour>
  </outline>
</glyph>
<glyph name="tcedilla" format="2">
  <advance width="416"/>
  <unicode hex="0163"/>
  <outline>
    <contour>
      <point x="174" y="-235" type="curve" smooth="yes"/>
      <point x="251" y="-235"/>
      <point x="312" y="-187"/>
      <point x="312" y="-127" type="curve" smooth="yes"/>
      <point x="312" y="-84"/>
      <point x="284" y="-55"/>
      <point x="236" y="-47" type="curve"/>
      <point x="257" y="-7" type="line"/>
      <point x="286" y="-6"/>
      <point x="322" y="-2"/>
      <point x="344" y="4" type="curve"/>
      <point x="368" y="115" type="line"/>
      <point x="344" y="109"/>
      <point x="325" y="107"/>
      <point x="304" y="107" type="curve" smooth="yes"/>
      <point x="246" y="107"/>
      <point x="228" y="127"/>
      <point x="238" y="178" type="curve" smooth="yes"/>
      <point x="288" y="407" type="line"/>
      <point x="433" y="407" type="line"/>
      <point x="457" y="521" type="line"/>
      <point x="312" y="521" type="line"/>
      <point x="347" y="685" type="line"/>
      <point x="206" y="654" type="line"/>
      <point x="178" y="521" type="line"/>
      <point x="73" y="521" type="line"/>
      <point x="49" y="407" type="line"/>
      <point x="154" y="407" type="line"/>
      <point x="101" y="156" type="line" smooth="yes"/>
      <point x="82" y="70"/>
      <point x="115" y="15"/>
      <point x="192" y="-1" type="curve"/>
      <point x="145" y="-95" type="line"/>
      <point x="184" y="-95" type="line" smooth="yes"/>
      <point x="215" y="-95"/>
      <point x="233" y="-109"/>
      <point x="233" y="-131" type="curve" smooth="yes"/>
      <point x="233" y="-155"/>
      <point x="211" y="-171"/>
      <point x="178" y="-171" type="curve" smooth="yes"/>
      <point x="148" y="-171"/>
      <point x="122" y="-160"/>
      <point x="101" y="-138" type="curve"/>
      <point x="51" y="-184" type="line"/>
      <point x="82" y="-219"/>
      <point x="122" y="-235"/>
    </contour>
  </outline>
</glyph>
<glyph name="tcaron" format="2">
  <advance width="423"/>
  <unicode hex="0165"/>
  <outline>
    <contour>
      <point x="249" y="-7" type="curve" smooth="yes"/>
      <point x="280" y="-7"/>
      <point x="320" y="-2"/>
      <point x="344" y="4" type="curve"/>
      <point x="368" y="115" type="line"/>
      <point x="344" y="109"/>
      <point x="325" y="107"/>
      <point x="304" y="107" type="curve" smooth="yes"/>
      <point x="246" y="107"/>
      <point x="228" y="127"/>
      <point x="238" y="178" type="curve" smooth="yes"/>
      <point x="288" y="407" type="line"/>
      <point x="433" y="407" type="line"/>
      <point x="457" y="521" type="line"/>
      <point x="312" y="521" type="line"/>
      <point x="347" y="685" type="line"/>
      <point x="206" y="654" type="line"/>
      <point x="178" y="521" type="line"/>
      <point x="73" y="521" type="line"/>
      <point x="49" y="407" type="line"/>
      <point x="154" y="407" type="line"/>
      <point x="101" y="156" type="line" smooth="yes"/>
      <point x="78" y="51"/>
      <point x="132" y="-7"/>
    </contour>
    <contour>
      <point x="390" y="588" type="line"/>
      <point x="470" y="588" type="line"/>
      <point x="559" y="809" type="line"/>
      <point x="442" y="787" type="line"/>
    </contour>
  </outline>
</glyph>
<glyph name="Tbar" format="2">
  <advance width="639"/>
  <unicode hex="0166"/>
  <outline>
    <contour>
      <point x="193" y="0" type="line"/>
      <point x="335" y="0" type="line"/>
      <point x="395" y="280" type="line"/>
      <point x="533" y="280" type="line"/>
      <point x="557" y="395" type="line"/>
      <point x="419" y="395" type="line"/>
      <point x="457" y="572" type="line"/>
      <point x="687" y="572" type="line"/>
      <point x="715" y="700" type="line"/>
      <point x="111" y="700" type="line"/>
      <point x="83" y="572" type="line"/>
      <point x="315" y="572" type="line"/>
      <point x="277" y="395" type="line"/>
      <point x="139" y="395" type="line"/>
      <point x="115" y="280" type="line"/>
      <point x="252" y="280" type="line"/>
    </contour>
  </outline>
</glyph>
<glyph name="tbar" format="2">
  <advance width="425"/>
  <unicode hex="0167"/>
  <outline>
    <contour>
      <point x="249" y="-7" type="curve" smooth="yes"/>
      <point x="280" y="-7"/>
      <point x="320" y="-2"/>
      <point x="344" y="4" type="curve"/>
      <point x="368" y="115" type="line"/>
      <point x="344" y="109"/>
      <point x="325" y="107"/>
      <point x="304" y="107" type="curve" smooth="yes"/>
      <point x="246" y="107"/>
      <point x="228" y="127"/>
      <point x="238" y="178" type="curve" smooth="yes"/>
      <point x="249" y="229" type="line"/>
      <point x="395" y="229" type="line"/>
      <point x="415" y="328" type="line"/>
      <point x="271" y="328" type="line"/>
      <point x="288" y="407" type="line"/>
      <point x="433" y="407" type="line"/>
      <point x="457" y="521" type="line"/>
      <point x="312" y="521" type="line"/>
      <point x="347" y="685" type="line"/>
      <point x="206" y="654" type="line"/>
      <point x="178" y="521" type="line"/>
      <point x="73" y="521" type="line"/>
      <point x="49" y="407" type="line"/>
      <point x="154" y="407" type="line"/>
      <point x="137" y="328" type="line"/>
      <point x="32" y="328" type="line"/>
      <point x="12" y="229" type="line"/>
      <point x="116" y="229" type="line"/>
      <point x="101" y="156" type="line" smooth="yes"/>
      <point x="78" y="51"/>
      <point x="132" y="-7"/>
    </contour>
  </outline>
</glyph>
<glyph name="Uogonek" format="2">
  <advance width="710"/>
  <unicode hex="0172"/>
  <outline>
    <contour>
      <point x="307" y="-221" type="curve" smooth="yes"/>
      <point x="335" y="-221"/>
      <point x="365" y="-214"/>
      <point x="390" y="-200" type="curve"/>
      <point x="384" y="-139" type="line"/>
      <point x="372" y="-146"/>
      <point x="357" y="-150"/>
      <point x="344" y="-150" type="curve" smooth="yes"/>
      <point x="318" y="-150"/>
      <point x="302" y="-137"/>
      <point x="302" y="-115" type="curve" smooth="yes"/>
      <point x="302" y="-71"/>
      <point x="351" y="-33"/>
      <point x="414" y="0" type="curve"/>
      <point x="540" y="29"/>
      <point x="630" y="128"/>
      <point x="662" y="278" type="curve" smooth="yes"/>
      <point x="752" y="700" type="line"/>
      <point x="610" y="700" type="line"/>
      <point x="523" y="291" type="line" smooth="yes"/>
      <point x="503" y="189"/>
      <point x="430" y="124"/>
      <point x="339" y="124" type="curve" smooth="yes"/>
      <point x="235" y="124"/>
      <point x="181" y="200"/>
      <point x="205" y="314" type="curve" smooth="yes"/>
      <point x="287" y="700" type="line"/>
      <point x="145" y="700" type="line"/>
      <point x="66" y="328" type="line" smooth="yes"/>
      <point x="24" y="131"/>
      <point x="126" y="-5"/>
      <point x="320" y="-10" type="curve"/>
      <point x="253" y="-52"/>
      <point x="219" y="-98"/>
      <point x="219" y="-148" type="curve" smooth="yes"/>
      <point x="219" y="-193"/>
      <point x="253" y="-221"/>
    </contour>
  </outline>
</glyph>
<glyph name="uogonek" format="2">
  <advance width="582"/>
  <unicode hex="0173"/>
  <outline>
    <contour>
      <point x="366" y="-221" type="curve" smooth="yes"/>
      <point x="395" y="-221"/>
      <point x="424" y="-214"/>
      <point x="449" y="-200" type="curve"/>
      <point x="443" y="-139" type="line"/>
      <point x="431" y="-146"/>
      <point x="417" y="-150"/>
      <point x="403" y="-150" type="curve" smooth="yes"/>
      <point x="377" y="-150"/>
      <point x="362" y="-137"/>
      <point x="362" y="-115" type="curve" smooth="yes"/>
      <point x="362" y="-77"/>
      <point x="398" y="-40"/>
      <point x="473" y="0" type="curve"/>
      <point x="584" y="521" type="line"/>
      <point x="450" y="521" type="line"/>
      <point x="372" y="156" type="line"/>
      <point x="342" y="124"/>
      <point x="305" y="108"/>
      <point x="263" y="108" type="curve" smooth="yes"/>
      <point x="196" y="108"/>
      <point x="160" y="154"/>
      <point x="175" y="223" type="curve" smooth="yes"/>
      <point x="238" y="521" type="line"/>
      <point x="104" y="521" type="line"/>
      <point x="38" y="210" type="line" smooth="yes"/>
      <point x="11" y="84"/>
      <point x="81" y="-8"/>
      <point x="205" y="-8" type="curve" smooth="yes"/>
      <point x="257" y="-8"/>
      <point x="305" y="7"/>
      <point x="347" y="38" type="curve"/>
      <point x="339" y="0" type="line"/>
      <point x="395" y="0" type="line"/>
      <point x="317" y="-45"/>
      <point x="278" y="-94"/>
      <point x="278" y="-148" type="curve" smooth="yes"/>
      <point x="278" y="-193"/>
      <point x="312" y="-221"/>
    </contour>
  </outline>
</glyph>
<glyph name="dotlessj" format="2">
  <advance width="240"/>
  <unicode hex="0237"/>
  <anchor x="176" y="521" name="top"/>
  <outline>
    <contour>
      <point x="-65" y="-215" type="curve" smooth="yes"/>
      <point x="32" y="-215"/>
      <point x="97" y="-163"/>
      <point x="117" y="-68" type="curve" smooth="yes"/>
      <point x="243" y="521" type="line"/>
      <point x="108" y="521" type="line"/>
      <point x="-14" y="-54" type="line" smooth="yes"/>
      <point x="-21" y="-88"/>
      <point x="-40" y="-104"/>
      <point x="-73" y="-104" type="curve" smooth="yes"/>
      <point x="-95" y="-104"/>
      <point x="-109" y="-102"/>
      <point x="-124" y="-98" type="curve"/>
      <point x="-146" y="-202" type="line"/>
      <point x="-128" y="-209"/>
      <point x="-91" y="-215"/>
    </contour>
  </outline>
</glyph>
<glyph name="uni02BB" format="2">
  <advance width="250"/>
  <unicode hex="02BB"/>
  <outline>
    <contour>
      <point x="333" y="741" type="line"/>
      <point x="232" y="741" type="line"/>
      <point x="71" y="478" type="line"/>
      <point x="210" y="478" type="line"/>
    </contour>
  </outline>
</glyph>
<glyph name="circumflex" format="2">
  <advance width="600"/>
  <unicode hex="02C6"/>
  <outline>
    <contour>
      <point x="194" y="605" type="line"/>
      <point x="306" y="605" type="line"/>
      <point x="395" y="679" type="line"/>
      <point x="451" y="605" type="line"/>
      <point x="556" y="605" type="line"/>
      <point x="473" y="741" type="line"/>
      <point x="335" y="741" type="line"/>
    </contour>
  </outline>
</glyph>
<glyph name="caron" format="2">
  <advance width="600"/>
  <unicode hex="02C7"/>
  <outline>
    <contour>
      <point x="308" y="606" type="line"/>
      <point x="446" y="606" type="line"/>
      <point x="587" y="741" type="line"/>
      <point x="474" y="741" type="line"/>
      <point x="387" y="668" type="line"/>
      <point x="330" y="741" type="line"/>
      <point x="224" y="741" type="line"/>
    </contour>
  </outline>
</glyph>
<glyph name="breve" format="2">
  <advance width="600"/>
  <unicode hex="02D8"/>
  <outline>
    <contour>
      <point x="384" y="600" type="curve" smooth="yes"/>
      <point x="467" y="600"/>
      <point x="533" y="645"/>
      <point x="571" y="727" type="curve"/>
      <point x="488" y="753" type="line"/>
      <point x="463" y="704"/>
      <point x="428" y="677"/>
      <point x="386" y="677" type="curve" smooth="yes"/>
      <point x="340" y="677"/>
      <point x="315" y="705"/>
      <point x="311" y="760" type="curve"/>
      <point x="230" y="743" type="line"/>
      <point x="233" y="655"/>
      <point x="292" y="600"/>
    </contour>
  </outline>
</glyph>
<glyph name="dotaccent" format="2">
  <advance width="600"/>
  <unicode hex="02D9"/>
  <outline>
    <contour>
      <point x="377" y="602" type="curve" smooth="yes"/>
      <point x="419" y="602"/>
      <point x="456" y="640"/>
      <point x="456" y="683" type="curve" smooth="yes"/>
      <point x="456" y="719"/>
      <point x="429" y="747"/>
      <point x="395" y="747" type="curve" smooth="yes"/>
      <point x="351" y="747"/>
      <point x="314" y="710"/>
      <point x="314" y="666" type="curve" smooth="yes"/>
      <point x="314" y="630"/>
      <point x="341" y="602"/>
    </contour>
  </outline>
</glyph>
<glyph name="ring" format="2">
  <advance width="600"/>
  <unicode hex="02DA"/>
  <outline>
    <contour>
      <point x="381" y="586" type="curve" smooth="yes"/>
      <point x="451" y="586"/>
      <point x="513" y="649"/>
      <point x="513" y="719" type="curve" smooth="yes"/>
      <point x="513" y="780"/>
      <point x="467" y="825"/>
      <point x="402" y="825" type="curve" smooth="yes"/>
      <point x="333" y="825"/>
      <point x="271" y="762"/>
      <point x="271" y="692" type="curve" smooth="yes"/>
      <point x="271" y="631"/>
      <point x="317" y="586"/>
    </contour>
    <contour>
      <point x="385" y="643" type="curve" smooth="yes"/>
      <point x="354" y="643"/>
      <point x="331" y="666"/>
      <point x="331" y="698" type="curve" smooth="yes"/>
      <point x="331" y="736"/>
      <point x="362" y="768"/>
      <point x="399" y="768" type="curve" smooth="yes"/>
      <point x="430" y="768"/>
      <point x="453" y="745"/>
      <point x="453" y="713" type="curve" smooth="yes"/>
      <point x="453" y="675"/>
      <point x="422" y="643"/>
    </contour>
  </outline>
</glyph>
<glyph name="ogonek" format="2">
  <advance width="600"/>
  <unicode hex="02DB"/>
  <outline>
    <contour>
      <point x="190" y="-221" type="curve" smooth="yes"/>
      <point x="219" y="-221"/>
      <point x="249" y="-214"/>
      <point x="273" y="-200" type="curve"/>
      <point x="268" y="-139" type="line"/>
      <point x="256" y="-146"/>
      <point x="241" y="-150"/>
      <point x="227" y="-150" type="curve" smooth="yes"/>
      <point x="202" y="-150"/>
      <point x="186" y="-137"/>
      <point x="186" y="-115" type="curve" smooth="yes"/>
      <point x="186" y="-77"/>
      <point x="222" y="-40"/>
      <point x="298" y="0" type="curve"/>
      <point x="259" y="21" type="line"/>
      <point x="154" y="-30"/>
      <point x="102" y="-85"/>
      <point x="102" y="-148" type="curve" smooth="yes"/>
      <point x="102" y="-193"/>
      <point x="136" y="-221"/>
    </contour>
  </outline>
</glyph>
<glyph name="tilde" format="2">
  <advance width="600"/>
  <unicode hex="02DC"/>
  <outline>
    <contour>
      <point x="269" y="601" type="line"/>
      <point x="285" y="638"/>
      <point x="299" y="654"/>
      <point x="317" y="654" type="curve" smooth="yes"/>
      <point x="359" y="654"/>
      <point x="401" y="595"/>
      <point x="464" y="595" type="curve" smooth="yes"/>
      <point x="515" y="595"/>
      <point x="554" y="632"/>
      <point x="587" y="709" type="curve"/>
      <point x="510" y="735" type="line"/>
      <point x="491" y="695"/>
      <point x="480" y="682"/>
      <point x="461" y="682" type="curve" smooth="yes"/>
      <point x="423" y="682"/>
      <point x="374" y="742"/>
      <point x="313" y="742" type="curve" smooth="yes"/>
      <point x="264" y="742"/>
      <point x="225" y="705"/>
      <point x="191" y="628" type="curve"/>
    </contour>
  </outline>
</glyph>
<glyph name="hungarumlaut" format="2">
  <advance width="600"/>
  <unicode hex="02DD"/>
  <outline>
    <contour>
      <point x="340" y="737" type="line"/>
      <point x="213" y="610" type="line"/>
      <point x="317" y="610" type="line"/>
      <point x="473" y="737" type="line"/>
    </contour>
    <contour>
      <point x="542" y="737" type="line"/>
      <point x="415" y="610" type="line"/>
      <point x="512" y="610" type="line"/>
      <point x="678" y="737" type="line"/>
    </contour>
  </outline>
</glyph>
<glyph name="endash" format="2">
  <advance width="547"/>
  <unicode hex="2013"/>
  <outline>
    <contour>
      <point x="57" y="343" type="line"/>
      <point x="33" y="227" type="line"/>
      <point x="501" y="227" type="line"/>
      <point x="525" y="343" type="line"/>
    </contour>
  </outline>
</glyph>
<glyph name="emdash" format="2">
  <advance width="694"/>
  <unicode hex="2014"/>
  <outline>
    <contour>
      <point x="57" y="343" type="line"/>
      <point x="33" y="227" type="line"/>
      <point x="648" y="227" type="line"/>
      <point x="672" y="343" type="line"/>
    </contour>
  </outline>
</glyph>
<glyph name="uni2015" format="2">
  <advance width="939"/>
  <unicode hex="2015"/>
  <outline>
    <contour>
      <point x="57" y="343" type="line"/>
      <point x="33" y="227" type="line"/>
      <point x="893" y="227" type="line"/>
      <point x="917" y="343" type="line"/>
    </contour>
  </outline>
</glyph>
<glyph name="quoteleft" format="2">
  <advance width="250"/>
  <unicode hex="2018"/>
  <outline>
    <contour>
      <point x="333" y="741" type="line"/>
      <point x="232" y="741" type="line"/>
      <point x="71" y="478" type="line"/>
      <point x="210" y="478" type="line"/>
    </contour>
  </outline>
</glyph>
<glyph name="quotedblleft" format="2">
  <advance width="440"/>
  <unicode hex="201C"/>
  <outline>
    <contour>
      <point x="332" y="741" type="line"/>
      <point x="230" y="741" type="line"/>
      <point x="69" y="478" type="line"/>
      <point x="209" y="478" type="line"/>
    </contour>
    <contour>
      <point x="524" y="741" type="line"/>
      <point x="422" y="741" type="line"/>
      <point x="261" y="478" type="line"/>
      <point x="400" y="478" type="line"/>
    </contour>
  </outline>
</glyph>
<glyph name="dagger" format="2">
  <advance width="440"/>
  <unicode hex="2020"/>
  <outline>
    <contour>
      <point x="112" y="0" type="line"/>
      <point x="220" y="0" type="line"/>
      <point x="308" y="413" type="line"/>
      <point x="426" y="413" type="line"/>
      <point x="449" y="519" type="line"/>
      <point x="331" y="519" type="line"/>
      <point x="369" y="700" type="line"/>
      <point x="261" y="700" type="line"/>
      <point x="222" y="519" type="line"/>
      <point x="103" y="519" type="line"/>
      <point x="80" y="413" type="line"/>
      <point x="200" y="413" type="line"/>
    </contour>
  </outline>
</glyph>
<glyph name="daggerdbl" format="2">
  <advance width="440"/>
  <unicode hex="2021"/>
  <outline>
    <contour>
      <point x="112" y="0" type="line"/>
      <point x="220" y="0" type="line"/>
      <point x="258" y="181" type="line"/>
      <point x="377" y="181" type="line"/>
      <point x="399" y="287" type="line"/>
      <point x="281" y="287" type="line"/>
      <point x="308" y="413" type="line"/>
      <point x="426" y="413" type="line"/>
      <point x="449" y="519" type="line"/>
      <point x="331" y="519" type="line"/>
      <point x="369" y="700" type="line"/>
      <point x="261" y="700" type="line"/>
      <point x="222" y="519" type="line"/>
      <point x="103" y="519" type="line"/>
      <point x="80" y="413" type="line"/>
      <point x="200" y="413" type="line"/>
      <point x="172" y="287" type="line"/>
      <point x="53" y="287" type="line"/>
      <point x="31" y="181" type="line"/>
      <point x="150" y="181" type="line"/>
    </contour>
  </outline>
</glyph>
<glyph name="bullet" format="2">
  <advance width="348"/>
  <unicode hex="2022"/>
  <outline>
    <contour>
      <point x="176" y="216" type="curve" smooth="yes"/>
      <point x="244" y="216"/>
      <point x="305" y="277"/>
      <point x="305" y="346" type="curve" smooth="yes"/>
      <point x="305" y="404"/>
      <point x="262" y="448"/>
      <point x="204" y="448" type="curve" smooth="yes"/>
      <point x="133" y="448"/>
      <point x="74" y="388"/>
      <point x="74" y="317" type="curve" smooth="yes"/>
      <point x="74" y="261"/>
      <point x="118" y="216"/>
    </contour>
  </outline>
</glyph>
<glyph name="guilsinglleft" format="2">
  <advance width="423"/>
  <unicode hex="2039"/>
  <outline>
    <contour>
      <point x="451" y="521" type="line"/>
      <point x="312" y="521" type="line"/>
      <point x="18" y="260" type="line"/>
      <point x="201" y="0" type="line"/>
      <point x="338" y="0" type="line"/>
      <point x="161" y="259" type="line"/>
    </contour>
  </outline>
</glyph>
<glyph name="guilsinglright" format="2">
  <advance width="431"/>
  <unicode hex="203A"/>
  <outline>
    <contour>
      <point x="-20" y="0" type="line"/>
      <point x="120" y="0" type="line"/>
      <point x="413" y="261" type="line"/>
      <point x="230" y="521" type="line"/>
      <point x="93" y="521" type="line"/>
      <point x="270" y="262" type="line"/>
    </contour>
  </outline>
</glyph>
<glyph name="fraction" format="2">
  <advance width="566"/>
  <unicode hex="2044"/>
  <outline>
    <contour>
      <point x="-28" y="0" type="line"/>
      <point x="67" y="0" type="line"/>
      <point x="606" y="700" type="line"/>
      <point x="508" y="700" type="line"/>
    </contour>
  </outline>
</glyph>
<glyph name="uni2070" format="2">
  <advance width="356"/>
  <unicode hex="2070"/>
  <outline>
    <contour>
      <point x="209" y="345" type="curve" smooth="yes"/>
      <point x="313" y="345"/>
      <point x="395" y="443"/>
      <point x="395" y="565" type="curve" smooth="yes"/>
      <point x="395" y="651"/>
      <point x="342" y="706"/>
      <point x="259" y="706" type="curve" smooth="yes"/>
      <point x="156" y="706"/>
      <point x="73" y="608"/>
      <point x="73" y="486" type="curve" smooth="yes"/>
      <point x="73" y="400"/>
      <point x="126" y="345"/>
    </contour>
    <contour>
      <point x="217" y="418" type="curve" smooth="yes"/>
      <point x="178" y="418"/>
      <point x="155" y="445"/>
      <point x="155" y="492" type="curve" smooth="yes"/>
      <point x="155" y="569"/>
      <point x="198" y="633"/>
      <point x="250" y="633" type="curve" smooth="yes"/>
      <point x="290" y="633"/>
      <point x="314" y="605"/>
      <point x="314" y="559" type="curve" smooth="yes"/>
      <point x="314" y="482"/>
      <point x="271" y="418"/>
    </contour>
  </outline>
</glyph>
<glyph name="uni2074" format="2">
  <advance width="350"/>
  <unicode hex="2074"/>
  <outline>
    <contour>
      <point x="232" y="350" type="line"/>
      <point x="316" y="350" type="line"/>
      <point x="332" y="427" type="line"/>
      <point x="374" y="427" type="line"/>
      <point x="389" y="496" type="line"/>
      <point x="346" y="496" type="line"/>
      <point x="390" y="700" type="line"/>
      <point x="293" y="700" type="line"/>
      <point x="70" y="495" type="line"/>
      <point x="56" y="427" type="line"/>
      <point x="249" y="427" type="line"/>
    </contour>
    <contour>
      <point x="164" y="496" type="line"/>
      <point x="288" y="611" type="line"/>
      <point x="264" y="496" type="line"/>
    </contour>
  </outline>
</glyph>
<glyph name="uni2075" format="2">
  <advance width="316"/>
  <unicode hex="2075"/>
  <outline>
    <contour>
      <point x="190" y="346" type="curve" smooth="yes"/>
      <point x="276" y="346"/>
      <point x="342" y="402"/>
      <point x="342" y="477" type="curve" smooth="yes"/>
      <point x="342" y="533"/>
      <point x="291" y="574"/>
      <point x="221" y="574" type="curve" smooth="yes"/>
      <point x="206" y="574"/>
      <point x="193" y="572"/>
      <point x="176" y="568" type="curve"/>
      <point x="192" y="629" type="line"/>
      <point x="356" y="629" type="line"/>
      <point x="371" y="700" type="line"/>
      <point x="138" y="700" type="line"/>
      <point x="94" y="521" type="line"/>
      <point x="145" y="500" type="line"/>
      <point x="160" y="505"/>
      <point x="177" y="508"/>
      <point x="193" y="508" type="curve" smooth="yes"/>
      <point x="230" y="508"/>
      <point x="257" y="490"/>
      <point x="257" y="464" type="curve" smooth="yes"/>
      <point x="257" y="437"/>
      <point x="229" y="416"/>
      <point x="194" y="416" type="curve" smooth="yes"/>
      <point x="162" y="416"/>
      <point x="138" y="427"/>
      <point x="111" y="456" type="curve"/>
      <point x="52" y="403" type="line"/>
      <point x="83" y="367"/>
      <point x="133" y="346"/>
    </contour>
  </outline>
</glyph>
<glyph name="uni2076" format="2">
  <advance width="333"/>
  <unicode hex="2076"/>
  <outline>
    <contour>
      <point x="212" y="345" type="curve" smooth="yes"/>
      <point x="290" y="345"/>
      <point x="355" y="402"/>
      <point x="355" y="472" type="curve" smooth="yes"/>
      <point x="355" y="527"/>
      <point x="311" y="566"/>
      <point x="251" y="566" type="curve" smooth="yes"/>
      <point x="218" y="566"/>
      <point x="186" y="554"/>
      <point x="161" y="533" type="curve"/>
      <point x="175" y="591"/>
      <point x="216" y="632"/>
      <point x="263" y="632" type="curve" smooth="yes"/>
      <point x="294" y="632"/>
      <point x="315" y="623"/>
      <point x="332" y="604" type="curve"/>
      <point x="389" y="658" type="line"/>
      <point x="362" y="687"/>
      <point x="321" y="704"/>
      <point x="277" y="704" type="curve" smooth="yes"/>
      <point x="166" y="704"/>
      <point x="74" y="607"/>
      <point x="74" y="488" type="curve" smooth="yes"/>
      <point x="74" y="400"/>
      <point x="127" y="345"/>
    </contour>
    <contour>
      <point x="217" y="416" type="curve" smooth="yes"/>
      <point x="183" y="416"/>
      <point x="161" y="437"/>
      <point x="157" y="475" type="curve"/>
      <point x="178" y="492"/>
      <point x="202" y="502"/>
      <point x="226" y="502" type="curve" smooth="yes"/>
      <point x="254" y="502"/>
      <point x="274" y="485"/>
      <point x="274" y="462" type="curve" smooth="yes"/>
      <point x="274" y="436"/>
      <point x="249" y="416"/>
    </contour>
  </outline>
</glyph>
<glyph name="uni2077" format="2">
  <advance width="314"/>
  <unicode hex="2077"/>
  <outline>
    <contour>
      <point x="76" y="350" type="line"/>
      <point x="181" y="350" type="line"/>
      <point x="383" y="638" type="line"/>
      <point x="396" y="700" type="line"/>
      <point x="112" y="700" type="line"/>
      <point x="96" y="627" type="line"/>
      <point x="282" y="627" type="line"/>
    </contour>
  </outline>
</glyph>
<glyph name="uni2078" format="2">
  <advance width="330"/>
  <unicode hex="2078"/>
  <outline>
    <contour>
      <point x="197" y="344" type="curve" smooth="yes"/>
      <point x="280" y="344"/>
      <point x="346" y="394"/>
      <point x="346" y="458" type="curve" smooth="yes"/>
      <point x="346" y="485"/>
      <point x="332" y="509"/>
      <point x="309" y="523" type="curve"/>
      <point x="344" y="542"/>
      <point x="370" y="575"/>
      <point x="370" y="613" type="curve" smooth="yes"/>
      <point x="370" y="667"/>
      <point x="319" y="705"/>
      <point x="248" y="705" type="curve" smooth="yes"/>
      <point x="170" y="705"/>
      <point x="105" y="655"/>
      <point x="105" y="593" type="curve" smooth="yes"/>
      <point x="105" y="569"/>
      <point x="116" y="548"/>
      <point x="134" y="533" type="curve"/>
      <point x="92" y="517"/>
      <point x="63" y="480"/>
      <point x="63" y="438" type="curve" smooth="yes"/>
      <point x="63" y="382"/>
      <point x="116" y="344"/>
    </contour>
    <contour>
      <point x="233" y="558" type="curve" smooth="yes"/>
      <point x="206" y="558"/>
      <point x="186" y="573"/>
      <point x="186" y="593" type="curve" smooth="yes"/>
      <point x="186" y="617"/>
      <point x="210" y="637"/>
      <point x="240" y="637" type="curve" smooth="yes"/>
      <point x="267" y="637"/>
      <point x="287" y="622"/>
      <point x="287" y="602" type="curve" smooth="yes"/>
      <point x="287" y="579"/>
      <point x="261" y="558"/>
    </contour>
    <contour>
      <point x="203" y="414" type="curve" smooth="yes"/>
      <point x="169" y="414"/>
      <point x="147" y="429"/>
      <point x="147" y="451" type="curve" smooth="yes"/>
      <point x="147" y="476"/>
      <point x="175" y="496"/>
      <point x="208" y="496" type="curve" smooth="yes"/>
      <point x="241" y="496"/>
      <point x="264" y="481"/>
      <point x="264" y="458" type="curve" smooth="yes"/>
      <point x="264" y="433"/>
      <point x="238" y="414"/>
    </contour>
  </outline>
</glyph>
<glyph name="uni2079" format="2">
  <advance width="333"/>
  <unicode hex="2079"/>
  <outline>
    <contour>
      <point x="233" y="704" type="curve" smooth="yes"/>
      <point x="155" y="704"/>
      <point x="90" y="647"/>
      <point x="90" y="577" type="curve" smooth="yes"/>
      <point x="90" y="522"/>
      <point x="134" y="483"/>
      <point x="194" y="483" type="curve" smooth="yes"/>
      <point x="227" y="483"/>
      <point x="259" y="495"/>
      <point x="284" y="516" type="curve"/>
      <point x="270" y="458"/>
      <point x="229" y="417"/>
      <point x="182" y="417" type="curve" smooth="yes"/>
      <point x="151" y="417"/>
      <point x="130" y="426"/>
      <point x="113" y="445" type="curve"/>
      <point x="56" y="391" type="line"/>
      <point x="83" y="362"/>
      <point x="124" y="345"/>
      <point x="168" y="345" type="curve" smooth="yes"/>
      <point x="279" y="345"/>
      <point x="371" y="442"/>
      <point x="371" y="561" type="curve" smooth="yes"/>
      <point x="371" y="649"/>
      <point x="317" y="704"/>
    </contour>
    <contour>
      <point x="228" y="633" type="curve" smooth="yes"/>
      <point x="262" y="633"/>
      <point x="284" y="612"/>
      <point x="288" y="574" type="curve"/>
      <point x="267" y="557"/>
      <point x="243" y="547"/>
      <point x="219" y="547" type="curve" smooth="yes"/>
      <point x="190" y="547"/>
      <point x="171" y="564"/>
      <point x="171" y="587" type="curve" smooth="yes"/>
      <point x="171" y="613"/>
      <point x="196" y="633"/>
    </contour>
  </outline>
</glyph>
<glyph name="uni2080" format="2">
  <advance width="356"/>
  <unicode hex="2080"/>
  <outline>
    <contour>
      <point x="135" y="-5" type="curve" smooth="yes"/>
      <point x="239" y="-5"/>
      <point x="321" y="93"/>
      <point x="321" y="215" type="curve" smooth="yes"/>
      <point x="321" y="301"/>
      <point x="268" y="356"/>
      <point x="185" y="356" type="curve" smooth="yes"/>
      <point x="82" y="356"/>
      <point x="-1" y="258"/>
      <point x="-1" y="136" type="curve" smooth="yes"/>
      <point x="-1" y="50"/>
      <point x="52" y="-5"/>
    </contour>
    <contour>
      <point x="143" y="68" type="curve" smooth="yes"/>
      <point x="104" y="68"/>
      <point x="81" y="95"/>
      <point x="81" y="142" type="curve" smooth="yes"/>
      <point x="81" y="219"/>
      <point x="124" y="283"/>
      <point x="176" y="283" type="curve" smooth="yes"/>
      <point x="216" y="283"/>
      <point x="240" y="255"/>
      <point x="240" y="209" type="curve" smooth="yes"/>
      <point x="240" y="132"/>
      <point x="197" y="68"/>
    </contour>
  </outline>
</glyph>
<glyph name="uni2081" format="2">
  <advance width="191"/>
  <unicode hex="2081"/>
  <outline>
    <contour>
      <point x="33" y="0" type="line"/>
      <point x="116" y="0" type="line"/>
      <point x="191" y="350" type="line"/>
      <point x="138" y="350" type="line"/>
      <point x="27" y="308" type="line"/>
      <point x="11" y="236" type="line"/>
      <point x="90" y="265" type="line"/>
    </contour>
  </outline>
</glyph>
<glyph name="uni2082" format="2">
  <advance width="301"/>
  <unicode hex="2082"/>
  <outline>
    <contour>
      <point x="-28" y="0" type="line"/>
      <point x="228" y="0" type="line"/>
      <point x="242" y="70" type="line"/>
      <point x="111" y="70" type="line"/>
      <point x="199" y="135" type="line" smooth="yes"/>
      <point x="253" y="175"/>
      <point x="278" y="213"/>
      <point x="278" y="259" type="curve" smooth="yes"/>
      <point x="278" y="316"/>
      <point x="228" y="355"/>
      <point x="155" y="355" type="curve" smooth="yes"/>
      <point x="110" y="355"/>
      <point x="62" y="338"/>
      <point x="18" y="305" type="curve"/>
      <point x="51" y="245" type="line"/>
      <point x="88" y="272"/>
      <point x="115" y="283"/>
      <point x="141" y="283" type="curve" smooth="yes"/>
      <point x="174" y="283"/>
      <point x="194" y="267"/>
      <point x="194" y="243" type="curve" smooth="yes"/>
      <point x="194" y="222"/>
      <point x="179" y="201"/>
      <point x="146" y="178" type="curve" smooth="yes"/>
      <point x="-16" y="58" type="line"/>
    </contour>
  </outline>
</glyph>
<glyph name="uni2083" format="2">
  <advance width="322"/>
  <unicode hex="2083"/>
  <outline>
    <contour>
      <point x="117" y="-5" type="curve" smooth="yes"/>
      <point x="200" y="-5"/>
      <point x="265" y="44"/>
      <point x="265" y="107" type="curve" smooth="yes"/>
      <point x="265" y="134"/>
      <point x="251" y="156"/>
      <point x="225" y="169" type="curve"/>
      <point x="264" y="188"/>
      <point x="291" y="222"/>
      <point x="291" y="260" type="curve" smooth="yes"/>
      <point x="291" y="316"/>
      <point x="240" y="355"/>
      <point x="167" y="355" type="curve" smooth="yes"/>
      <point x="117" y="355"/>
      <point x="66" y="337"/>
      <point x="26" y="303" type="curve"/>
      <point x="70" y="247" type="line"/>
      <point x="99" y="271"/>
      <point x="125" y="282"/>
      <point x="155" y="282" type="curve" smooth="yes"/>
      <point x="184" y="282"/>
      <point x="205" y="266"/>
      <point x="205" y="246" type="curve" smooth="yes"/>
      <point x="205" y="223"/>
      <point x="177" y="205"/>
      <point x="141" y="205" type="curve" smooth="yes"/>
      <point x="117" y="205" type="line"/>
      <point x="103" y="137" type="line"/>
      <point x="136" y="137" type="line" smooth="yes"/>
      <point x="166" y="137"/>
      <point x="183" y="125"/>
      <point x="183" y="105" type="curve" smooth="yes"/>
      <point x="183" y="84"/>
      <point x="157" y="68"/>
      <point x="123" y="68" type="curve" smooth="yes"/>
      <point x="84" y="68"/>
      <point x="59" y="80"/>
      <point x="39" y="110" type="curve"/>
      <point x="-24" y="62" type="line"/>
      <point x="2" y="19"/>
      <point x="52" y="-5"/>
    </contour>
  </outline>
</glyph>
<glyph name="uni2084" format="2">
  <advance width="350"/>
  <unicode hex="2084"/>
  <outline>
    <contour>
      <point x="158" y="0" type="line"/>
      <point x="242" y="0" type="line"/>
      <point x="258" y="77" type="line"/>
      <point x="300" y="77" type="line"/>
      <point x="315" y="146" type="line"/>
      <point x="272" y="146" type="line"/>
      <point x="316" y="350" type="line"/>
      <point x="219" y="350" type="line"/>
      <point x="-4" y="145" type="line"/>
      <point x="-18" y="77" type="line"/>
      <point x="175" y="77" type="line"/>
    </contour>
    <contour>
      <point x="90" y="146" type="line"/>
      <point x="214" y="261" type="line"/>
      <point x="190" y="146" type="line"/>
    </contour>
  </outline>
</glyph>
<glyph name="uni2085" format="2">
  <advance width="316"/>
  <unicode hex="2085"/>
  <outline>
    <contour>
      <point x="116" y="-4" type="curve" smooth="yes"/>
      <point x="202" y="-4"/>
      <point x="268" y="52"/>
      <point x="268" y="127" type="curve" smooth="yes"/>
      <point x="268" y="183"/>
      <point x="217" y="224"/>
      <point x="147" y="224" type="curve" smooth="yes"/>
      <point x="132" y="224"/>
      <point x="119" y="222"/>
      <point x="102" y="218" type="curve"/>
      <point x="118" y="279" type="line"/>
      <point x="282" y="279" type="line"/>
      <point x="297" y="350" type="line"/>
      <point x="64" y="350" type="line"/>
      <point x="20" y="171" type="line"/>
      <point x="71" y="150" type="line"/>
      <point x="86" y="155"/>
      <point x="103" y="158"/>
      <point x="119" y="158" type="curve" smooth="yes"/>
      <point x="156" y="158"/>
      <point x="183" y="140"/>
      <point x="183" y="114" type="curve" smooth="yes"/>
      <point x="183" y="87"/>
      <point x="155" y="66"/>
      <point x="120" y="66" type="curve" smooth="yes"/>
      <point x="88" y="66"/>
      <point x="64" y="77"/>
      <point x="37" y="106" type="curve"/>
      <point x="-22" y="53" type="line"/>
      <point x="9" y="17"/>
      <point x="59" y="-4"/>
    </contour>
  </outline>
</glyph>
